<?xml version="1.0" standalone="no"?>
<!DOCTYPE svg PUBLIC "-//W3C//DTD SVG 1.1//EN" "http://www.w3.org/Graphics/SVG/1.1/DTD/svg11.dtd" >
<svg>
<metadata>
Created by FontForge 20110222 at Fri Apr 18 03:26:29 2014
 By Orthosie Webhosting
 ITC Franklin Gothic is a trademark of The International Typeface Corporation which may be registered in certain jurisdictions. Portions copyright Microsoft Corporation.  All rights reserved.
</metadata>
<defs>
<font id="FranklinGothicMediumRegular" horiz-adv-x="1451" >
  <font-face 
    font-family="FranklinGothicMediumRegular"
    font-weight="400"
    font-stretch="normal"
    units-per-em="2048"
    panose-1="2 11 6 3 2 1 2 2 2 4"
    ascent="1638"
    descent="-410"
    x-height="1010"
    cap-height="1365"
    bbox="-441 -628 2239 1949"
    underline-thickness="102"
    underline-position="-103"
    unicode-range="U+0020-FB02"
  />
<missing-glyph horiz-adv-x="2048" 
d="M256 0v1536h1536v-1536h-1536zM384 128h1280v1280h-1280v-1280z" />
    <glyph glyph-name=".notdef" horiz-adv-x="2048" 
d="M256 0v1536h1536v-1536h-1536zM384 128h1280v1280h-1280v-1280z" />
    <glyph glyph-name=".null" horiz-adv-x="0" 
 />
    <glyph glyph-name="nonmarkingreturn" horiz-adv-x="512" 
 />
    <glyph glyph-name="space" unicode=" " horiz-adv-x="512" 
 />
    <glyph glyph-name="exclam" unicode="!" horiz-adv-x="564" 
d="M437 1365l-101 -951h-104l-96 951h301zM406 250v-250h-249v250h249z" />
    <glyph glyph-name="quotedbl" unicode="&#x22;" horiz-adv-x="775" 
d="M297 817h-157l-33 548h224zM634 817h-157l-33 548h224z" />
    <glyph glyph-name="numbersign" unicode="#" horiz-adv-x="1201" 
d="M1151 994l-34 -193h-199l-37 -209h199l-34 -193h-200l-71 -399h-186l71 399h-217l-71 -399h-188l71 401h-205l34 191h208l37 209h-208l35 193h207l66 371h186l-66 -371h215l66 371h186l-67 -371h202zM730 801h-216l-36 -209h215z" />
    <glyph glyph-name="dollar" unicode="$" horiz-adv-x="1201" 
d="M659 -175h-135v185q-372 31 -476 360l215 50q58 -211 261 -227v395q-265 61 -345 154.5t-80 223.5q0 337 425 389v144h135v-144q311 -40 393 -307l-203 -43q-52 154 -190 166v-349q196 -56 264 -86t122.5 -117t54.5 -204q0 -166 -113 -276t-328 -129v-185zM524 1171
q-87 -1 -145.5 -43.5t-58.5 -125.5q0 -140 204 -167v336zM659 193q94 1 157.5 55t63.5 141q0 146 -221 187v-383z" />
    <glyph glyph-name="percent" unicode="%" horiz-adv-x="1580" 
d="M382 617q-144 0 -230.5 112.5t-86.5 274.5q0 159 87 266.5t233 107.5q163 0 241.5 -113t78.5 -258q0 -180 -94 -285t-229 -105zM383 765q138 0 138 240q0 228 -133 228q-135 0 -135 -227q0 -241 130 -241zM1289 1365l-845 -1365h-151l848 1365h148zM1189 -12
q-135 0 -223.5 104.5t-88.5 263.5q0 183 98.5 288.5t226.5 105.5q121 0 217 -98t96 -296q0 -166 -92.5 -267t-233.5 -101zM1197 133q71 0 103.5 68.5t32.5 157.5q0 129 -31.5 184.5t-96.5 55.5q-142 0 -142 -233t134 -233z" />
    <glyph glyph-name="ampersand" unicode="&#x26;" horiz-adv-x="1468" 
d="M1223 828l205 -36q-44 -292 -243 -516q70 -76 103.5 -92.5t79.5 -16.5q21 0 60 5v-191l-95 -2q-93 0 -152.5 27t-153.5 119q-205 -146 -446 -146q-229 0 -372.5 123.5t-143.5 304.5q0 115 67 219t288 202q-119 140 -119 259q0 133 100 216t256 83q160 0 262 -80t102 -218
q0 -97 -69 -187t-197 -142l296 -338q140 180 172 407zM643 908q174 73 174 180q0 58 -42 91t-99 33q-58 0 -101.5 -33.5t-43.5 -87.5q0 -88 112 -183zM539 678q-204 -92 -204 -256q0 -110 79.5 -176.5t200.5 -66.5q149 0 281 97z" />
    <glyph glyph-name="quotesingle" unicode="'" horiz-adv-x="438" 
d="M297 817h-157l-33 548h224z" />
    <glyph glyph-name="parenleft" unicode="(" horiz-adv-x="601" 
d="M545 -341h-135q-344 376 -344 871q0 270 115 503t229 332h135q-164 -229 -226 -428.5t-62 -427.5q0 -231 78.5 -453.5t209.5 -396.5z" />
    <glyph glyph-name="parenright" unicode=")" horiz-adv-x="601" 
d="M55 1365h135q346 -378 346 -871q0 -271 -116.5 -504t-229.5 -331h-135q164 228 226 427.5t62 428.5q0 459 -288 850z" />
    <glyph glyph-name="asterisk" unicode="*" horiz-adv-x="1201" 
d="M695 1379l-24 -342l310 118l49 -180l-316 -70l203 -251l-158 -105l-158 274l-159 -274l-157 105l202 251l-316 70l49 180l310 -118l-23 342h188z" />
    <glyph glyph-name="plus" unicode="+" horiz-adv-x="1201" 
d="M1107 785v-191h-411v-425h-190v425h-411v191h411v426h190v-426h411z" />
    <glyph glyph-name="comma" unicode="," horiz-adv-x="493" 
d="M371 255v-229l-161 -318h-88l119 292h-119v255h249z" />
    <glyph glyph-name="hyphen" unicode="-" horiz-adv-x="493" 
d="M497 613v-187h-502v187h502z" />
    <glyph glyph-name="period" unicode="." horiz-adv-x="493" 
d="M370 262v-262h-247v262h247z" />
    <glyph glyph-name="slash" unicode="/" horiz-adv-x="981" 
d="M919 1365l-893 -1706h-142l889 1706h146z" />
    <glyph glyph-name="zero" unicode="0" horiz-adv-x="1201" 
d="M598 -21q-251 0 -387 194.5t-136 494.5q0 324 142.5 521t382.5 197q173 0 292.5 -92.5t178 -257t58.5 -308.5q0 -241 -55 -395.5t-175 -254t-301 -99.5zM597 172q104 0 168 64t87 179t23 318q0 168 -56.5 319t-216.5 151q-278 0 -278 -514q0 -233 59 -375t214 -142z" />
    <glyph glyph-name="one" unicode="1" horiz-adv-x="1201" 
d="M1185 0h-1045v201h411v862q-205 -179 -373 -246v246q171 65 214 92.5t126 102t117 135.5h164v-1192h386v-201z" />
    <glyph glyph-name="two" unicode="2" horiz-adv-x="1201" 
d="M1092 213v-213h-1006v239l418 278q195 130 262 230.5t67 184.5q0 101 -67 170t-174 69q-234 0 -269 -285l-237 59q27 182 161.5 311.5t352.5 129.5q226 0 361 -128.5t135 -326.5q0 -175 -120 -312.5t-595 -405.5h711z" />
    <glyph glyph-name="three" unicode="3" horiz-adv-x="1201" 
d="M431 603v194h125q112 0 187 50t75 149q0 97 -63.5 146t-163.5 49q-202 0 -275 -198l-225 39q38 156 175.5 255t331.5 99q193 0 329.5 -99.5t136.5 -266.5q0 -124 -73.5 -212t-181.5 -96q134 -20 215.5 -111t81.5 -219q0 -176 -141.5 -289.5t-376.5 -113.5
q-217 0 -358.5 110.5t-178.5 253.5l233 57q70 -228 302 -228q120 0 193.5 61.5t73.5 148.5q0 88 -63.5 154.5t-191.5 66.5h-167z" />
    <glyph glyph-name="four" unicode="4" horiz-adv-x="1201" 
d="M928 0h-253v310h-606v180l606 903h253v-873h205v-210h-205v-310zM693 1136l-387 -616h369v377q0 60 6 108z" />
    <glyph glyph-name="five" unicode="5" horiz-adv-x="1201" 
d="M217 1365h849l-22 -211h-647l-38 -396q123 157 321 157q197 0 332.5 -136t135.5 -323q0 -195 -142 -336t-390 -141q-197 0 -344.5 91t-191.5 283l236 35q69 -209 287 -209q134 0 206.5 81t72.5 196q0 114 -72 192.5t-187 78.5q-174 0 -264 -159l-220 43z" />
    <glyph glyph-name="six" unicode="6" horiz-adv-x="1201" 
d="M1087 1054l-208 -40q-58 192 -240 192q-174 0 -243.5 -150.5t-69.5 -317.5q0 -33 1 -66q102 205 352 205q194 0 324 -123t130 -310q0 -198 -139 -331.5t-350 -133.5q-263 0 -413.5 185.5t-150.5 508.5q0 317 147.5 515t395.5 198q373 0 464 -332zM635 160
q110 0 185.5 66.5t75.5 203.5q0 93 -71.5 174t-198.5 81q-116 0 -187 -77t-71 -189q0 -113 73 -186t194 -73z" />
    <glyph glyph-name="seven" unicode="7" horiz-adv-x="1201" 
d="M125 1365h969v-174q-252 -327 -334.5 -567t-99.5 -624h-281q35 663 506 1154h-781z" />
    <glyph glyph-name="eight" unicode="8" horiz-adv-x="1201" 
d="M347 674q-240 110 -240 327q0 168 132.5 276.5t370.5 108.5q217 0 348.5 -97t131.5 -257q0 -195 -243 -296q297 -127 297 -359q0 -172 -148.5 -285t-400.5 -113q-266 0 -401.5 104.5t-135.5 262.5q0 225 289 328zM677 807q189 78 189 217q0 91 -77 141t-178 50
q-105 0 -180.5 -45t-75.5 -131q0 -89 82 -136t240 -96zM516 593q-100 -36 -161 -99.5t-61 -135.5q0 -74 76.5 -137t235.5 -63q132 0 208.5 51.5t76.5 131.5q0 69 -63.5 121t-311.5 131z" />
    <glyph glyph-name="nine" unicode="9" horiz-adv-x="1201" 
d="M121 247l206 59q79 -142 230 -142q155 0 238 143t85 399q-74 -138 -166 -177.5t-191 -39.5q-191 0 -320.5 120.5t-129.5 317.5q0 198 133.5 328.5t354.5 130.5q250 0 403.5 -172.5t153.5 -493.5q0 -327 -148 -534t-418 -207q-172 0 -283.5 80t-147.5 188zM567 688
q108 0 189.5 70t81.5 202q0 91 -71 165.5t-196 74.5q-117 0 -190.5 -74.5t-73.5 -183.5q0 -96 68.5 -175t191.5 -79z" />
    <glyph glyph-name="colon" unicode=":" horiz-adv-x="493" 
d="M370 943v-249h-247v249h247zM370 250v-250h-247v250h247z" />
    <glyph glyph-name="semicolon" unicode=";" horiz-adv-x="493" 
d="M371 943v-249h-249v249h249zM371 255v-229l-161 -318h-88l119 292h-119v255h249z" />
    <glyph glyph-name="semicolon" unicode="&#x37e;" horiz-adv-x="493" 
d="M371 943v-249h-249v249h249zM371 255v-229l-161 -318h-88l119 292h-119v255h249z" />
    <glyph glyph-name="less" unicode="&#x3c;" horiz-adv-x="1201" 
d="M1024 1221v-230l-641 -310l640 -310l1 -229l-887 442v196z" />
    <glyph glyph-name="equal" unicode="=" horiz-adv-x="1201" 
d="M1107 924v-191h-1012v191h1012zM1107 625v-191h-1012v191h1012z" />
    <glyph glyph-name="greater" unicode="&#x3e;" horiz-adv-x="1201" 
d="M177 142v230l642 310l-641 311l-1 228l887 -442v-196z" />
    <glyph glyph-name="question" unicode="?" horiz-adv-x="1027" 
d="M600 392h-195v135q0 68 27.5 107t120.5 111q142 109 142 231q0 92 -55.5 146t-144.5 54q-206 0 -243 -285l-218 39q20 213 157.5 334.5t329.5 121.5q191 0 316 -113.5t125 -282.5q0 -84 -34.5 -159.5t-78.5 -117t-186 -145.5q-40 -29 -51 -56.5t-12 -119.5zM640 250v-250
h-235v250h235z" />
    <glyph glyph-name="at" unicode="@" horiz-adv-x="1469" 
d="M1098 1041l-55 -466q-6 -49 -6 -94q0 -67 48 -67q77 0 147.5 105.5t70.5 255.5q0 217 -156.5 352.5t-379.5 135.5q-245 0 -411.5 -168t-166.5 -414q0 -230 156.5 -399.5t439.5 -169.5q220 0 449 118l59 -136q-245 -125 -508 -125q-349 0 -554.5 210.5t-205.5 502.5
q0 305 216 510t522 205q288 0 484 -176.5t196 -445.5q0 -195 -110 -347.5t-268 -152.5q-123 0 -170 104q-86 -108 -210 -108q-127 0 -217.5 106t-90.5 279q0 178 102 289.5t243 111.5q136 0 196 -86l8 70h172zM698 434q80 0 144.5 77.5t64.5 201.5q0 70 -49.5 125.5
t-121.5 55.5q-78 0 -129 -68.5t-51 -177.5q0 -93 39.5 -153.5t102.5 -60.5z" />
    <glyph glyph-name="A" unicode="A" horiz-adv-x="1235" 
d="M1221 0h-263l-109 325h-525l-107 -325h-210l453 1365h303zM783 522l-199 609l-199 -609h398z" />
    <glyph glyph-name="B" unicode="B" horiz-adv-x="1244" 
d="M150 0v1365h532q135 0 224 -28t154 -117t65 -209q0 -113 -66 -196.5t-182 -106.5q144 -25 218 -117t74 -218q0 -158 -103.5 -265.5t-318.5 -107.5h-597zM383 792h300q92 0 145.5 55t53.5 140q0 94 -61 138.5t-143 44.5h-295v-378zM383 205h318q101 0 159.5 53t58.5 143
q0 86 -59.5 141t-157.5 55h-319v-392z" />
    <glyph glyph-name="C" unicode="C" horiz-adv-x="1186" 
d="M913 474l228 -25q-22 -205 -158.5 -337.5t-358.5 -132.5q-187 0 -303.5 94t-179.5 255t-63 355q0 312 148 507.5t407 195.5q203 0 338 -125t170 -358l-228 -24q-63 309 -278 309q-138 0 -214.5 -128.5t-76.5 -372.5q0 -248 82 -374.5t217 -126.5q108 0 184 85t86 203z
" />
    <glyph glyph-name="D" unicode="D" horiz-adv-x="1341" 
d="M143 0v1365h503q279 0 448 -197.5t169 -487.5t-174 -485t-498 -195h-448zM396 201h205q165 0 280 124t115 369q0 200 -100.5 338.5t-265.5 138.5h-234v-970z" />
    <glyph glyph-name="E" unicode="E" horiz-adv-x="1099" 
d="M1037 0h-887v1365h878v-203h-632v-370h508v-198h-508v-382h641v-212z" />
    <glyph glyph-name="F" unicode="F" horiz-adv-x="1040" 
d="M403 0h-253v1365h863v-211h-610v-373h480v-205h-480v-576z" />
    <glyph glyph-name="G" unicode="G" horiz-adv-x="1315" 
d="M1186 698v-698h-109l-75 184q-119 -205 -369 -205q-279 0 -416.5 212t-137.5 491q0 295 153.5 499.5t429.5 204.5q206 0 339 -119.5t168 -297.5l-214 -38q-60 250 -287 250q-145 0 -236.5 -118t-91.5 -363q0 -517 324 -517q126 0 208.5 87t82.5 230h-282v198h513z" />
    <glyph glyph-name="H" unicode="H" horiz-adv-x="1313" 
d="M1163 0h-246v593h-521v-593h-246v1365h246v-561h521v561h246v-1365z" />
    <glyph glyph-name="I" unicode="I" horiz-adv-x="546" 
d="M396 0h-246v1365h246v-1365z" />
    <glyph glyph-name="J" unicode="J" horiz-adv-x="761" 
d="M624 1365v-942q0 -235 -101.5 -339.5t-323.5 -104.5q-128 0 -199 21v198q112 -8 158 -8q123 0 168 46t45 187v942h253z" />
    <glyph glyph-name="K" unicode="K" horiz-adv-x="1257" 
d="M1223 0h-275l-288 695l-264 -350v-345h-246v1365h246v-717q47 73 68 101l453 616h249l-324 -449z" />
    <glyph glyph-name="L" unicode="L" horiz-adv-x="1021" 
d="M990 0h-840v1365h259v-1142h581v-223z" />
    <glyph glyph-name="M" unicode="M" horiz-adv-x="1640" 
d="M1489 0h-251v1195l-378 -1195h-129l-380 1195v-1195h-201v1365h385l286 -879l281 879h387v-1365z" />
    <glyph glyph-name="N" unicode="N" horiz-adv-x="1331" 
d="M1181 0h-239l-518 872l-39 65q-12 20 -37 63v-1000h-198v1365h272l478 -804q6 -10 87 -147v951h194v-1365z" />
    <glyph glyph-name="O" unicode="O" horiz-adv-x="1318" 
d="M653 -21q-272 0 -423.5 204t-151.5 504q0 298 161 498.5t425 200.5q266 0 420.5 -200.5t154.5 -501.5q0 -316 -160.5 -510.5t-425.5 -194.5zM655 177q133 0 225 110t92 399q0 235 -76 368.5t-236 133.5q-316 0 -316 -509q0 -247 80.5 -374.5t230.5 -127.5z" />
    <glyph glyph-name="P" unicode="P" horiz-adv-x="1227" 
d="M396 0h-246v1365h559q239 0 354.5 -120.5t115.5 -284.5q0 -187 -125 -303t-317 -116h-341v-541zM396 752h291q114 0 174 56t60 149q0 84 -55.5 144t-200.5 60h-269v-409z" />
    <glyph glyph-name="Q" unicode="Q" horiz-adv-x="1318" 
d="M1183 -73v-206q-118 -9 -140 -9q-303 0 -304 265q-75 -4 -91 -4q-274 0 -422 201.5t-148 508.5q0 301 152.5 502t428.5 201q201 0 320 -94t189.5 -247t70.5 -359q0 -439 -291 -628q-46 -30 -46 -52q0 -35 30.5 -60t83.5 -25q36 0 107 4q20 1 60 2zM652 179q320 0 320 504
q0 268 -85.5 386.5t-225.5 118.5q-317 0 -317 -518q0 -491 308 -491z" />
    <glyph glyph-name="R" unicode="R" horiz-adv-x="1316" 
d="M1214 0h-260l-212 561h-346v-561h-246v1365h592q247 0 363 -111.5t116 -288.5q0 -263 -246 -362zM396 758h306q133 0 198 56t65 154q0 90 -64 145.5t-179 55.5h-326v-411z" />
    <glyph glyph-name="S" unicode="S" horiz-adv-x="1170" 
d="M7 329l239 51q43 -203 330 -203q131 0 201.5 52t70.5 129q0 56 -32 103.5t-137 74.5l-261 68q-134 35 -198 79.5t-102.5 125.5t-38.5 173q0 183 136 293.5t348 110.5q176 0 314.5 -77t176.5 -218l-234 -58q-54 155 -252 155q-115 0 -175.5 -48t-60.5 -122
q0 -117 190 -164l232 -58q211 -53 283 -156.5t72 -228.5q0 -201 -151.5 -316.5t-392.5 -115.5q-203 0 -355.5 85t-202.5 265z" />
    <glyph glyph-name="T" unicode="T" horiz-adv-x="990" 
d="M627 0h-264v1154h-363v211h990v-211h-363v-1154z" />
    <glyph glyph-name="U" unicode="U" horiz-adv-x="1218" 
d="M1087 1365v-877q0 -178 -40 -274t-154.5 -165.5t-279.5 -69.5q-167 0 -274.5 60t-154.5 164.5t-47 266.5v895h251v-877q0 -180 75.5 -236.5t175.5 -56.5q115 0 184 60.5t69 232.5v877h195z" />
    <glyph glyph-name="V" unicode="V" horiz-adv-x="1107" 
d="M675 0h-250l-421 1365h260l313 -1046l320 1046h205z" />
    <glyph glyph-name="W" unicode="W" horiz-adv-x="1809" 
d="M1789 1365l-365 -1365h-258l-272 1004l-247 -1004h-253l-373 1365h261l264 -995l246 995h249l272 -995l259 995h217z" />
    <glyph glyph-name="X" unicode="X" horiz-adv-x="1160" 
d="M1149 0h-287l-302 538l-320 -538h-229l432 711l-371 654h286l252 -454l267 454h230l-380 -623z" />
    <glyph glyph-name="Y" unicode="Y" horiz-adv-x="1113" 
d="M699 0h-261v576l-465 789h298l324 -563l310 563h236l-442 -789v-576z" />
    <glyph glyph-name="Z" unicode="Z" horiz-adv-x="1091" 
d="M1050 212v-212h-1009v194l699 976h-650v195h940v-195l-691 -958h711z" />
    <glyph glyph-name="bracketleft" unicode="[" horiz-adv-x="601" 
d="M482 1201h-167v-1378h167v-164h-344v1706h344v-164z" />
    <glyph glyph-name="backslash" unicode="\" horiz-adv-x="981" 
d="M62 1365h146l889 -1706h-141z" />
    <glyph glyph-name="bracketright" unicode="]" horiz-adv-x="601" 
d="M119 -177h167v1378h-167v164h344v-1706h-344v164z" />
    <glyph glyph-name="asciicircum" unicode="^" horiz-adv-x="1024" 
d="M266 703h-244l338 669h305l338 -669h-244l-247 484z" />
    <glyph glyph-name="underscore" unicode="_" horiz-adv-x="1024" 
d="M0 -107h1024v-208h-1024v208z" />
    <glyph glyph-name="grave" unicode="`" horiz-adv-x="1024" 
d="M280 1487l393 -219l-42 -107l-417 176z" />
    <glyph glyph-name="a" unicode="a" horiz-adv-x="1107" 
d="M1001 0h-217q-29 92 -35 204q-91 -225 -342 -225q-151 0 -242.5 88.5t-91.5 222.5q0 348 611 348q24 0 65 -1v76q0 157 -214 157q-208 0 -236 -157l-194 29q16 126 130 207.5t330 81.5q117 0 191 -19.5t125 -66t70.5 -101t19.5 -184.5v-456q0 -99 30 -204zM749 514
q-442 0 -442 -211q0 -63 44.5 -107.5t134.5 -44.5q130 0 196.5 82.5t66.5 187.5v93z" />
    <glyph glyph-name="b" unicode="b" horiz-adv-x="1103" 
d="M240 0h-103v1365h228v-493q65 113 130 149t152 36q166 0 275 -141t109 -391q0 -226 -107.5 -386t-308.5 -160q-202 0 -314 187zM365 431q0 -135 58.5 -199.5t151.5 -64.5q90 0 151 74t65 290q0 158 -55 243.5t-155 85.5q-94 0 -155 -73t-61 -206v-150z" />
    <glyph glyph-name="c" unicode="c" horiz-adv-x="954" 
d="M720 371l196 -20q-38 -190 -147 -281t-263 -91q-209 0 -321.5 152.5t-112.5 373.5q0 228 123 377t328 149q330 0 393 -348l-196 -27q-26 188 -185 188q-116 0 -168.5 -101.5t-52.5 -245.5q0 -153 54.5 -236t152.5 -83q150 0 199 193z" />
    <glyph glyph-name="d" unicode="d" horiz-adv-x="1103" 
d="M967 0h-213v204q-88 -225 -298 -225q-186 0 -285 155t-99 385q0 214 103 373t293 159q195 0 271 -178v492h228v-1365zM739 596q0 123 -58.5 191.5t-151.5 68.5q-101 0 -158 -88t-57 -263q0 -338 212 -338q84 0 148.5 72.5t64.5 185.5v171z" />
    <glyph glyph-name="e" unicode="e" horiz-adv-x="1074" 
d="M779 322l206 -28q-40 -137 -156 -226t-291 -89q-210 0 -338 141t-128 382q0 229 129 379t350 150q216 0 334 -148t118 -380l-1 -26h-693q0 -103 19.5 -165t77.5 -108t145 -46q169 0 228 164zM765 624q-1 109 -65.5 178t-159.5 69q-94 0 -157 -64.5t-74 -182.5h456z" />
    <glyph glyph-name="f" unicode="f" horiz-adv-x="647" 
d="M392 0h-220v833h-150v177h150v50q0 148 72 238t291 90q32 0 81 -2v-179q-43 3 -59 3q-84 0 -118 -22.5t-40.5 -53t-6.5 -124.5h224v-177h-224v-833z" />
    <glyph glyph-name="g" unicode="g" horiz-adv-x="1061" 
d="M1058 1203v-175h-70q-46 0 -80.5 -11t-67.5 -71q120 -98 120 -218q0 -134 -112.5 -222t-297.5 -88q-80 0 -187 26q-70 -32 -70 -99q0 -37 34 -68t103 -31h300q154 0 241.5 -79.5t87.5 -197.5q0 -143 -132.5 -237t-392.5 -94q-489 0 -489 273q0 135 147 205
q-94 80 -94 167q0 132 161 210q-140 85 -140 234q0 126 103 215t313 89q96 0 195 -21q46 193 243 193h85zM540 553q186 0 186 175q0 67 -46.5 113t-135.5 46q-90 0 -139.5 -48t-49.5 -120q0 -74 49 -120t136 -46zM290 55q-49 -45 -49 -87q0 -69 82 -121.5t261 -52.5
q263 0 263 135q0 50 -46 75.5t-105 25.5h-242q-69 0 -164 25z" />
    <glyph glyph-name="h" unicode="h" horiz-adv-x="1110" 
d="M973 0h-228v661q0 107 -45.5 150.5t-106.5 43.5q-97 0 -163 -77t-66 -254v-524h-228v1365h228v-532q85 218 298 218q311 0 311 -357v-694z" />
    <glyph glyph-name="i" unicode="i" horiz-adv-x="501" 
d="M364 1128h-228v237h228v-237zM364 0h-228v1010h228v-1010z" />
    <glyph glyph-name="j" unicode="j" horiz-adv-x="501" 
d="M364 1128h-228v237h228v-237zM364 1010v-994q0 -378 -347 -378q-53 0 -117 12v193q43 -5 73 -5q95 0 129 36t34 142v994h228z" />
    <glyph glyph-name="k" unicode="k" horiz-adv-x="1090" 
d="M1077 0h-240l-258 518l-224 -251v-267h-218v1365h218v-847q29 38 46 57l400 435h245l-304 -334z" />
    <glyph glyph-name="l" unicode="l" horiz-adv-x="501" 
d="M364 0h-228v1365h228v-1365z" />
    <glyph glyph-name="m" unicode="m" horiz-adv-x="1782" 
d="M1645 0h-239v629q0 196 -174 196q-101 0 -161.5 -74t-60.5 -221v-530h-242v629q0 199 -163 199q-99 0 -166.5 -80t-67.5 -218v-530h-235v1010h221v-215q108 236 337 236q223 0 290 -236q122 236 337 236q146 0 235 -91t89 -226v-714z" />
    <glyph glyph-name="n" unicode="n" horiz-adv-x="1109" 
d="M973 0h-228v631q0 100 -46 150.5t-111 50.5q-89 0 -156 -78t-67 -235v-519h-228v1010h208v-234q109 255 306 255q133 0 227.5 -84t94.5 -295v-652z" />
    <glyph glyph-name="o" unicode="o" horiz-adv-x="1083" 
d="M532 -21q-224 0 -342 161t-118 369q0 224 130.5 373t344.5 149q203 0 333.5 -145t130.5 -377q0 -239 -135.5 -384.5t-343.5 -145.5zM540 167q230 0 230 343q0 155 -55 244.5t-169 89.5q-118 0 -175 -92.5t-57 -245.5q0 -165 60.5 -252t165.5 -87z" />
    <glyph glyph-name="p" unicode="p" horiz-adv-x="1103" 
d="M369 -341h-232v1351h218v-176q105 197 309 197q168 0 268 -146t100 -373q0 -215 -95.5 -374t-284.5 -159q-195 0 -283 162v-482zM369 414q0 -110 65.5 -182.5t145.5 -72.5q109 0 159.5 95.5t50.5 242.5q0 154 -51 250.5t-152 96.5q-91 0 -154.5 -79t-63.5 -207v-144z" />
    <glyph glyph-name="q" unicode="q" horiz-adv-x="1109" 
d="M973 -341h-237v519q-81 -199 -281 -199q-192 0 -287.5 157t-95.5 365q0 234 112 382t310 148q185 0 296 -162l61 141h122v-1351zM736 593q0 99 -45.5 175t-148.5 76q-111 0 -170 -91.5t-59 -249.5q0 -162 60.5 -252t153.5 -90q85 0 147 76.5t62 209.5v146z" />
    <glyph glyph-name="r" unicode="r" horiz-adv-x="679" 
d="M365 0h-228v1010h206v-241q44 141 121 206t158 65q11 0 30 -1v-245q-174 0 -230.5 -111t-56.5 -215v-468z" />
    <glyph glyph-name="s" unicode="s" horiz-adv-x="930" 
d="M14 232l214 41q49 -123 216 -123q212 0 212 125q0 40 -33 66t-78 35l-184 35q-306 59 -306 299q0 134 97 227.5t289 93.5q320 0 391 -235l-203 -41q-32 114 -182 114q-182 0 -182 -114q0 -79 147 -109l217 -45q253 -52 253 -290q0 -167 -130 -249.5t-309 -82.5
q-155 0 -274 62.5t-155 190.5z" />
    <glyph glyph-name="t" unicode="t" horiz-adv-x="660" 
d="M605 178v-178q-102 -22 -158 -22q-92 0 -158 36.5t-96.5 100t-30.5 195.5v523h-126v177h139l21 263l187 17v-280h203v-177h-203v-493q0 -95 34.5 -129.5t130.5 -34.5q27 0 57 2z" />
    <glyph glyph-name="u" unicode="u" horiz-adv-x="1105" 
d="M968 0h-212v218q-86 -239 -319 -239q-138 0 -219 85.5t-81 238.5v707h233v-658q0 -109 48 -143t94 -34q74 0 151 66.5t77 283.5v485h228v-1010z" />
    <glyph glyph-name="v" unicode="v" horiz-adv-x="910" 
d="M897 1010l-343 -1010h-189l-351 1010h238l236 -685l230 685h179z" />
    <glyph glyph-name="w" unicode="w" horiz-adv-x="1427" 
d="M1406 1010l-296 -1010h-205l-182 708l-181 -708h-211l-311 1010h242l199 -679l174 679h207l177 -679l195 679h192z" />
    <glyph glyph-name="x" unicode="x" horiz-adv-x="904" 
d="M904 0h-260l-214 368l-234 -368h-196l336 520l-291 490h261l166 -297l189 297h191l-285 -438z" />
    <glyph glyph-name="y" unicode="y" horiz-adv-x="905" 
d="M891 1010l-393 -1150q-36 -106 -98.5 -164.5t-176.5 -58.5q-45 0 -131 7v181l109 -2q72 0 106.5 23.5t54.5 83.5t20 70q0 6 -21 62l-347 948h239l245 -666l211 666h182z" />
    <glyph glyph-name="z" unicode="z" horiz-adv-x="857" 
d="M810 177v-177h-762v177l487 656h-441v177h716v-161l-499 -672h499z" />
    <glyph glyph-name="braceleft" unicode="{" horiz-adv-x="601" 
d="M215 511q124 -61 124 -237v-296q0 -116 44 -140.5t155 -24.5v-153l-90 -2q-153 0 -223 66t-70 222v319q0 98 -33 133.5t-82 46.5v145q115 24 115 167v335q0 146 70.5 210t228.5 64q27 0 84 -2v-153q-126 0 -162.5 -32t-36.5 -129v-304q0 -62 -18.5 -126.5t-105.5 -108.5z
" />
    <glyph glyph-name="bar" unicode="|" horiz-adv-x="1024" 
d="M396 1365h232v-1706h-232v1706z" />
    <glyph glyph-name="braceright" unicode="}" horiz-adv-x="601" 
d="M386 513q-124 60 -124 237v296q0 116 -43.5 140.5t-155.5 24.5v153l89 2q158 0 225.5 -69t67.5 -219v-319q0 -97 32.5 -133t83.5 -47v-145q-116 -24 -116 -167v-335q0 -146 -70.5 -210t-227.5 -64q-28 0 -84 2v153q126 0 162.5 32t36.5 129v304q0 68 20 130t104 105z" />
    <glyph glyph-name="asciitilde" unicode="~" horiz-adv-x="1201" 
d="M233 493l-129 84q64 156 134.5 213.5t166.5 57.5q71 0 218 -58q134 -53 183 -53q96 0 158 115l133 -78q-113 -261 -319 -261q-57 0 -246 72q-101 39 -143 39q-94 0 -156 -131z" />
    <glyph glyph-name="nonbreakingspace" unicode="&#xa0;" horiz-adv-x="512" 
 />
    <glyph glyph-name="exclamdown" unicode="&#xa1;" horiz-adv-x="564" 
d="M157 774v250h250v-250h-250zM126 -341l101 951h104l96 -951h-301z" />
    <glyph glyph-name="cent" unicode="&#xa2;" horiz-adv-x="1201" 
d="M561 1450h127v-258q295 -40 352 -337l-186 -33q-52 174 -166 190v-618q115 7 166 184l186 -27q-53 -294 -352 -339v-280h-127v280q-181 24 -283.5 159t-102.5 321q0 210 106.5 344t279.5 156v258zM561 1012q-148 -24 -148 -324q0 -259 148 -294v618z" />
    <glyph glyph-name="sterling" unicode="&#xa3;" horiz-adv-x="1201" 
d="M-25 0v227q125 2 185.5 23.5t105 88.5t44.5 143q0 39 -12 142h-158v177h137q-17 113 -17 169q0 181 115 298.5t298 117.5q270 0 392 -249l-194 -90q-47 153 -189 153q-80 0 -127.5 -53t-47.5 -157q0 -75 32 -189h248v-177h-248q0 -162 -29 -236t-123 -161h261
q203 0 267.5 49.5t73.5 143.5l216 -108q-41 -112 -106 -182t-144 -100t-218 -30h-762z" />
    <glyph glyph-name="currency" unicode="&#xa4;" horiz-adv-x="1365" 
d="M63 273l205 205q-94 133 -94 284q0 153 94 284l-208 208l127 127l208 -207q134 94 294 94q147 0 280 -92l205 204l127 -126l-205 -205q97 -141 97 -287q0 -149 -94 -282l207 -207l-125 -127l-207 206q-136 -96 -291 -96q-147 0 -289 95l-206 -204zM981 762
q0 123 -87.5 211t-210.5 88q-122 0 -209.5 -88t-87.5 -211t87.5 -211t209.5 -88t210 87.5t88 211.5z" />
    <glyph glyph-name="yen" unicode="&#xa5;" horiz-adv-x="1202" 
d="M107 867h223l-271 498h284l294 -563l280 563h225l-257 -498h209v-123h-272l-87 -168v-34h359v-123h-359v-419h-247v419h-381v123h381v34l-91 168h-290v123z" />
    <glyph glyph-name="brokenbar" unicode="&#xa6;" horiz-adv-x="1024" 
d="M396 1365h232v-701h-232v701zM396 314h232v-655h-232v655z" />
    <glyph glyph-name="section" unicode="&#xa7;" horiz-adv-x="1201" 
d="M124 -62l218 41q82 -166 281 -166q95 0 155.5 42.5t60.5 102.5q0 56 -37.5 98.5t-155.5 86.5l-215 80q-96 35 -138 69t-74.5 98.5t-32.5 143.5q0 175 156 265q-123 93 -123 233q0 145 108.5 245.5t317.5 100.5q305 0 414 -249l-185 -52q-58 152 -247 152
q-198 0 -198 -135q0 -91 160 -146l179 -61q167 -57 228 -140t61 -187q0 -135 -132 -268q153 -93 153 -275q0 -167 -121.5 -269t-346.5 -102q-177 0 -294.5 65t-191.5 227zM786 352q73 74 73 141q0 111 -177 172l-216 74q-73 -61 -73 -129q0 -116 205 -190z" />
    <glyph glyph-name="dieresis" unicode="&#xa8;" horiz-adv-x="1024" 
d="M343 1188q-48 0 -79.5 31.5t-31.5 75.5t31 77.5t80 33.5q46 0 80 -29.5t34 -80.5q0 -50 -33.5 -79t-80.5 -29zM678 1188q-49 0 -80.5 32t-31.5 75q0 44 31.5 77.5t80.5 33.5q45 0 79.5 -29.5t34.5 -80.5q0 -50 -33.5 -79t-80.5 -29z" />
    <glyph glyph-name="copyright" unicode="&#xa9;" horiz-adv-x="1584" 
d="M1501 682q0 -292 -208 -501.5t-499 -209.5q-293 0 -502 209.5t-209 502.5t208.5 502t504.5 209q291 0 498 -209t207 -503zM1374 683q0 245 -170.5 421t-408.5 176q-243 0 -414 -175.5t-171 -421.5q0 -248 171.5 -423t411.5 -175q238 0 409.5 175t171.5 423zM956 568
l165 -18q-16 -132 -104.5 -210.5t-229.5 -78.5q-158 0 -254.5 113t-96.5 309q0 190 96 306t260 116q276 0 329 -298l-164 -17q0 1 -6 23q-41 161 -158 161q-72 0 -121 -67.5t-49 -221.5q0 -141 48 -215t127 -74q62 0 107 48t51 124z" />
    <glyph glyph-name="ordfeminine" unicode="&#xaa;" horiz-adv-x="730" 
d="M657 771h-158q-15 33 -19 76l-1 11q-24 -31 -48 -51q-57 -48 -158 -48q-98 0 -158 53.5t-60 135.5q0 213 420 213v37q0 86 -122 86q-123 0 -138 -94l-142 20q34 183 295 183q115 0 173 -29.5t76.5 -71.5t18.5 -125v-269q0 -58 21 -127zM475 1074q-253 0 -253 -117
q0 -83 100 -83q78 0 115.5 46.5t37.5 105.5v48z" />
    <glyph glyph-name="guillemotleft" unicode="&#xab;" horiz-adv-x="674" 
d="M585 799l-91 -290l91 -288h-91l-165 288l165 290h91zM329 799l-97 -290l97 -288h-97l-157 288l157 290h97z" />
    <glyph glyph-name="logicalnot" unicode="&#xac;" horiz-adv-x="1201" 
d="M812 0v338h-655v208h887v-546h-232z" />
    <glyph glyph-name="sfthyphen" unicode="&#xad;" horiz-adv-x="493" 
d="M497 613v-187h-502v187h502z" />
    <glyph glyph-name="registered" unicode="&#xae;" horiz-adv-x="1584" 
d="M1501 682q0 -292 -208 -501.5t-499 -209.5q-293 0 -502 209.5t-209 502.5t208.5 502t504.5 209q291 0 498 -209t207 -503zM1374 683q0 245 -170.5 421t-408.5 176q-243 0 -414 -175.5t-171 -421.5q0 -248 171.5 -423t411.5 -175q238 0 409.5 175t171.5 423zM1149 273
h-184l-133 331h-196v-331h-175v819h380q156 0 232.5 -68t76.5 -175q0 -153 -152 -216zM636 734h180q153 0 153 117q0 112 -140 112h-193v-229z" />
    <glyph glyph-name="overscore" unicode="&#xaf;" horiz-adv-x="1024" 
d="M0 1811h1024v-209h-1024v209z" />
    <glyph glyph-name="degree" unicode="&#xb0;" horiz-adv-x="1201" 
d="M601 1393q116 0 194.5 -81t78.5 -192q0 -112 -79.5 -192.5t-193.5 -80.5q-116 0 -194.5 82t-78.5 191q0 107 77 190t196 83zM602 1256q-58 0 -97 -41t-39 -95q0 -53 38.5 -94.5t97.5 -41.5q56 0 96 40t40 96q0 55 -39 95.5t-97 40.5z" />
    <glyph glyph-name="plusminus" unicode="&#xb1;" horiz-adv-x="1201" 
d="M1107 785v-191h-411v-425h-190v425h-411v191h411v426h190v-426h411zM1107 102v-191h-1012v191h1012z" />
    <glyph glyph-name="twosuperior" unicode="&#xb2;" horiz-adv-x="792" 
d="M713 685v-139h-649v152l245 152q109 68 154 114.5t58.5 77.5t13.5 61q0 58 -40 96.5t-105 38.5q-143 0 -164 -171l-163 38q17 114 104 193.5t228 79.5q147 0 233.5 -78.5t86.5 -197.5q0 -109 -80.5 -192t-350.5 -225h429z" />
    <glyph glyph-name="threesuperior" unicode="&#xb3;" horiz-adv-x="792" 
d="M282 903v128h86q67 0 113 27.5t46 82.5q0 107 -137 107q-125 0 -169 -117l-155 26q24 99 113.5 160t214.5 61q124 0 212 -60.5t88 -161.5q0 -132 -129 -183q156 -55 156 -195q0 -106 -91 -175t-242 -69q-139 0 -230.5 67t-116.5 160l160 36q43 -136 184 -136
q76 0 119.5 34.5t43.5 82.5q0 50 -38 87.5t-116 37.5h-112z" />
    <glyph glyph-name="acute" unicode="&#xb4;" horiz-adv-x="1024" 
d="M739 1487l66 -150l-417 -176l-42 107z" />
    <glyph glyph-name="mu1" unicode="&#xb5;" horiz-adv-x="1201" 
d="M173 -341v1351h228v-540q0 -111 16.5 -167t65.5 -96t114 -40q93 0 148 65t55 238v540h228v-1010h-193v155q-76 -176 -231 -176q-72 0 -129.5 42.5t-73.5 100.5v-463h-228z" />
    <glyph glyph-name="paragraph" unicode="&#xb6;" horiz-adv-x="1201" 
d="M1155 1365v-114h-150v-1586h-114v1586h-112v-1586h-118v1038h-130q-182 0 -269.5 25.5t-139.5 102t-52 194.5q0 92 55 183t133.5 124t277.5 33h619zM661 818v433h-107q-152 0 -198.5 -28t-66 -92t-19.5 -111q0 -101 57.5 -151.5t204.5 -50.5h129z" />
    <glyph glyph-name="middot" unicode="&#xb7;" horiz-adv-x="247" 
d="M247 651v-262h-247v262h247z" />
    <glyph glyph-name="cedilla" unicode="&#xb8;" horiz-adv-x="1024" 
d="M513 0l-26 -93q102 0 158 -46t56 -113q0 -65 -54 -114.5t-140 -49.5q-75 0 -203 59l32 78q87 -47 155 -47q35 0 58 20t23 48q0 86 -152 86q-16 0 -46 -2l58 174h81z" />
    <glyph glyph-name="onesuperior" unicode="&#xb9;" horiz-adv-x="792" 
d="M743 546h-617v133h232v487q-122 -99 -235 -141v160q205 66 291 197h114v-703h215v-133z" />
    <glyph glyph-name="ordmasculine" unicode="&#xba;" horiz-adv-x="715" 
d="M351 759q-138 0 -217.5 93t-79.5 226q0 135 84.5 225t222.5 90q135 0 217.5 -90t82.5 -225q0 -144 -87.5 -231.5t-222.5 -87.5zM356 883q133 0 133 196q0 190 -128 190q-135 0 -135 -194q0 -192 130 -192z" />
    <glyph glyph-name="guillemotright" unicode="&#xbb;" horiz-adv-x="673" 
d="M89 797h94l160 -292l-160 -282h-94l94 282zM343 797h94l162 -292l-162 -282h-94l94 282z" />
    <glyph glyph-name="onequarter" unicode="&#xbc;" horiz-adv-x="1802" 
d="M685 546h-617v133h232v487q-122 -99 -235 -141v160q205 66 291 197h114v-703h215v-133zM436 0l843 1365h133l-843 -1365h-133zM1636 0h-172v183h-382v115l386 538h168v-515h129v-138h-129v-183zM1484 665l-241 -355h232v186q0 62 9 169z" />
    <glyph glyph-name="onehalf" unicode="&#xbd;" horiz-adv-x="1802" 
d="M692 546h-617v133h232v487q-122 -99 -235 -141v160q205 66 291 197h114v-703h215v-133zM443 0l843 1365h133l-843 -1365h-133zM1748 139v-139h-649v152l245 152q109 68 154 114.5t58.5 77.5t13.5 61q0 58 -40 96.5t-105 38.5q-143 0 -164 -171l-163 38q17 114 104 193.5
t228 79.5q147 0 233.5 -78.5t86.5 -197.5q0 -109 -80.5 -192t-350.5 -225h429z" />
    <glyph glyph-name="threequarters" unicode="&#xbe;" horiz-adv-x="1802" 
d="M271 903v128h86q67 0 113 27.5t46 82.5q0 107 -137 107q-125 0 -169 -117l-155 26q24 99 113.5 160t214.5 61q124 0 212 -60.5t88 -161.5q0 -132 -129 -183q156 -55 156 -195q0 -106 -91 -175t-242 -69q-139 0 -230.5 67t-116.5 160l160 36q43 -136 184 -136
q76 0 119.5 34.5t43.5 82.5q0 50 -38 87.5t-116 37.5h-112zM461 0l843 1365h133l-843 -1365h-133zM1615 0h-172v183h-382v115l386 538h168v-515h129v-138h-129v-183zM1463 665l-241 -355h232v186q0 62 9 169z" />
    <glyph glyph-name="questiondown" unicode="&#xbf;" horiz-adv-x="1027" 
d="M387 775v249h235v-249h-235zM427 632h195v-135q0 -68 -27.5 -107t-120.5 -111q-142 -109 -142 -231q0 -91 55.5 -145.5t144.5 -54.5q206 0 243 285l218 -39q-20 -215 -157.5 -335.5t-328.5 -120.5q-196 0 -319 114t-123 283q0 83 35 158.5t79 117.5t185 145
q41 30 51.5 57t11.5 119z" />
    <glyph glyph-name="Agrave" unicode="&#xc0;" horiz-adv-x="1235" 
d="M1221 0h-263l-109 325h-525l-107 -325h-210l453 1365h303zM783 522l-199 609l-199 -609h398zM349 1800l393 -219l-42 -107l-417 176z" />
    <glyph glyph-name="Aacute" unicode="&#xc1;" horiz-adv-x="1235" 
d="M1221 0h-263l-109 325h-525l-107 -325h-210l453 1365h303zM783 522l-199 609l-199 -609h398zM873 1800l66 -150l-417 -176l-42 107z" />
    <glyph glyph-name="Acircumflex" unicode="&#xc2;" horiz-adv-x="1235" 
d="M1221 0h-263l-109 325h-525l-107 -325h-210l453 1365h303zM783 522l-199 609l-199 -609h398zM615 1790l347 -288l-180 -21l-167 132l-167 -132l-181 21z" />
    <glyph glyph-name="Atilde" unicode="&#xc3;" horiz-adv-x="1235" 
d="M1221 0h-263l-109 325h-525l-107 -325h-210l453 1365h303zM783 522l-199 609l-199 -609h398zM876 1735l70 -103q-24 -50 -88 -83.5t-114 -33.5q-61 0 -152 47q-69 36 -102 36q-47 0 -126 -78l-69 103q93 115 201 115q52 0 135 -39q90 -42 134 -42q61 0 111 78z" />
    <glyph glyph-name="Adieresis" unicode="&#xc4;" horiz-adv-x="1235" 
d="M1221 0h-263l-109 325h-525l-107 -325h-210l453 1365h303zM783 522l-199 609l-199 -609h398zM438 1512q-48 0 -79.5 31.5t-31.5 75.5t31 77.5t80 33.5q46 0 80 -29.5t34 -80.5q0 -50 -33.5 -79t-80.5 -29zM773 1512q-49 0 -80.5 32t-31.5 75q0 44 31.5 77.5t80.5 33.5
q45 0 79.5 -29.5t34.5 -80.5q0 -50 -33.5 -79t-80.5 -29z" />
    <glyph glyph-name="Aring" unicode="&#xc5;" horiz-adv-x="1235" 
d="M1221 0h-263l-109 325h-525l-107 -325h-210l453 1365h303zM783 522l-199 609l-199 -609h398zM613 1454q-77 0 -131 54t-54 131t54.5 132t130.5 55q69 0 127.5 -49t58.5 -141q0 -72 -53.5 -127t-132.5 -55zM614 1558q42 0 62 25.5t20 52.5q0 38 -21.5 62t-56.5 24
q-34 0 -60 -21t-26 -61q0 -33 21 -57.5t61 -24.5z" />
    <glyph glyph-name="AE" unicode="&#xc6;" horiz-adv-x="1732" 
d="M1671 212v-212h-869v386h-408l-194 -386h-234l727 1365h961v-198h-606v-376h481v-196h-481v-383h623zM802 576v621l-310 -621h310z" />
    <glyph glyph-name="Ccedilla" unicode="&#xc7;" horiz-adv-x="1186" 
d="M634 -21l-25 -79q118 0 174 -44.5t56 -116.5q0 -71 -55.5 -121t-150.5 -50q-94 0 -225 61l33 82q116 -51 166 -51q92 0 92 73q0 88 -151 88q-16 0 -56 -2l52 165q-215 23 -340.5 221t-125.5 478q0 312 148 507.5t407 195.5q203 0 338 -125t170 -358l-228 -24
q-63 309 -278 309q-138 0 -214.5 -128.5t-76.5 -372.5q0 -248 82 -374.5t217 -126.5q108 0 184 85t86 203l228 -25q-21 -195 -149 -328.5t-358 -141.5z" />
    <glyph glyph-name="Egrave" unicode="&#xc8;" horiz-adv-x="1099" 
d="M1037 0h-887v1365h878v-203h-632v-370h508v-198h-508v-382h641v-212zM362 1800l393 -219l-42 -107l-417 176z" />
    <glyph glyph-name="Eacute" unicode="&#xc9;" horiz-adv-x="1099" 
d="M1037 0h-887v1365h878v-203h-632v-370h508v-198h-508v-382h641v-212zM842 1800l66 -150l-417 -176l-42 107z" />
    <glyph glyph-name="Ecircumflex" unicode="&#xca;" horiz-adv-x="1099" 
d="M1037 0h-887v1365h878v-203h-632v-370h508v-198h-508v-382h641v-212zM601 1790l347 -288l-180 -21l-167 132l-167 -132l-181 21z" />
    <glyph glyph-name="Edieresis" unicode="&#xcb;" horiz-adv-x="1099" 
d="M1037 0h-887v1365h878v-203h-632v-370h508v-198h-508v-382h641v-212zM425 1512q-48 0 -79.5 31.5t-31.5 75.5t31 77.5t80 33.5q46 0 80 -29.5t34 -80.5q0 -50 -33.5 -79t-80.5 -29zM760 1512q-49 0 -80.5 32t-31.5 75q0 44 31.5 77.5t80.5 33.5q45 0 79.5 -29.5
t34.5 -80.5q0 -50 -33.5 -79t-80.5 -29z" />
    <glyph glyph-name="Igrave" unicode="&#xcc;" horiz-adv-x="546" 
d="M396 0h-246v1365h246v-1365zM36 1800l393 -219l-42 -107l-417 176z" />
    <glyph glyph-name="Iacute" unicode="&#xcd;" horiz-adv-x="546" 
d="M396 0h-246v1365h246v-1365zM540 1800l66 -150l-417 -176l-42 107z" />
    <glyph glyph-name="Icircumflex" unicode="&#xce;" horiz-adv-x="546" 
d="M396 0h-246v1365h246v-1365zM272 1790l347 -288l-180 -21l-167 132l-167 -132l-181 21z" />
    <glyph glyph-name="Idieresis" unicode="&#xcf;" horiz-adv-x="546" 
d="M396 0h-246v1365h246v-1365zM118 1512q-48 0 -79.5 31.5t-31.5 75.5t31 77.5t80 33.5q46 0 80 -29.5t34 -80.5q0 -50 -33.5 -79t-80.5 -29zM453 1512q-49 0 -80.5 32t-31.5 75q0 44 31.5 77.5t80.5 33.5q45 0 79.5 -29.5t34.5 -80.5q0 -50 -33.5 -79t-80.5 -29z" />
    <glyph glyph-name="Eth" unicode="&#xd0;" horiz-adv-x="1341" 
d="M7 601v191h137v573h503q279 0 447.5 -197t168.5 -488q0 -289 -173.5 -484.5t-497.5 -195.5h-448v601h-137zM396 601v-400h206q165 0 280 124.5t115 369.5q0 199 -101 337.5t-265 138.5h-235v-379h337v-191h-337z" />
    <glyph glyph-name="Ntilde" unicode="&#xd1;" horiz-adv-x="1331" 
d="M1181 0h-239l-518 872l-39 65q-12 20 -37 63v-1000h-198v1365h272l478 -804q6 -10 87 -147v951h194v-1365zM941 1735l70 -103q-24 -50 -88 -83.5t-114 -33.5q-61 0 -152 47q-69 36 -102 36q-47 0 -126 -78l-69 103q93 115 201 115q52 0 135 -39q90 -42 134 -42
q61 0 111 78z" />
    <glyph glyph-name="Ograve" unicode="&#xd2;" horiz-adv-x="1318" 
d="M653 -21q-272 0 -423.5 204t-151.5 504q0 298 161 498.5t425 200.5q266 0 420.5 -200.5t154.5 -501.5q0 -316 -160.5 -510.5t-425.5 -194.5zM655 177q133 0 225 110t92 399q0 235 -76 368.5t-236 133.5q-316 0 -316 -509q0 -247 80.5 -374.5t230.5 -127.5zM426 1800
l393 -219l-42 -107l-417 176z" />
    <glyph glyph-name="Oacute" unicode="&#xd3;" horiz-adv-x="1318" 
d="M653 -21q-272 0 -423.5 204t-151.5 504q0 298 161 498.5t425 200.5q266 0 420.5 -200.5t154.5 -501.5q0 -316 -160.5 -510.5t-425.5 -194.5zM655 177q133 0 225 110t92 399q0 235 -76 368.5t-236 133.5q-316 0 -316 -509q0 -247 80.5 -374.5t230.5 -127.5zM910 1800
l66 -150l-417 -176l-42 107z" />
    <glyph glyph-name="Ocircumflex" unicode="&#xd4;" horiz-adv-x="1318" 
d="M653 -21q-272 0 -423.5 204t-151.5 504q0 298 161 498.5t425 200.5q266 0 420.5 -200.5t154.5 -501.5q0 -316 -160.5 -510.5t-425.5 -194.5zM655 177q133 0 225 110t92 399q0 235 -76 368.5t-236 133.5q-316 0 -316 -509q0 -247 80.5 -374.5t230.5 -127.5zM666 1790
l347 -288l-180 -21l-167 132l-167 -132l-181 21z" />
    <glyph glyph-name="Otilde" unicode="&#xd5;" horiz-adv-x="1318" 
d="M653 -21q-272 0 -423.5 204t-151.5 504q0 298 161 498.5t425 200.5q266 0 420.5 -200.5t154.5 -501.5q0 -316 -160.5 -510.5t-425.5 -194.5zM655 177q133 0 225 110t92 399q0 235 -76 368.5t-236 133.5q-316 0 -316 -509q0 -247 80.5 -374.5t230.5 -127.5zM934 1735
l70 -103q-24 -50 -88 -83.5t-114 -33.5q-61 0 -152 47q-69 36 -102 36q-47 0 -126 -78l-69 103q93 115 201 115q52 0 135 -39q90 -42 134 -42q61 0 111 78z" />
    <glyph glyph-name="Odieresis" unicode="&#xd6;" horiz-adv-x="1318" 
d="M653 -21q-272 0 -423.5 204t-151.5 504q0 298 161 498.5t425 200.5q266 0 420.5 -200.5t154.5 -501.5q0 -316 -160.5 -510.5t-425.5 -194.5zM655 177q133 0 225 110t92 399q0 235 -76 368.5t-236 133.5q-316 0 -316 -509q0 -247 80.5 -374.5t230.5 -127.5zM489 1512
q-48 0 -79.5 31.5t-31.5 75.5t31 77.5t80 33.5q46 0 80 -29.5t34 -80.5q0 -50 -33.5 -79t-80.5 -29zM824 1512q-49 0 -80.5 32t-31.5 75q0 44 31.5 77.5t80.5 33.5q45 0 79.5 -29.5t34.5 -80.5q0 -50 -33.5 -79t-80.5 -29z" />
    <glyph glyph-name="multiply" unicode="&#xd7;" horiz-adv-x="1201" 
d="M903 1126l135 -136l-301 -301l300 -300l-134 -134l-301 300l-301 -301l-135 135l301 301l-301 301l134 135l302 -301z" />
    <glyph glyph-name="Oslash" unicode="&#xd8;" horiz-adv-x="1318" 
d="M1094 1175q145 -200 145 -491q0 -316 -160 -510.5t-425 -194.5q-189 0 -315 96l-92 -131h-190l168 242q-146 217 -146 499q0 303 162 502t418 199q175 0 322 -94l87 129h192zM383 409l466 706q-68 73 -184 73q-169 0 -244.5 -135.5t-75.5 -365.5q0 -167 38 -278zM940 961
l-469 -708q76 -76 187 -76q132 0 223.5 110t91.5 399q0 137 -33 275z" />
    <glyph glyph-name="Ugrave" unicode="&#xd9;" horiz-adv-x="1218" 
d="M1087 1365v-877q0 -178 -40 -274t-154.5 -165.5t-279.5 -69.5q-167 0 -274.5 60t-154.5 164.5t-47 266.5v895h251v-877q0 -180 75.5 -236.5t175.5 -56.5q115 0 184 60.5t69 232.5v877h195zM370 1800l393 -219l-42 -107l-417 176z" />
    <glyph glyph-name="Uacute" unicode="&#xda;" horiz-adv-x="1218" 
d="M1087 1365v-877q0 -178 -40 -274t-154.5 -165.5t-279.5 -69.5q-167 0 -274.5 60t-154.5 164.5t-47 266.5v895h251v-877q0 -180 75.5 -236.5t175.5 -56.5q115 0 184 60.5t69 232.5v877h195zM868 1800l66 -150l-417 -176l-42 107z" />
    <glyph glyph-name="Ucircumflex" unicode="&#xdb;" horiz-adv-x="1218" 
d="M1087 1365v-877q0 -178 -40 -274t-154.5 -165.5t-279.5 -69.5q-167 0 -274.5 60t-154.5 164.5t-47 266.5v895h251v-877q0 -180 75.5 -236.5t175.5 -56.5q115 0 184 60.5t69 232.5v877h195zM619 1790l347 -288l-180 -21l-167 132l-167 -132l-181 21z" />
    <glyph glyph-name="Udieresis" unicode="&#xdc;" horiz-adv-x="1218" 
d="M1087 1365v-877q0 -178 -40 -274t-154.5 -165.5t-279.5 -69.5q-167 0 -274.5 60t-154.5 164.5t-47 266.5v895h251v-877q0 -180 75.5 -236.5t175.5 -56.5q115 0 184 60.5t69 232.5v877h195zM443 1512q-48 0 -79.5 31.5t-31.5 75.5t31 77.5t80 33.5q46 0 80 -29.5t34 -80.5
q0 -50 -33.5 -79t-80.5 -29zM778 1512q-49 0 -80.5 32t-31.5 75q0 44 31.5 77.5t80.5 33.5q45 0 79.5 -29.5t34.5 -80.5q0 -50 -33.5 -79t-80.5 -29z" />
    <glyph glyph-name="Yacute" unicode="&#xdd;" horiz-adv-x="1113" 
d="M699 0h-261v576l-465 789h298l324 -563l310 563h236l-442 -789v-576zM829 1800l66 -150l-417 -176l-42 107z" />
    <glyph glyph-name="Thorn" unicode="&#xde;" horiz-adv-x="1241" 
d="M396 0h-246v1365h246v-191h313q239 0 354.5 -120.5t115.5 -284.5q0 -188 -125.5 -304t-316.5 -116h-341v-349zM396 561h291q113 0 173.5 56t60.5 150q0 74 -51.5 138t-204.5 64h-269v-408z" />
    <glyph glyph-name="germandbls" unicode="&#xdf;" horiz-adv-x="1142" 
d="M371 -94h-228v830h-111v179h111q4 316 140 432.5t319 116.5q163 0 275.5 -90.5t112.5 -228.5q0 -253 -351 -312q-26 -25 -26 -38q0 -26 103 -62q6 -2 115.5 -51t159 -94t78 -109t28.5 -138q0 -163 -117.5 -274.5t-305.5 -111.5q-100 0 -207 38l50 154q60 -18 134 -18
q232 0 232 151q0 53 -40.5 100.5t-163.5 102.5q-154 68 -196.5 122.5t-42.5 122.5q0 101 97 213l42 17q103 38 141.5 75t38.5 105q0 70 -46 116.5t-124 46.5q-95 0 -156.5 -66t-61.5 -184v-1145z" />
    <glyph glyph-name="agrave" unicode="&#xe0;" horiz-adv-x="1107" 
d="M1001 0h-217q-29 92 -35 204q-91 -225 -342 -225q-151 0 -242.5 88.5t-91.5 222.5q0 348 611 348q24 0 65 -1v76q0 157 -214 157q-208 0 -236 -157l-194 29q16 126 130 207.5t330 81.5q117 0 191 -19.5t125 -66t70.5 -101t19.5 -184.5v-456q0 -99 30 -204zM749 514
q-442 0 -442 -211q0 -63 44.5 -107.5t134.5 -44.5q130 0 196.5 82.5t66.5 187.5v93zM333 1487l393 -219l-42 -107l-417 176z" />
    <glyph glyph-name="aacute" unicode="&#xe1;" horiz-adv-x="1107" 
d="M1001 0h-217q-29 92 -35 204q-91 -225 -342 -225q-151 0 -242.5 88.5t-91.5 222.5q0 348 611 348q24 0 65 -1v76q0 157 -214 157q-208 0 -236 -157l-194 29q16 126 130 207.5t330 81.5q117 0 191 -19.5t125 -66t70.5 -101t19.5 -184.5v-456q0 -99 30 -204zM749 514
q-442 0 -442 -211q0 -63 44.5 -107.5t134.5 -44.5q130 0 196.5 82.5t66.5 187.5v93zM799 1487l66 -150l-417 -176l-42 107z" />
    <glyph glyph-name="acircumflex" unicode="&#xe2;" horiz-adv-x="1107" 
d="M1001 0h-217q-29 92 -35 204q-91 -225 -342 -225q-151 0 -242.5 88.5t-91.5 222.5q0 348 611 348q24 0 65 -1v76q0 157 -214 157q-208 0 -236 -157l-194 29q16 126 130 207.5t330 81.5q117 0 191 -19.5t125 -66t70.5 -101t19.5 -184.5v-456q0 -99 30 -204zM749 514
q-442 0 -442 -211q0 -63 44.5 -107.5t134.5 -44.5q130 0 196.5 82.5t66.5 187.5v93zM565 1476l347 -288l-180 -21l-167 132l-167 -132l-181 21z" />
    <glyph glyph-name="atilde" unicode="&#xe3;" horiz-adv-x="1107" 
d="M1001 0h-217q-29 92 -35 204q-91 -225 -342 -225q-151 0 -242.5 88.5t-91.5 222.5q0 348 611 348q24 0 65 -1v76q0 157 -214 157q-208 0 -236 -157l-194 29q16 126 130 207.5t330 81.5q117 0 191 -19.5t125 -66t70.5 -101t19.5 -184.5v-456q0 -99 30 -204zM749 514
q-442 0 -442 -211q0 -63 44.5 -107.5t134.5 -44.5q130 0 196.5 82.5t66.5 187.5v93zM821 1421l70 -103q-24 -50 -88 -83.5t-114 -33.5q-61 0 -152 47q-69 36 -102 36q-47 0 -126 -78l-69 103q93 115 201 115q52 0 135 -39q90 -42 134 -42q61 0 111 78z" />
    <glyph glyph-name="adieresis" unicode="&#xe4;" horiz-adv-x="1107" 
d="M1001 0h-217q-29 92 -35 204q-91 -225 -342 -225q-151 0 -242.5 88.5t-91.5 222.5q0 348 611 348q24 0 65 -1v76q0 157 -214 157q-208 0 -236 -157l-194 29q16 126 130 207.5t330 81.5q117 0 191 -19.5t125 -66t70.5 -101t19.5 -184.5v-456q0 -99 30 -204zM749 514
q-442 0 -442 -211q0 -63 44.5 -107.5t134.5 -44.5q130 0 196.5 82.5t66.5 187.5v93zM396 1188q-48 0 -79.5 31.5t-31.5 75.5t31 77.5t80 33.5q46 0 80 -29.5t34 -80.5q0 -50 -33.5 -79t-80.5 -29zM731 1188q-49 0 -80.5 32t-31.5 75q0 44 31.5 77.5t80.5 33.5
q45 0 79.5 -29.5t34.5 -80.5q0 -50 -33.5 -79t-80.5 -29z" />
    <glyph glyph-name="aring" unicode="&#xe5;" horiz-adv-x="1107" 
d="M1001 0h-217q-29 92 -35 204q-91 -225 -342 -225q-151 0 -242.5 88.5t-91.5 222.5q0 348 611 348q24 0 65 -1v76q0 157 -214 157q-208 0 -236 -157l-194 29q16 126 130 207.5t330 81.5q117 0 191 -19.5t125 -66t70.5 -101t19.5 -184.5v-456q0 -99 30 -204zM749 514
q-442 0 -442 -211q0 -63 44.5 -107.5t134.5 -44.5q130 0 196.5 82.5t66.5 187.5v93zM564 1133q-77 0 -131 54t-54 131t54.5 132t130.5 55q69 0 127.5 -49t58.5 -141q0 -72 -53.5 -127t-132.5 -55zM565 1237q42 0 62 25.5t20 52.5q0 38 -21.5 62t-56.5 24q-34 0 -60 -21
t-26 -61q0 -33 21 -57.5t61 -24.5z" />
    <glyph glyph-name="ae" unicode="&#xe6;" horiz-adv-x="1757" 
d="M1685 472h-712q2 -144 63.5 -229t187.5 -85q169 0 231 161l211 -35q-35 -130 -163 -217.5t-295 -87.5q-131 0 -238.5 57t-157.5 153q-137 -210 -373 -210q-177 0 -271.5 88t-94.5 223q0 170 157 255t435 85q37 0 90 -5q-2 105 -12.5 142.5t-58.5 66.5t-142 29
q-183 0 -221 -140l-203 25q72 283 456 283q105 0 171 -23.5t156 -91.5q135 115 316 115q227 0 347.5 -141t120.5 -358v-60zM1449 625q-6 124 -73 184.5t-161 60.5q-204 0 -235 -245h469zM753 503q-244 -7 -337.5 -55.5t-93.5 -149.5q0 -72 48 -111t121 -39q86 0 155 50
t88 117.5t19 187.5z" />
    <glyph glyph-name="ccedilla" unicode="&#xe7;" horiz-adv-x="954" 
d="M514 -20l-21 -73q102 0 158 -46t56 -113q0 -65 -54.5 -114.5t-139.5 -49.5q-74 0 -203 59l32 78q88 -47 155 -47q35 0 58 20t23 48q0 86 -152 86q-16 0 -46 -2l52 159q-172 27 -266 172.5t-94 347.5q0 228 123 377t328 149q330 0 393 -348l-196 -27q-26 188 -185 188
q-116 0 -168.5 -101.5t-52.5 -245.5q0 -153 54.5 -236t152.5 -83q150 0 199 193l196 -20q-74 -362 -402 -371z" />
    <glyph glyph-name="egrave" unicode="&#xe8;" horiz-adv-x="1074" 
d="M779 322l206 -28q-40 -137 -156 -226t-291 -89q-210 0 -338 141t-128 382q0 229 129 379t350 150q216 0 334 -148t118 -380l-1 -26h-693q0 -103 19.5 -165t77.5 -108t145 -46q169 0 228 164zM765 624q-1 109 -65.5 178t-159.5 69q-94 0 -157 -64.5t-74 -182.5h456z
M326 1487l393 -219l-42 -107l-417 176z" />
    <glyph glyph-name="eacute" unicode="&#xe9;" horiz-adv-x="1074" 
d="M779 322l206 -28q-40 -137 -156 -226t-291 -89q-210 0 -338 141t-128 382q0 229 129 379t350 150q216 0 334 -148t118 -380l-1 -26h-693q0 -103 19.5 -165t77.5 -108t145 -46q169 0 228 164zM765 624q-1 109 -65.5 178t-159.5 69q-94 0 -157 -64.5t-74 -182.5h456z
M785 1487l66 -150l-417 -176l-42 107z" />
    <glyph glyph-name="ecircumflex" unicode="&#xea;" horiz-adv-x="1074" 
d="M779 322l206 -28q-40 -137 -156 -226t-291 -89q-210 0 -338 141t-128 382q0 229 129 379t350 150q216 0 334 -148t118 -380l-1 -26h-693q0 -103 19.5 -165t77.5 -108t145 -46q169 0 228 164zM765 624q-1 109 -65.5 178t-159.5 69q-94 0 -157 -64.5t-74 -182.5h456z
M565 1476l347 -288l-180 -21l-167 132l-167 -132l-181 21z" />
    <glyph glyph-name="edieresis" unicode="&#xeb;" horiz-adv-x="1074" 
d="M779 322l206 -28q-40 -137 -156 -226t-291 -89q-210 0 -338 141t-128 382q0 229 129 379t350 150q216 0 334 -148t118 -380l-1 -26h-693q0 -103 19.5 -165t77.5 -108t145 -46q169 0 228 164zM765 624q-1 109 -65.5 178t-159.5 69q-94 0 -157 -64.5t-74 -182.5h456z
M396 1188q-48 0 -79.5 31.5t-31.5 75.5t31 77.5t80 33.5q46 0 80 -29.5t34 -80.5q0 -50 -33.5 -79t-80.5 -29zM731 1188q-49 0 -80.5 32t-31.5 75q0 44 31.5 77.5t80.5 33.5q45 0 79.5 -29.5t34.5 -80.5q0 -50 -33.5 -79t-80.5 -29z" />
    <glyph glyph-name="igrave" unicode="&#xec;" horiz-adv-x="501" 
d="M364 0h-228v1010h228v-1010zM32 1487l393 -219l-42 -107l-417 176z" />
    <glyph glyph-name="iacute" unicode="&#xed;" horiz-adv-x="501" 
d="M364 0h-228v1010h228v-1010zM510 1487l66 -150l-417 -176l-42 107z" />
    <glyph glyph-name="icircumflex" unicode="&#xee;" horiz-adv-x="501" 
d="M364 0h-228v1010h228v-1010zM252 1476l347 -288l-180 -21l-167 132l-167 -132l-181 21z" />
    <glyph glyph-name="idieresis" unicode="&#xef;" horiz-adv-x="501" 
d="M364 0h-228v1010h228v-1010zM80 1188q-48 0 -79.5 31.5t-31.5 75.5t31 77.5t80 33.5q46 0 80 -29.5t34 -80.5q0 -50 -33.5 -79t-80.5 -29zM415 1188q-49 0 -80.5 32t-31.5 75q0 44 31.5 77.5t80.5 33.5q45 0 79.5 -29.5t34.5 -80.5q0 -50 -33.5 -79t-80.5 -29z" />
    <glyph glyph-name="eth" unicode="&#xf0;" horiz-adv-x="1083" 
d="M325 1170l170 89q-54 37 -185 95l42 80q130 -29 271 -110l195 96l72 -78l-177 -90q298 -305 298 -727q0 -251 -134.5 -397.5t-339.5 -146.5q-223 0 -344 156t-121 369q0 206 127.5 356t298.5 150q139 0 235 -118q-42 160 -154 288l-194 -96zM546 822q-132 0 -185 -105
t-53 -211q0 -137 53.5 -239t175.5 -102q110 0 169.5 87.5t59.5 240.5q0 160 -63 244.5t-157 84.5z" />
    <glyph glyph-name="ntilde" unicode="&#xf1;" horiz-adv-x="1109" 
d="M973 0h-228v631q0 100 -46 150.5t-111 50.5q-89 0 -156 -78t-67 -235v-519h-228v1010h208v-234q109 255 306 255q133 0 227.5 -84t94.5 -295v-652zM797 1421l70 -103q-24 -50 -88 -83.5t-114 -33.5q-61 0 -152 47q-69 36 -102 36q-47 0 -126 -78l-69 103q93 115 201 115
q52 0 135 -39q90 -42 134 -42q61 0 111 78z" />
    <glyph glyph-name="ograve" unicode="&#xf2;" horiz-adv-x="1083" 
d="M532 -21q-224 0 -342 161t-118 369q0 224 130.5 373t344.5 149q203 0 333.5 -145t130.5 -377q0 -239 -135.5 -384.5t-343.5 -145.5zM540 167q230 0 230 343q0 155 -55 244.5t-169 89.5q-118 0 -175 -92.5t-57 -245.5q0 -165 60.5 -252t165.5 -87zM310 1487l393 -219
l-42 -107l-417 176z" />
    <glyph glyph-name="oacute" unicode="&#xf3;" horiz-adv-x="1083" 
d="M532 -21q-224 0 -342 161t-118 369q0 224 130.5 373t344.5 149q203 0 333.5 -145t130.5 -377q0 -239 -135.5 -384.5t-343.5 -145.5zM540 167q230 0 230 343q0 155 -55 244.5t-169 89.5q-118 0 -175 -92.5t-57 -245.5q0 -165 60.5 -252t165.5 -87zM787 1487l66 -150
l-417 -176l-42 107z" />
    <glyph glyph-name="ocircumflex" unicode="&#xf4;" horiz-adv-x="1083" 
d="M532 -21q-224 0 -342 161t-118 369q0 224 130.5 373t344.5 149q203 0 333.5 -145t130.5 -377q0 -239 -135.5 -384.5t-343.5 -145.5zM540 167q230 0 230 343q0 155 -55 244.5t-169 89.5q-118 0 -175 -92.5t-57 -245.5q0 -165 60.5 -252t165.5 -87zM549 1476l347 -288
l-180 -21l-167 132l-167 -132l-181 21z" />
    <glyph glyph-name="otilde" unicode="&#xf5;" horiz-adv-x="1083" 
d="M532 -21q-224 0 -342 161t-118 369q0 224 130.5 373t344.5 149q203 0 333.5 -145t130.5 -377q0 -239 -135.5 -384.5t-343.5 -145.5zM540 167q230 0 230 343q0 155 -55 244.5t-169 89.5q-118 0 -175 -92.5t-57 -245.5q0 -165 60.5 -252t165.5 -87zM818 1421l70 -103
q-24 -50 -88 -83.5t-114 -33.5q-61 0 -152 47q-69 36 -102 36q-47 0 -126 -78l-69 103q93 115 201 115q52 0 135 -39q90 -42 134 -42q61 0 111 78z" />
    <glyph glyph-name="odieresis" unicode="&#xf6;" horiz-adv-x="1083" 
d="M532 -21q-224 0 -342 161t-118 369q0 224 130.5 373t344.5 149q203 0 333.5 -145t130.5 -377q0 -239 -135.5 -384.5t-343.5 -145.5zM540 167q230 0 230 343q0 155 -55 244.5t-169 89.5q-118 0 -175 -92.5t-57 -245.5q0 -165 60.5 -252t165.5 -87zM380 1188
q-48 0 -79.5 31.5t-31.5 75.5t31 77.5t80 33.5q46 0 80 -29.5t34 -80.5q0 -50 -33.5 -79t-80.5 -29zM715 1188q-49 0 -80.5 32t-31.5 75q0 44 31.5 77.5t80.5 33.5q45 0 79.5 -29.5t34.5 -80.5q0 -50 -33.5 -79t-80.5 -29z" />
    <glyph glyph-name="divide" unicode="&#xf7;" horiz-adv-x="1201" 
d="M722 1036q0 -51 -36 -87t-86 -36q-51 0 -87 35.5t-36 87.5q0 50 36 86t87 36q50 0 86 -36t36 -86zM1107 785v-191h-1012v191h1012zM722 340q0 -50 -36 -86t-86 -36q-51 0 -87 36t-36 86q0 51 36 87t87 36q50 0 86 -36t36 -87z" />
    <glyph glyph-name="oslash" unicode="&#xf8;" horiz-adv-x="1083" 
d="M883 883q77 -99 102.5 -181t25.5 -193q0 -241 -135.5 -385.5t-347.5 -144.5q-132 0 -234 65l-80 -110h-142l132 188q-131 163 -131 388q0 223 129.5 372t349.5 149q135 0 244 -69l73 97h142zM341 310l335 489q-47 45 -139 45q-104 0 -163.5 -89.5t-59.5 -239.5
q0 -109 27 -205zM740 694l-324 -486q57 -41 125 -41q229 0 229 350q0 111 -30 177z" />
    <glyph glyph-name="ugrave" unicode="&#xf9;" horiz-adv-x="1105" 
d="M968 0h-212v218q-86 -239 -319 -239q-138 0 -219 85.5t-81 238.5v707h233v-658q0 -109 48 -143t94 -34q74 0 151 66.5t77 283.5v485h228v-1010zM321 1487l393 -219l-42 -107l-417 176z" />
    <glyph glyph-name="uacute" unicode="&#xfa;" horiz-adv-x="1105" 
d="M968 0h-212v218q-86 -239 -319 -239q-138 0 -219 85.5t-81 238.5v707h233v-658q0 -109 48 -143t94 -34q74 0 151 66.5t77 283.5v485h228v-1010zM798 1487l66 -150l-417 -176l-42 107z" />
    <glyph glyph-name="ucircumflex" unicode="&#xfb;" horiz-adv-x="1105" 
d="M968 0h-212v218q-86 -239 -319 -239q-138 0 -219 85.5t-81 238.5v707h233v-658q0 -109 48 -143t94 -34q74 0 151 66.5t77 283.5v485h228v-1010zM553 1476l347 -288l-180 -21l-167 132l-167 -132l-181 21z" />
    <glyph glyph-name="udieresis" unicode="&#xfc;" horiz-adv-x="1105" 
d="M968 0h-212v218q-86 -239 -319 -239q-138 0 -219 85.5t-81 238.5v707h233v-658q0 -109 48 -143t94 -34q74 0 151 66.5t77 283.5v485h228v-1010zM384 1188q-48 0 -79.5 31.5t-31.5 75.5t31 77.5t80 33.5q46 0 80 -29.5t34 -80.5q0 -50 -33.5 -79t-80.5 -29zM719 1188
q-49 0 -80.5 32t-31.5 75q0 44 31.5 77.5t80.5 33.5q45 0 79.5 -29.5t34.5 -80.5q0 -50 -33.5 -79t-80.5 -29z" />
    <glyph glyph-name="yacute" unicode="&#xfd;" horiz-adv-x="905" 
d="M891 1010l-393 -1150q-36 -106 -98.5 -164.5t-176.5 -58.5q-45 0 -131 7v181l109 -2q72 0 106.5 23.5t54.5 83.5t20 70q0 6 -21 62l-347 948h239l245 -666l211 666h182zM719 1487l66 -150l-417 -176l-42 107z" />
    <glyph glyph-name="thorn" unicode="&#xfe;" horiz-adv-x="1098" 
d="M365 -341h-228v1706h228v-510q96 176 295 176q180 0 273.5 -155t93.5 -364q0 -215 -95 -374t-284 -159q-195 0 -283 162v-482zM365 414q0 -111 64.5 -183t146.5 -72q109 0 159.5 95.5t50.5 242.5q0 161 -53 254t-150 93q-91 0 -154.5 -79t-63.5 -207v-144z" />
    <glyph glyph-name="ydieresis" unicode="&#xff;" horiz-adv-x="905" 
d="M891 1010l-393 -1150q-36 -106 -98.5 -164.5t-176.5 -58.5q-45 0 -131 7v181l109 -2q72 0 106.5 23.5t54.5 83.5t20 70q0 6 -21 62l-347 948h239l245 -666l211 666h182zM304 1188q-48 0 -79.5 31.5t-31.5 75.5t31 77.5t80 33.5q46 0 80 -29.5t34 -80.5q0 -50 -33.5 -79
t-80.5 -29zM639 1188q-49 0 -80.5 32t-31.5 75q0 44 31.5 77.5t80.5 33.5q45 0 79.5 -29.5t34.5 -80.5q0 -50 -33.5 -79t-80.5 -29z" />
    <glyph glyph-name="Amacron" unicode="&#x100;" horiz-adv-x="1235" 
d="M1221 0h-263l-109 325h-525l-107 -325h-210l453 1365h303zM783 522l-199 609l-199 -609h398zM915 1680v-130h-602v130h602z" />
    <glyph glyph-name="amacron" unicode="&#x101;" horiz-adv-x="1107" 
d="M1001 0h-217q-29 92 -35 204q-91 -225 -342 -225q-151 0 -242.5 88.5t-91.5 222.5q0 348 611 348q24 0 65 -1v76q0 157 -214 157q-208 0 -236 -157l-194 29q16 126 130 207.5t330 81.5q117 0 191 -19.5t125 -66t70.5 -101t19.5 -184.5v-456q0 -99 30 -204zM749 514
q-442 0 -442 -211q0 -63 44.5 -107.5t134.5 -44.5q130 0 196.5 82.5t66.5 187.5v93zM866 1352v-130h-602v130h602z" />
    <glyph glyph-name="Abreve" unicode="&#x102;" horiz-adv-x="1235" 
d="M1221 0h-263l-109 325h-525l-107 -325h-210l453 1365h303zM783 522l-199 609l-199 -609h398zM310 1766h131q18 -132 175 -132q152 0 170 132h131q-5 -115 -88 -194.5t-218 -79.5q-129 0 -213 75t-88 199z" />
    <glyph glyph-name="abreve" unicode="&#x103;" horiz-adv-x="1107" 
d="M1001 0h-217q-29 92 -35 204q-91 -225 -342 -225q-151 0 -242.5 88.5t-91.5 222.5q0 348 611 348q24 0 65 -1v76q0 157 -214 157q-208 0 -236 -157l-194 29q16 126 130 207.5t330 81.5q117 0 191 -19.5t125 -66t70.5 -101t19.5 -184.5v-456q0 -99 30 -204zM749 514
q-442 0 -442 -211q0 -63 44.5 -107.5t134.5 -44.5q130 0 196.5 82.5t66.5 187.5v93zM261 1455h131q18 -132 175 -132q152 0 170 132h131q-5 -115 -88 -194.5t-218 -79.5q-129 0 -213 75t-88 199z" />
    <glyph glyph-name="Aogonek" unicode="&#x104;" horiz-adv-x="1235" 
d="M849 325h-525l-107 -325h-210l453 1365h303l458 -1365q-149 -76 -149 -164q0 -97 124 -97q45 0 92 19l21 -81q-80 -36 -166 -36q-99 0 -156.5 42.5t-57.5 119.5q0 131 175 197h-146zM783 522l-199 609l-199 -609h398z" />
    <glyph glyph-name="aogonek" unicode="&#x105;" horiz-adv-x="1107" 
d="M784 0q-29 92 -35 204q-91 -225 -342 -225q-151 0 -242.5 88.5t-91.5 222.5q0 348 611 348q24 0 65 -1v76q0 157 -214 157q-208 0 -236 -157l-194 29q16 126 130 207.5t330 81.5q117 0 191 -19.5t125 -66t70.5 -101t19.5 -184.5v-456q0 -99 30 -204q-143 -76 -143 -162
q0 -41 28.5 -66.5t79.5 -25.5q40 0 89 18l20 -73q-77 -35 -160 -35q-90 0 -144 43t-54 110q0 119 174 191h-107zM749 514q-442 0 -442 -211q0 -63 44.5 -107.5t134.5 -44.5q130 0 196.5 82.5t66.5 187.5v93z" />
    <glyph glyph-name="Cacute" unicode="&#x106;" horiz-adv-x="1186" 
d="M913 474l228 -25q-22 -205 -158.5 -337.5t-358.5 -132.5q-187 0 -303.5 94t-179.5 255t-63 355q0 312 148 507.5t407 195.5q203 0 338 -125t170 -358l-228 -24q-63 309 -278 309q-138 0 -214.5 -128.5t-76.5 -372.5q0 -248 82 -374.5t217 -126.5q108 0 184 85t86 203z
M892 1800l66 -150l-417 -176l-42 107z" />
    <glyph glyph-name="cacute" unicode="&#x107;" horiz-adv-x="954" 
d="M720 371l196 -20q-38 -190 -147 -281t-263 -91q-209 0 -321.5 152.5t-112.5 373.5q0 228 123 377t328 149q330 0 393 -348l-196 -27q-26 188 -185 188q-116 0 -168.5 -101.5t-52.5 -245.5q0 -153 54.5 -236t152.5 -83q150 0 199 193zM774 1487l66 -150l-417 -176l-42 107
z" />
    <glyph glyph-name="Ccircumflex" unicode="&#x108;" horiz-adv-x="1186" 
d="M913 474l228 -25q-22 -205 -158.5 -337.5t-358.5 -132.5q-187 0 -303.5 94t-179.5 255t-63 355q0 312 148 507.5t407 195.5q203 0 338 -125t170 -358l-228 -24q-63 309 -278 309q-138 0 -214.5 -128.5t-76.5 -372.5q0 -248 82 -374.5t217 -126.5q108 0 184 85t86 203z
M644 1790l347 -288l-180 -21l-167 132l-167 -132l-181 21z" />
    <glyph glyph-name="ccircumflex" unicode="&#x109;" horiz-adv-x="954" 
d="M720 371l196 -20q-38 -190 -147 -281t-263 -91q-209 0 -321.5 152.5t-112.5 373.5q0 228 123 377t328 149q330 0 393 -348l-196 -27q-26 188 -185 188q-116 0 -168.5 -101.5t-52.5 -245.5q0 -153 54.5 -236t152.5 -83q150 0 199 193zM529 1476l347 -288l-180 -21
l-167 132l-167 -132l-181 21z" />
    <glyph glyph-name="Cdot" unicode="&#x10a;" horiz-adv-x="1186" 
d="M913 474l228 -25q-22 -205 -158.5 -337.5t-358.5 -132.5q-187 0 -303.5 94t-179.5 255t-63 355q0 312 148 507.5t407 195.5q203 0 338 -125t170 -358l-228 -24q-63 309 -278 309q-138 0 -214.5 -128.5t-76.5 -372.5q0 -248 82 -374.5t217 -126.5q108 0 184 85t86 203z
M642 1512q-48 0 -79.5 31.5t-31.5 75.5t31 77.5t80 33.5q46 0 80 -29.5t34 -80.5q0 -50 -33.5 -79t-80.5 -29z" />
    <glyph glyph-name="cdot" unicode="&#x10b;" horiz-adv-x="954" 
d="M720 371l196 -20q-38 -190 -147 -281t-263 -91q-209 0 -321.5 152.5t-112.5 373.5q0 228 123 377t328 149q330 0 393 -348l-196 -27q-26 188 -185 188q-116 0 -168.5 -101.5t-52.5 -245.5q0 -153 54.5 -236t152.5 -83q150 0 199 193zM534 1188q-48 0 -79.5 31.5
t-31.5 75.5t31 77.5t80 33.5q46 0 80 -29.5t34 -80.5q0 -50 -33.5 -79t-80.5 -29z" />
    <glyph glyph-name="Ccaron" unicode="&#x10c;" horiz-adv-x="1186" 
d="M913 474l228 -25q-22 -205 -158.5 -337.5t-358.5 -132.5q-187 0 -303.5 94t-179.5 255t-63 355q0 312 148 507.5t407 195.5q203 0 338 -125t170 -358l-228 -24q-63 309 -278 309q-138 0 -214.5 -128.5t-76.5 -372.5q0 -248 82 -374.5t217 -126.5q108 0 184 85t86 203z
M644 1468l-348 288l181 20l167 -131l167 131l180 -20z" />
    <glyph glyph-name="ccaron" unicode="&#x10d;" horiz-adv-x="954" 
d="M720 371l196 -20q-38 -190 -147 -281t-263 -91q-209 0 -321.5 152.5t-112.5 373.5q0 228 123 377t328 149q330 0 393 -348l-196 -27q-26 188 -185 188q-116 0 -168.5 -101.5t-52.5 -245.5q0 -153 54.5 -236t152.5 -83q150 0 199 193zM535 1154l-348 288l181 20l167 -131
l167 131l180 -20z" />
    <glyph glyph-name="Dcaron" unicode="&#x10e;" horiz-adv-x="1341" 
d="M143 0v1365h503q279 0 448 -197.5t169 -487.5t-174 -485t-498 -195h-448zM396 201h205q165 0 280 124t115 369q0 200 -100.5 338.5t-265.5 138.5h-234v-970zM605 1468l-348 288l181 20l167 -131l167 131l180 -20z" />
    <glyph glyph-name="dcaron" unicode="&#x10f;" horiz-adv-x="1322" 
d="M967 0h-213v204q-88 -225 -298 -225q-186 0 -285 155t-99 385q0 214 103 373t293 159q195 0 271 -178v492h228v-1365zM739 596q0 123 -58.5 191.5t-151.5 68.5q-101 0 -158 -88t-57 -263q0 -338 212 -338q84 0 148.5 72.5t64.5 185.5v171zM1323 1365l-176 -397h-91
l62 397h205z" />
    <glyph glyph-name="Dslash" unicode="&#x110;" horiz-adv-x="1341" 
d="M7 601v191h137v573h503q279 0 447.5 -197t168.5 -488q0 -289 -173.5 -484.5t-497.5 -195.5h-448v601h-137zM396 601v-400h206q165 0 280 124.5t115 369.5q0 199 -101 337.5t-265 138.5h-235v-379h337v-191h-337z" />
    <glyph glyph-name="dmacron" unicode="&#x111;" horiz-adv-x="1103" 
d="M739 1365h228v-116h137v-123h-137v-1126h-213v204q-88 -225 -298 -225q-186 0 -285 155t-99 385q0 214 103 373t293 159q195 0 271 -178v253h-273v123h273v116zM739 596q0 135 -64 197.5t-146 62.5q-101 0 -158 -88t-57 -263q0 -338 211 -338q85 0 149.5 72.5t64.5 185.5
v171z" />
    <glyph glyph-name="Emacron" unicode="&#x112;" horiz-adv-x="1099" 
d="M1037 0h-887v1365h878v-203h-632v-370h508v-198h-508v-382h641v-212zM901 1680v-130h-602v130h602z" />
    <glyph glyph-name="emacron" unicode="&#x113;" horiz-adv-x="1074" 
d="M779 322l206 -28q-40 -137 -156 -226t-291 -89q-210 0 -338 141t-128 382q0 229 129 379t350 150q216 0 334 -148t118 -380l-1 -26h-693q0 -103 19.5 -165t77.5 -108t145 -46q169 0 228 164zM765 624q-1 109 -65.5 178t-159.5 69q-94 0 -157 -64.5t-74 -182.5h456z
M866 1352v-130h-602v130h602z" />
    <glyph glyph-name="Ebreve" unicode="&#x114;" horiz-adv-x="1099" 
d="M1037 0h-887v1365h878v-203h-632v-370h508v-198h-508v-382h641v-212zM297 1766h131q18 -132 175 -132q152 0 170 132h131q-5 -115 -88 -194.5t-218 -79.5q-129 0 -213 75t-88 199z" />
    <glyph glyph-name="ebreve" unicode="&#x115;" horiz-adv-x="1074" 
d="M779 322l206 -28q-40 -137 -156 -226t-291 -89q-210 0 -338 141t-128 382q0 229 129 379t350 150q216 0 334 -148t118 -380l-1 -26h-693q0 -103 19.5 -165t77.5 -108t145 -46q169 0 228 164zM765 624q-1 109 -65.5 178t-159.5 69q-94 0 -157 -64.5t-74 -182.5h456z
M261 1455h131q18 -132 175 -132q152 0 170 132h131q-5 -115 -88 -194.5t-218 -79.5q-129 0 -213 75t-88 199z" />
    <glyph glyph-name="Edot" unicode="&#x116;" horiz-adv-x="1099" 
d="M1037 0h-887v1365h878v-203h-632v-370h508v-198h-508v-382h641v-212zM599 1512q-48 0 -79.5 31.5t-31.5 75.5t31 77.5t80 33.5q46 0 80 -29.5t34 -80.5q0 -50 -33.5 -79t-80.5 -29z" />
    <glyph glyph-name="edot" unicode="&#x117;" horiz-adv-x="1074" 
d="M779 322l206 -28q-40 -137 -156 -226t-291 -89q-210 0 -338 141t-128 382q0 229 129 379t350 150q216 0 334 -148t118 -380l-1 -26h-693q0 -103 19.5 -165t77.5 -108t145 -46q169 0 228 164zM765 624q-1 109 -65.5 178t-159.5 69q-94 0 -157 -64.5t-74 -182.5h456z
M563 1188q-48 0 -79.5 31.5t-31.5 75.5t31 77.5t80 33.5q46 0 80 -29.5t34 -80.5q0 -50 -33.5 -79t-80.5 -29z" />
    <glyph glyph-name="Eogonek" unicode="&#x118;" horiz-adv-x="1099" 
d="M150 0v1365h878v-203h-632v-370h508v-198h-508v-382h641v-212q-148 -76 -148 -164q0 -97 123 -97q45 0 93 19l20 -81q-80 -36 -165 -36q-96 0 -155.5 42t-59.5 120q0 131 176 197h-771z" />
    <glyph glyph-name="eogonek" unicode="&#x119;" horiz-adv-x="1074" 
d="M853 -229l21 -73q-75 -35 -160 -35q-89 0 -144 42.5t-55 109.5q0 104 138 175q-68 -10 -118 -10q-217 0 -340 146t-123 376q0 229 129 379t350 150q216 0 334 -148t118 -380l-1 -26h-693q0 -103 19.5 -165t77.5 -108t145 -46q169 0 228 164l206 -28q-35 -131 -197 -261
q-132 -106 -132 -191q0 -37 28.5 -63t79.5 -26q40 0 89 18zM765 624q-1 109 -65.5 178t-159.5 69q-94 0 -157 -64.5t-74 -182.5h456z" />
    <glyph glyph-name="Ecaron" unicode="&#x11a;" horiz-adv-x="1099" 
d="M1037 0h-887v1365h878v-203h-632v-370h508v-198h-508v-382h641v-212zM601 1468l-348 288l181 20l167 -131l167 131l180 -20z" />
    <glyph glyph-name="ecaron" unicode="&#x11b;" horiz-adv-x="1074" 
d="M779 322l206 -28q-40 -137 -156 -226t-291 -89q-210 0 -338 141t-128 382q0 229 129 379t350 150q216 0 334 -148t118 -380l-1 -26h-693q0 -103 19.5 -165t77.5 -108t145 -46q169 0 228 164zM765 624q-1 109 -65.5 178t-159.5 69q-94 0 -157 -64.5t-74 -182.5h456z
M565 1154l-348 288l181 20l167 -131l167 131l180 -20z" />
    <glyph glyph-name="Gcircumflex" unicode="&#x11c;" horiz-adv-x="1315" 
d="M1186 698v-698h-109l-75 184q-119 -205 -369 -205q-279 0 -416.5 212t-137.5 491q0 295 153.5 499.5t429.5 204.5q206 0 339 -119.5t168 -297.5l-214 -38q-60 250 -287 250q-145 0 -236.5 -118t-91.5 -363q0 -517 324 -517q126 0 208.5 87t82.5 230h-282v198h513z
M681 1790l347 -288l-180 -21l-167 132l-167 -132l-181 21z" />
    <glyph glyph-name="gcircumflex" unicode="&#x11d;" horiz-adv-x="1061" 
d="M1058 1203v-175h-70q-46 0 -80.5 -11t-67.5 -71q120 -98 120 -218q0 -134 -112.5 -222t-297.5 -88q-80 0 -187 26q-70 -32 -70 -99q0 -37 34 -68t103 -31h300q154 0 241.5 -79.5t87.5 -197.5q0 -143 -132.5 -237t-392.5 -94q-489 0 -489 273q0 135 147 205
q-94 80 -94 167q0 132 161 210q-140 85 -140 234q0 126 103 215t313 89q96 0 195 -21q46 193 243 193h85zM540 553q186 0 186 175q0 67 -46.5 113t-135.5 46q-90 0 -139.5 -48t-49.5 -120q0 -74 49 -120t136 -46zM290 55q-49 -45 -49 -87q0 -69 82 -121.5t261 -52.5
q263 0 263 135q0 50 -46 75.5t-105 25.5h-242q-69 0 -164 25zM572 1564l347 -288l-180 -21l-167 132l-167 -132l-181 21z" />
    <glyph glyph-name="Gbreve" unicode="&#x11e;" horiz-adv-x="1315" 
d="M1186 698v-698h-109l-75 184q-119 -205 -369 -205q-279 0 -416.5 212t-137.5 491q0 295 153.5 499.5t429.5 204.5q206 0 339 -119.5t168 -297.5l-214 -38q-60 250 -287 250q-145 0 -236.5 -118t-91.5 -363q0 -517 324 -517q126 0 208.5 87t82.5 230h-282v198h513z
M370 1766h131q18 -132 175 -132q152 0 170 132h131q-5 -115 -88 -194.5t-218 -79.5q-129 0 -213 75t-88 199z" />
    <glyph glyph-name="gbreve" unicode="&#x11f;" horiz-adv-x="1061" 
d="M1058 1203v-175h-70q-46 0 -80.5 -11t-67.5 -71q120 -98 120 -218q0 -134 -112.5 -222t-297.5 -88q-80 0 -187 26q-70 -32 -70 -99q0 -37 34 -68t103 -31h300q154 0 241.5 -79.5t87.5 -197.5q0 -143 -132.5 -237t-392.5 -94q-489 0 -489 273q0 135 147 205
q-94 80 -94 167q0 132 161 210q-140 85 -140 234q0 126 103 215t313 89q96 0 195 -21q46 193 243 193h85zM540 553q186 0 186 175q0 67 -46.5 113t-135.5 46q-90 0 -139.5 -48t-49.5 -120q0 -74 49 -120t136 -46zM290 55q-49 -45 -49 -87q0 -69 82 -121.5t261 -52.5
q263 0 263 135q0 50 -46 75.5t-105 25.5h-242q-69 0 -164 25zM228 1505h131q18 -132 175 -132q152 0 170 132h131q-5 -115 -88 -194.5t-218 -79.5q-129 0 -213 75t-88 199z" />
    <glyph glyph-name="Gdot" unicode="&#x120;" horiz-adv-x="1315" 
d="M1186 698v-698h-109l-75 184q-119 -205 -369 -205q-279 0 -416.5 212t-137.5 491q0 295 153.5 499.5t429.5 204.5q206 0 339 -119.5t168 -297.5l-214 -38q-60 250 -287 250q-145 0 -236.5 -118t-91.5 -363q0 -517 324 -517q126 0 208.5 87t82.5 230h-282v198h513z
M675 1512q-48 0 -79.5 31.5t-31.5 75.5t31 77.5t80 33.5q46 0 80 -29.5t34 -80.5q0 -50 -33.5 -79t-80.5 -29z" />
    <glyph glyph-name="gdot" unicode="&#x121;" horiz-adv-x="1061" 
d="M1058 1203v-175h-70q-46 0 -80.5 -11t-67.5 -71q120 -98 120 -218q0 -134 -112.5 -222t-297.5 -88q-80 0 -187 26q-70 -32 -70 -99q0 -37 34 -68t103 -31h300q154 0 241.5 -79.5t87.5 -197.5q0 -143 -132.5 -237t-392.5 -94q-489 0 -489 273q0 135 147 205
q-94 80 -94 167q0 132 161 210q-140 85 -140 234q0 126 103 215t313 89q96 0 195 -21q46 193 243 193h85zM540 553q186 0 186 175q0 67 -46.5 113t-135.5 46q-90 0 -139.5 -48t-49.5 -120q0 -74 49 -120t136 -46zM290 55q-49 -45 -49 -87q0 -69 82 -121.5t261 -52.5
q263 0 263 135q0 50 -46 75.5t-105 25.5h-242q-69 0 -164 25zM529 1188q-48 0 -79.5 31.5t-31.5 75.5t31 77.5t80 33.5q46 0 80 -29.5t34 -80.5q0 -50 -33.5 -79t-80.5 -29z" />
    <glyph glyph-name="Gcedilla" unicode="&#x122;" horiz-adv-x="1315" 
d="M1186 698v-698h-109l-75 184q-119 -205 -369 -205q-279 0 -416.5 212t-137.5 491q0 295 153.5 499.5t429.5 204.5q206 0 339 -119.5t168 -297.5l-214 -38q-60 250 -287 250q-145 0 -236.5 -118t-91.5 -363q0 -517 324 -517q126 0 208.5 87t82.5 230h-282v198h513z
M776 -109l-176 -370h-91l61 370h206z" />
    <glyph glyph-name="gcedilla" unicode="&#x123;" horiz-adv-x="1061" 
d="M1058 1203v-175h-70q-46 0 -80.5 -11t-67.5 -71q120 -98 120 -218q0 -134 -112.5 -222t-297.5 -88q-80 0 -187 26q-70 -32 -70 -99q0 -37 34 -68t103 -31h300q154 0 241.5 -79.5t87.5 -197.5q0 -143 -132.5 -237t-392.5 -94q-489 0 -489 273q0 135 147 205
q-94 80 -94 167q0 132 161 210q-140 85 -140 234q0 126 103 215t313 89q96 0 195 -21q46 193 243 193h85zM540 553q186 0 186 175q0 67 -46.5 113t-135.5 46q-90 0 -139.5 -48t-49.5 -120q0 -74 49 -120t136 -46zM290 55q-49 -45 -49 -87q0 -69 82 -121.5t261 -52.5
q263 0 263 135q0 50 -46 75.5t-105 25.5h-242q-69 0 -164 25zM407 1187l176 397h91l-62 -397h-205z" />
    <glyph glyph-name="Hcircumflex" unicode="&#x124;" horiz-adv-x="1313" 
d="M1163 0h-246v593h-521v-593h-246v1365h246v-561h521v561h246v-1365zM657 1790l347 -288l-180 -21l-167 132l-167 -132l-181 21z" />
    <glyph glyph-name="hcircumflex" unicode="&#x125;" horiz-adv-x="1110" 
d="M973 0h-228v661q0 107 -45.5 150.5t-106.5 43.5q-97 0 -163 -77t-66 -254v-524h-228v1365h228v-532q85 218 298 218q311 0 311 -357v-694zM261 1790l347 -288l-180 -21l-167 132l-167 -132l-181 21z" />
    <glyph glyph-name="Hbar" unicode="&#x126;" horiz-adv-x="1313" 
d="M14 987v192h137v186h245v-186h522v186h246v-186h136v-192h-136v-987h-246v593h-522v-593h-245v987h-137zM396 987v-183h522v183h-522z" />
    <glyph glyph-name="hbar" unicode="&#x127;" horiz-adv-x="1110" 
d="M0 1126v123h137v116h228v-116h286v-123h-286v-293q84 218 297 218q311 0 311 -357v-694h-228v661q0 107 -45.5 150.5t-106.5 43.5q-97 0 -162.5 -77t-65.5 -254v-524h-228v1126h-137z" />
    <glyph glyph-name="Itilde" unicode="&#x128;" horiz-adv-x="546" 
d="M396 0h-246v1365h246v-1365zM515 1735l70 -103q-24 -50 -88 -83.5t-114 -33.5q-61 0 -152 47q-69 36 -102 36q-47 0 -126 -78l-69 103q93 115 201 115q52 0 135 -39q90 -42 134 -42q61 0 111 78z" />
    <glyph glyph-name="itilde" unicode="&#x129;" horiz-adv-x="501" 
d="M364 0h-228v1010h228v-1010zM506 1421l70 -103q-24 -50 -88 -83.5t-114 -33.5q-61 0 -152 47q-69 36 -102 36q-47 0 -126 -78l-69 103q93 115 201 115q52 0 135 -39q90 -42 134 -42q61 0 111 78z" />
    <glyph glyph-name="Imacron" unicode="&#x12a;" horiz-adv-x="546" 
d="M396 0h-246v1365h246v-1365zM629 1680v-130h-602v130h602z" />
    <glyph glyph-name="imacron" unicode="&#x12b;" horiz-adv-x="501" 
d="M364 0h-228v1010h228v-1010zM613 1352v-130h-602v130h602z" />
    <glyph glyph-name="Ibreve" unicode="&#x12c;" horiz-adv-x="546" 
d="M396 0h-246v1365h246v-1365zM-13 1783h131q18 -132 175 -132q152 0 170 132h131q-5 -115 -88 -194.5t-218 -79.5q-129 0 -213 75t-88 199z" />
    <glyph glyph-name="ibreve" unicode="&#x12d;" horiz-adv-x="501" 
d="M364 0h-228v1010h228v-1010zM-19 1455h131q18 -132 175 -132q152 0 170 132h131q-5 -115 -88 -194.5t-218 -79.5q-129 0 -213 75t-88 199z" />
    <glyph glyph-name="Iogonek" unicode="&#x12e;" horiz-adv-x="546" 
d="M397 0q-129 -82 -129 -164q0 -43 30 -69.5t76 -26.5q28 0 76 18l21 -81q-79 -36 -141 -36q-90 0 -147.5 43.5t-57.5 117.5q0 120 155 198h-129v1365h246v-1365z" />
    <glyph glyph-name="iogonek" unicode="&#x12f;" horiz-adv-x="501" 
d="M364 1128h-228v237h228v-237zM364 0q-116 -87 -116 -162q0 -32 21 -60.5t63 -28.5q30 0 72 15l21 -73q-77 -35 -138 -35q-71 0 -125.5 43t-54.5 110q0 106 154 191h-125v1010h228v-1010z" />
    <glyph glyph-name="Idotaccent" unicode="&#x130;" horiz-adv-x="546" 
d="M396 0h-246v1365h246v-1365zM271 1512q-48 0 -79.5 31.5t-31.5 75.5t31 77.5t80 33.5q46 0 80 -29.5t34 -80.5q0 -50 -33.5 -79t-80.5 -29z" />
    <glyph glyph-name="dotlessi" unicode="&#x131;" horiz-adv-x="501" 
d="M364 0h-228v1010h228v-1010z" />
    <glyph glyph-name="IJ" unicode="&#x132;" horiz-adv-x="1293" 
d="M396 0h-246v1365h246v-1365zM1156 1365v-942q0 -241 -104.5 -342.5t-314.5 -101.5q-135 0 -205 21v198q119 -9 157 -9q131 0 173 49.5t42 184.5v942h252z" />
    <glyph glyph-name="ij" unicode="&#x133;" horiz-adv-x="995" 
d="M364 1128h-228v237h228v-237zM858 1128h-228v237h228v-237zM364 0h-228v1010h228v-1010zM858 1010v-994q0 -378 -347 -378q-52 0 -117 12v193q44 -5 73 -5q83 0 123 27.5t40 150.5v994h228z" />
    <glyph glyph-name="Jcircumflex" unicode="&#x134;" horiz-adv-x="761" 
d="M624 1365v-942q0 -235 -101.5 -339.5t-323.5 -104.5q-128 0 -199 21v198q112 -8 158 -8q123 0 168 46t45 187v942h253zM497 1790l347 -288l-180 -21l-167 132l-167 -132l-181 21z" />
    <glyph glyph-name="jcircumflex" unicode="&#x135;" horiz-adv-x="501" 
d="M255 1476l348 -288l-181 -21l-167 132l-167 -132l-181 21zM364 1010v-994q0 -378 -347 -378q-53 0 -117 12v193q43 -5 73 -5q95 0 129 36t34 142v994h228z" />
    <glyph glyph-name="Kcedilla" unicode="&#x136;" horiz-adv-x="1257" 
d="M1223 0h-275l-288 695l-264 -350v-345h-246v1365h246v-717q47 73 68 101l453 616h249l-324 -449zM765 -109l-176 -370h-91l61 370h206z" />
    <glyph glyph-name="kcedilla" unicode="&#x137;" horiz-adv-x="1090" 
d="M1077 0h-240l-258 518l-224 -251v-267h-218v1365h218v-847q29 38 46 57l400 435h245l-304 -334zM700 -109l-176 -370h-91l61 370h206z" />
    <glyph glyph-name="kgreenlandic" unicode="&#x138;" horiz-adv-x="1090" 
d="M1077 0h-240l-258 518l-224 -251v-267h-218v1010h218v-492q29 38 46 57l400 435h245l-304 -334z" />
    <glyph glyph-name="Lacute" unicode="&#x139;" horiz-adv-x="1021" 
d="M990 0h-840v1365h259v-1142h581v-223zM537 1800l66 -150l-417 -176l-42 107z" />
    <glyph glyph-name="lacute" unicode="&#x13a;" horiz-adv-x="501" 
d="M364 0h-228v1365h228v-1365zM495 1800l66 -150l-417 -176l-42 107z" />
    <glyph glyph-name="Lcedilla" unicode="&#x13b;" horiz-adv-x="1021" 
d="M990 0h-840v1365h259v-1142h581v-223zM697 -109l-176 -370h-91l61 370h206z" />
    <glyph glyph-name="lcedilla" unicode="&#x13c;" horiz-adv-x="501" 
d="M364 0h-228v1365h228v-1365zM363 -109l-176 -370h-91l61 370h206z" />
    <glyph glyph-name="Lcaron" unicode="&#x13d;" horiz-adv-x="1021" 
d="M990 0h-840v1365h259v-1142h581v-223zM827 1413v-225l-153 -268h-74l110 268h-110v225h227z" />
    <glyph glyph-name="lcaron" unicode="&#x13e;" horiz-adv-x="720" 
d="M364 0h-228v1365h228v-1365zM720 1365l-176 -397h-91l62 397h205z" />
    <glyph glyph-name="Ldot" unicode="&#x13f;" horiz-adv-x="1021" 
d="M990 0h-840v1365h259v-1142h581v-223zM913 831v-262h-247v262h247z" />
    <glyph glyph-name="ldot" unicode="&#x140;" horiz-adv-x="736" 
d="M364 0h-228v1365h228v-1365zM743 831v-262h-247v262h247z" />
    <glyph glyph-name="Lslash" unicode="&#x141;" horiz-adv-x="1021" 
d="M990 223v-223h-839v454l-137 -138v234l137 139v676h259v-500l279 281v-235l-279 -280v-408h580z" />
    <glyph glyph-name="lslash" unicode="&#x142;" horiz-adv-x="515" 
d="M372 0h-228v577l-130 -138v168l130 137v621h228v-459l129 136v-168l-129 -136v-738z" />
    <glyph glyph-name="Nacute" unicode="&#x143;" horiz-adv-x="1331" 
d="M1181 0h-239l-518 872l-39 65q-12 20 -37 63v-1000h-198v1365h272l478 -804q6 -10 87 -147v951h194v-1365zM927 1800l66 -150l-417 -176l-42 107z" />
    <glyph glyph-name="nacute" unicode="&#x144;" horiz-adv-x="1109" 
d="M973 0h-228v631q0 100 -46 150.5t-111 50.5q-89 0 -156 -78t-67 -235v-519h-228v1010h208v-234q109 255 306 255q133 0 227.5 -84t94.5 -295v-652zM788 1487l66 -150l-417 -176l-42 107z" />
    <glyph glyph-name="Ncedilla" unicode="&#x145;" horiz-adv-x="1331" 
d="M1181 0h-239l-518 872l-39 65q-12 20 -37 63v-1000h-198v1365h272l478 -804q6 -10 87 -147v951h194v-1365zM772 -109l-176 -370h-91l61 370h206z" />
    <glyph glyph-name="ncedilla" unicode="&#x146;" horiz-adv-x="1109" 
d="M973 0h-228v631q0 100 -46 150.5t-111 50.5q-89 0 -156 -78t-67 -235v-519h-228v1010h208v-234q109 255 306 255q133 0 227.5 -84t94.5 -295v-652zM675 -109l-176 -370h-91l61 370h206z" />
    <glyph glyph-name="Ncaron" unicode="&#x147;" horiz-adv-x="1331" 
d="M1181 0h-239l-518 872l-39 65q-12 20 -37 63v-1000h-198v1365h272l478 -804q6 -10 87 -147v951h194v-1365zM666 1468l-348 288l181 20l167 -131l167 131l180 -20z" />
    <glyph glyph-name="ncaron" unicode="&#x148;" horiz-adv-x="1109" 
d="M973 0h-228v631q0 100 -46 150.5t-111 50.5q-89 0 -156 -78t-67 -235v-519h-228v1010h208v-234q109 255 306 255q133 0 227.5 -84t94.5 -295v-652zM561 1154l-348 288l181 20l167 -131l167 131l180 -20z" />
    <glyph glyph-name="napostrophe" unicode="&#x149;" horiz-adv-x="1417" 
d="M1281 0h-228v631q0 100 -46 150.5t-111 50.5q-89 0 -156 -78t-67 -235v-519h-228v1010h208v-234q109 255 306 255q133 0 227.5 -84t94.5 -295v-652zM357 1365v-225l-153 -268h-74l110 268h-110v225h227z" />
    <glyph glyph-name="Eng" unicode="&#x14a;" horiz-adv-x="1313" 
d="M150 0v1365h218v-234q138 255 382 255q158 0 285.5 -103.5t127.5 -401.5v-778q0 -174 -39 -273t-141 -164t-257 -65q-74 0 -137 18v186q60 -13 106 -13q126 0 174 51t48 205v869q0 135 -63 203t-152 68q-123 0 -214.5 -105t-91.5 -317v-766h-246z" />
    <glyph glyph-name="eng" unicode="&#x14b;" horiz-adv-x="1109" 
d="M137 0v1010h208v-234q109 255 306 255q133 0 227.5 -84t94.5 -295v-679q0 -378 -348 -378q-52 0 -117 12v193q44 -5 73 -5q95 0 129.5 36t34.5 142v658q0 100 -46 150.5t-111 50.5q-89 0 -156 -78t-67 -235v-519h-228z" />
    <glyph glyph-name="Omacron" unicode="&#x14c;" horiz-adv-x="1318" 
d="M653 -21q-272 0 -423.5 204t-151.5 504q0 298 161 498.5t425 200.5q266 0 420.5 -200.5t154.5 -501.5q0 -316 -160.5 -510.5t-425.5 -194.5zM655 177q133 0 225 110t92 399q0 235 -76 368.5t-236 133.5q-316 0 -316 -509q0 -247 80.5 -374.5t230.5 -127.5zM959 1680v-130
h-602v130h602z" />
    <glyph glyph-name="omacron" unicode="&#x14d;" horiz-adv-x="1083" 
d="M532 -21q-224 0 -342 161t-118 369q0 224 130.5 373t344.5 149q203 0 333.5 -145t130.5 -377q0 -239 -135.5 -384.5t-343.5 -145.5zM540 167q230 0 230 343q0 155 -55 244.5t-169 89.5q-118 0 -175 -92.5t-57 -245.5q0 -165 60.5 -252t165.5 -87zM849 1352v-130h-602v130
h602z" />
    <glyph glyph-name="Obreve" unicode="&#x14e;" horiz-adv-x="1318" 
d="M653 -21q-272 0 -423.5 204t-151.5 504q0 298 161 498.5t425 200.5q266 0 420.5 -200.5t154.5 -501.5q0 -316 -160.5 -510.5t-425.5 -194.5zM655 177q133 0 225 110t92 399q0 235 -76 368.5t-236 133.5q-316 0 -316 -509q0 -247 80.5 -374.5t230.5 -127.5zM354 1766h131
q18 -132 175 -132q152 0 170 132h131q-5 -115 -88 -194.5t-218 -79.5q-129 0 -213 75t-88 199z" />
    <glyph glyph-name="obreve" unicode="&#x14f;" horiz-adv-x="1083" 
d="M532 -21q-224 0 -342 161t-118 369q0 224 130.5 373t344.5 149q203 0 333.5 -145t130.5 -377q0 -239 -135.5 -384.5t-343.5 -145.5zM540 167q230 0 230 343q0 155 -55 244.5t-169 89.5q-118 0 -175 -92.5t-57 -245.5q0 -165 60.5 -252t165.5 -87zM238 1455h131
q18 -132 175 -132q152 0 170 132h131q-5 -115 -88 -194.5t-218 -79.5q-129 0 -213 75t-88 199z" />
    <glyph glyph-name="Odblacute" unicode="&#x150;" horiz-adv-x="1318" 
d="M653 -21q-272 0 -423.5 204t-151.5 504q0 298 161 498.5t425 200.5q266 0 420.5 -200.5t154.5 -501.5q0 -316 -160.5 -510.5t-425.5 -194.5zM655 177q133 0 225 110t92 399q0 235 -76 368.5t-236 133.5q-316 0 -316 -509q0 -247 80.5 -374.5t230.5 -127.5zM683 1800
l93 -116l-328 -210l-71 87zM1024 1800l94 -116l-328 -210l-60 87z" />
    <glyph glyph-name="odblacute" unicode="&#x151;" horiz-adv-x="1083" 
d="M532 -21q-224 0 -342 161t-118 369q0 224 130.5 373t344.5 149q203 0 333.5 -145t130.5 -377q0 -239 -135.5 -384.5t-343.5 -145.5zM540 167q230 0 230 343q0 155 -55 244.5t-169 89.5q-118 0 -175 -92.5t-57 -245.5q0 -165 60.5 -252t165.5 -87zM600 1487l93 -116
l-328 -210l-71 87zM941 1487l94 -116l-328 -210l-60 87z" />
    <glyph glyph-name="OE" unicode="&#x152;" horiz-adv-x="1924" 
d="M953 1365h911v-198h-665v-374h528v-195h-528v-386h665v-212h-911v69q-127 -90 -301 -90q-258 0 -415.5 201t-157.5 510q0 308 153.5 502.5t407.5 194.5q179 0 313 -82v60zM953 919q0 123 -87 196t-196 73q-125 0 -225 -102.5t-100 -383.5q0 -276 87 -395.5t228 -119.5
q101 0 197 60.5t96 190.5v481z" />
    <glyph glyph-name="oe" unicode="&#x153;" horiz-adv-x="1728" 
d="M1656 479h-689q0 -156 66 -234t178 -78q169 0 223 154l208 -31q-25 -100 -137 -205.5t-304 -105.5q-237 0 -337 152q-119 -152 -327 -152q-232 0 -348.5 157.5t-116.5 368.5q0 224 126.5 375t342.5 151q218 0 323 -152q110 152 341 152q209 0 331.5 -139.5t119.5 -412.5z
M1424 620q-1 106 -63.5 174t-162.5 68q-92 0 -156.5 -60t-72.5 -182h455zM531 167q105 0 167 87t62 265q0 190 -68.5 257.5t-157.5 67.5q-113 0 -169.5 -95t-56.5 -251q0 -153 56.5 -242t166.5 -89z" />
    <glyph glyph-name="Racute" unicode="&#x154;" horiz-adv-x="1316" 
d="M1214 0h-260l-212 561h-346v-561h-246v1365h592q247 0 363 -111.5t116 -288.5q0 -263 -246 -362zM396 758h306q133 0 198 56t65 154q0 90 -64 145.5t-179 55.5h-326v-411zM867 1801l66 -150l-417 -176l-42 107z" />
    <glyph glyph-name="racute" unicode="&#x155;" horiz-adv-x="679" 
d="M365 0h-228v1010h206v-241q44 141 121 206t158 65q11 0 30 -1v-245q-174 0 -230.5 -111t-56.5 -215v-468zM653 1487l66 -150l-417 -176l-42 107z" />
    <glyph glyph-name="Rcedilla" unicode="&#x156;" horiz-adv-x="1316" 
d="M1214 0h-260l-212 561h-346v-561h-246v1365h592q247 0 363 -111.5t116 -288.5q0 -263 -246 -362zM396 758h306q133 0 198 56t65 154q0 90 -64 145.5t-179 55.5h-326v-411zM771 -109l-176 -370h-91l61 370h206z" />
    <glyph glyph-name="rcedilla" unicode="&#x157;" horiz-adv-x="679" 
d="M365 0h-228v1010h206v-241q44 141 121 206t158 65q11 0 30 -1v-245q-174 0 -230.5 -111t-56.5 -215v-468zM364 -109l-176 -370h-91l61 370h206z" />
    <glyph glyph-name="Rcaron" unicode="&#x158;" horiz-adv-x="1316" 
d="M1214 0h-260l-212 561h-346v-561h-246v1365h592q247 0 363 -111.5t116 -288.5q0 -263 -246 -362zM396 758h306q133 0 198 56t65 154q0 90 -64 145.5t-179 55.5h-326v-411zM640 1468l-348 288l181 20l167 -131l167 131l180 -20z" />
    <glyph glyph-name="rcaron" unicode="&#x159;" horiz-adv-x="679" 
d="M365 0h-228v1010h206v-241q44 141 121 206t158 65q11 0 30 -1v-245q-174 0 -230.5 -111t-56.5 -215v-468zM394 1154l-348 288l181 20l167 -131l167 131l180 -20z" />
    <glyph glyph-name="Sacute" unicode="&#x15a;" horiz-adv-x="1170" 
d="M7 329l239 51q43 -203 330 -203q131 0 201.5 52t70.5 129q0 56 -32 103.5t-137 74.5l-261 68q-134 35 -198 79.5t-102.5 125.5t-38.5 173q0 183 136 293.5t348 110.5q176 0 314.5 -77t176.5 -218l-234 -58q-54 155 -252 155q-115 0 -175.5 -48t-60.5 -122
q0 -117 190 -164l232 -58q211 -53 283 -156.5t72 -228.5q0 -201 -151.5 -316.5t-392.5 -115.5q-203 0 -355.5 85t-202.5 265zM823 1800l66 -150l-417 -176l-42 107z" />
    <glyph glyph-name="sacute" unicode="&#x15b;" horiz-adv-x="930" 
d="M14 232l214 41q49 -123 216 -123q212 0 212 125q0 40 -33 66t-78 35l-184 35q-306 59 -306 299q0 134 97 227.5t289 93.5q320 0 391 -235l-203 -41q-32 114 -182 114q-182 0 -182 -114q0 -79 147 -109l217 -45q253 -52 253 -290q0 -167 -130 -249.5t-309 -82.5
q-155 0 -274 62.5t-155 190.5zM707 1487l66 -150l-417 -176l-42 107z" />
    <glyph glyph-name="Scircumflex" unicode="&#x15c;" horiz-adv-x="1170" 
d="M7 329l239 51q43 -203 330 -203q131 0 201.5 52t70.5 129q0 56 -32 103.5t-137 74.5l-261 68q-134 35 -198 79.5t-102.5 125.5t-38.5 173q0 183 136 293.5t348 110.5q176 0 314.5 -77t176.5 -218l-234 -58q-54 155 -252 155q-115 0 -175.5 -48t-60.5 -122
q0 -117 190 -164l232 -58q211 -53 283 -156.5t72 -228.5q0 -201 -151.5 -316.5t-392.5 -115.5q-203 0 -355.5 85t-202.5 265zM579 1790l347 -288l-180 -21l-167 132l-167 -132l-181 21z" />
    <glyph glyph-name="scircumflex" unicode="&#x15d;" horiz-adv-x="930" 
d="M14 232l214 41q49 -123 216 -123q212 0 212 125q0 40 -33 66t-78 35l-184 35q-306 59 -306 299q0 134 97 227.5t289 93.5q320 0 391 -235l-203 -41q-32 114 -182 114q-182 0 -182 -114q0 -79 147 -109l217 -45q253 -52 253 -290q0 -167 -130 -249.5t-309 -82.5
q-155 0 -274 62.5t-155 190.5zM462 1476l347 -288l-180 -21l-167 132l-167 -132l-181 21z" />
    <glyph glyph-name="Scedilla" unicode="&#x15e;" horiz-adv-x="1170" 
d="M548 -21l-25 -79q230 0 230 -161q0 -71 -55.5 -121t-150.5 -50q-94 0 -225 61l33 82q116 -51 166 -51q92 0 92 73q0 88 -151 88q-16 0 -56 -2l53 166q-372 51 -452 344l239 51q43 -203 330 -203q131 0 201.5 52t70.5 129q0 56 -32 103.5t-137 74.5l-261 68
q-134 35 -198 79.5t-102.5 125.5t-38.5 173q0 183 136 293.5t348 110.5q176 0 314.5 -77t176.5 -218l-234 -58q-54 155 -252 155q-115 0 -175.5 -48t-60.5 -122q0 -117 190 -164l232 -58q211 -53 283 -156.5t72 -228.5q0 -196 -148 -314t-413 -118z" />
    <glyph glyph-name="scedilla" unicode="&#x15f;" horiz-adv-x="930" 
d="M440 -21l-21 -72q102 0 158 -46t56 -113q0 -65 -54 -114.5t-139 -49.5q-75 0 -203 59l32 78q87 -47 154 -47q35 0 58 20t23 48q0 86 -151 86q-17 0 -46 -2l52 158q-287 37 -345 248l214 41q49 -123 216 -123q212 0 212 125q0 40 -33 66t-78 35l-184 35q-306 59 -306 299
q0 134 97 227.5t289 93.5q320 0 391 -235l-203 -41q-32 114 -182 114q-182 0 -182 -114q0 -79 147 -109l217 -45q253 -52 253 -290q0 -165 -127.5 -248.5t-314.5 -83.5z" />
    <glyph glyph-name="Scaron" unicode="&#x160;" horiz-adv-x="1170" 
d="M7 329l239 51q43 -203 330 -203q131 0 201.5 52t70.5 129q0 56 -32 103.5t-137 74.5l-261 68q-134 35 -198 79.5t-102.5 125.5t-38.5 173q0 183 136 293.5t348 110.5q176 0 314.5 -77t176.5 -218l-234 -58q-54 155 -252 155q-115 0 -175.5 -48t-60.5 -122
q0 -117 190 -164l232 -58q211 -53 283 -156.5t72 -228.5q0 -201 -151.5 -316.5t-392.5 -115.5q-203 0 -355.5 85t-202.5 265zM579 1468l-348 288l181 20l167 -131l167 131l180 -20z" />
    <glyph glyph-name="scaron" unicode="&#x161;" horiz-adv-x="930" 
d="M14 232l214 41q49 -123 216 -123q212 0 212 125q0 40 -33 66t-78 35l-184 35q-306 59 -306 299q0 134 97 227.5t289 93.5q320 0 391 -235l-203 -41q-32 114 -182 114q-182 0 -182 -114q0 -79 147 -109l217 -45q253 -52 253 -290q0 -167 -130 -249.5t-309 -82.5
q-155 0 -274 62.5t-155 190.5zM462 1154l-348 288l181 20l167 -131l167 131l180 -20z" />
    <glyph glyph-name="Tcedilla" unicode="&#x162;" horiz-adv-x="990" 
d="M627 0h-264v1154h-363v211h990v-211h-363v-1154zM491 0l-26 -93q102 0 158 -46t56 -113q0 -65 -54 -114.5t-140 -49.5q-75 0 -203 59l32 78q87 -47 155 -47q35 0 58 20t23 48q0 86 -152 86q-16 0 -46 -2l58 174h81z" />
    <glyph glyph-name="tcedilla" unicode="&#x163;" horiz-adv-x="660" 
d="M605 178v-178q-102 -22 -158 -22q-92 0 -158 36.5t-96.5 100t-30.5 195.5v523h-126v177h139l21 263l187 17v-280h203v-177h-203v-493q0 -95 34.5 -129.5t130.5 -34.5q27 0 57 2zM387 0l-26 -93q102 0 158 -46t56 -113q0 -65 -54 -114.5t-140 -49.5q-75 0 -203 59l32 78
q87 -47 155 -47q35 0 58 20t23 48q0 86 -152 86q-16 0 -46 -2l58 174h81z" />
    <glyph glyph-name="Tcaron" unicode="&#x164;" horiz-adv-x="990" 
d="M627 0h-264v1154h-363v211h990v-211h-363v-1154zM496 1468l-348 288l181 20l167 -131l167 131l180 -20z" />
    <glyph glyph-name="tcaron" unicode="&#x165;" horiz-adv-x="718" 
d="M759 1517l-176 -397h-91l61 397h206zM605 178v-178q-102 -22 -158 -22q-92 0 -158 36.5t-96.5 100t-30.5 195.5v523h-126v177h139l21 263l187 17v-280h203v-177h-203v-493q0 -95 34.5 -129.5t130.5 -34.5q27 0 57 2z" />
    <glyph glyph-name="Tbar" unicode="&#x166;" horiz-adv-x="990" 
d="M90 699v191h273v264h-363v211h990v-211h-363v-264h273v-191h-273v-699h-264v699h-273z" />
    <glyph glyph-name="tbar" unicode="&#x167;" horiz-adv-x="660" 
d="M43 567v122h119v144h-126v177h139l21 263l187 17v-280h203v-177h-203v-144h190v-122h-190v-227q0 -95 34.5 -129.5t130.5 -34.5q27 0 57 2v-178q-102 -22 -158 -22q-92 0 -158 36.5t-96.5 100t-30.5 195.5v257h-119z" />
    <glyph glyph-name="Utilde" unicode="&#x168;" horiz-adv-x="1218" 
d="M1087 1365v-877q0 -178 -40 -274t-154.5 -165.5t-279.5 -69.5q-167 0 -274.5 60t-154.5 164.5t-47 266.5v895h251v-877q0 -180 75.5 -236.5t175.5 -56.5q115 0 184 60.5t69 232.5v877h195zM908 1735l70 -103q-24 -50 -88 -83.5t-114 -33.5q-61 0 -152 47q-69 36 -102 36
q-47 0 -126 -78l-69 103q93 115 201 115q52 0 135 -39q90 -42 134 -42q61 0 111 78z" />
    <glyph glyph-name="utilde" unicode="&#x169;" horiz-adv-x="1105" 
d="M968 0h-212v218q-86 -239 -319 -239q-138 0 -219 85.5t-81 238.5v707h233v-658q0 -109 48 -143t94 -34q74 0 151 66.5t77 283.5v485h228v-1010zM815 1421l70 -103q-24 -50 -88 -83.5t-114 -33.5q-61 0 -152 47q-69 36 -102 36q-47 0 -126 -78l-69 103q93 115 201 115
q52 0 135 -39q90 -42 134 -42q61 0 111 78z" />
    <glyph glyph-name="Umacron" unicode="&#x16a;" horiz-adv-x="1218" 
d="M1087 1365v-877q0 -178 -40 -274t-154.5 -165.5t-279.5 -69.5q-167 0 -274.5 60t-154.5 164.5t-47 266.5v895h251v-877q0 -180 75.5 -236.5t175.5 -56.5q115 0 184 60.5t69 232.5v877h195zM919 1680v-130h-602v130h602z" />
    <glyph glyph-name="umacron" unicode="&#x16b;" horiz-adv-x="1105" 
d="M968 0h-212v218q-86 -239 -319 -239q-138 0 -219 85.5t-81 238.5v707h233v-658q0 -109 48 -143t94 -34q74 0 151 66.5t77 283.5v485h228v-1010zM854 1352v-130h-602v130h602z" />
    <glyph glyph-name="Ubreve" unicode="&#x16c;" horiz-adv-x="1218" 
d="M1087 1365v-877q0 -178 -40 -274t-154.5 -165.5t-279.5 -69.5q-167 0 -274.5 60t-154.5 164.5t-47 266.5v895h251v-877q0 -180 75.5 -236.5t175.5 -56.5q115 0 184 60.5t69 232.5v877h195zM335 1766h131q18 -132 175 -132q152 0 170 132h131q-5 -115 -88 -194.5
t-218 -79.5q-129 0 -213 75t-88 199z" />
    <glyph glyph-name="ubreve" unicode="&#x16d;" horiz-adv-x="1105" 
d="M968 0h-212v218q-86 -239 -319 -239q-138 0 -219 85.5t-81 238.5v707h233v-658q0 -109 48 -143t94 -34q74 0 151 66.5t77 283.5v485h228v-1010zM249 1455h131q18 -132 175 -132q152 0 170 132h131q-5 -115 -88 -194.5t-218 -79.5q-129 0 -213 75t-88 199z" />
    <glyph glyph-name="Uring" unicode="&#x16e;" horiz-adv-x="1218" 
d="M1087 1365v-877q0 -178 -40 -274t-154.5 -165.5t-279.5 -69.5q-167 0 -274.5 60t-154.5 164.5t-47 266.5v895h251v-877q0 -180 75.5 -236.5t175.5 -56.5q115 0 184 60.5t69 232.5v877h195zM618 1454q-77 0 -131 54t-54 131t54.5 132t130.5 55q69 0 127.5 -49t58.5 -141
q0 -72 -53.5 -127t-132.5 -55zM619 1558q42 0 62 25.5t20 52.5q0 38 -21.5 62t-56.5 24q-34 0 -60 -21t-26 -61q0 -33 21 -57.5t61 -24.5z" />
    <glyph glyph-name="uring" unicode="&#x16f;" horiz-adv-x="1105" 
d="M968 0h-212v218q-86 -239 -319 -239q-138 0 -219 85.5t-81 238.5v707h233v-658q0 -109 48 -143t94 -34q74 0 151 66.5t77 283.5v485h228v-1010zM552 1133q-77 0 -131 54t-54 131t54.5 132t130.5 55q69 0 127.5 -49t58.5 -141q0 -72 -53.5 -127t-132.5 -55zM553 1237
q42 0 62 25.5t20 52.5q0 38 -21.5 62t-56.5 24q-34 0 -60 -21t-26 -61q0 -33 21 -57.5t61 -24.5z" />
    <glyph glyph-name="Udblacute" unicode="&#x170;" horiz-adv-x="1218" 
d="M1087 1365v-877q0 -178 -40 -274t-154.5 -165.5t-279.5 -69.5q-167 0 -274.5 60t-154.5 164.5t-47 266.5v895h251v-877q0 -180 75.5 -236.5t175.5 -56.5q115 0 184 60.5t69 232.5v877h195zM640 1800l93 -116l-328 -210l-71 87zM981 1800l94 -116l-328 -210l-60 87z" />
    <glyph glyph-name="udblacute" unicode="&#x171;" horiz-adv-x="1105" 
d="M968 0h-212v218q-86 -239 -319 -239q-138 0 -219 85.5t-81 238.5v707h233v-658q0 -109 48 -143t94 -34q74 0 151 66.5t77 283.5v485h228v-1010zM599 1487l93 -116l-328 -210l-71 87zM940 1487l94 -116l-328 -210l-60 87z" />
    <glyph glyph-name="Uogonek" unicode="&#x172;" horiz-adv-x="1218" 
d="M965 -236l21 -80q-81 -36 -167 -36q-94 0 -153.5 42t-59.5 120q0 111 143 184q-81 -15 -141 -15q-204 0 -337.5 107.5t-133.5 383.5v895h251v-877q0 -180 75.5 -236.5t175.5 -56.5q115 0 184 60.5t69 232.5v877h195v-877q0 -191 -36.5 -268.5t-159.5 -179.5
q-79 -66 -110 -108t-31 -89q0 -97 123 -97q46 0 92 18z" />
    <glyph glyph-name="uogonek" unicode="&#x173;" horiz-adv-x="1105" 
d="M756 0v218q-86 -239 -319 -239q-138 0 -219 85.5t-81 238.5v707h233v-658q0 -109 48 -143t94 -34q74 0 151 66.5t77 283.5v485h228v-1010q-143 -76 -143 -162q0 -41 29 -66.5t79 -25.5q41 0 89 18l21 -73q-77 -35 -160 -35q-91 0 -145 43.5t-54 109.5q0 119 175 191h-103
z" />
    <glyph glyph-name="Wcircumflex" unicode="&#x174;" horiz-adv-x="1809" 
d="M1789 1365l-365 -1365h-258l-272 1004l-247 -1004h-253l-373 1365h261l264 -995l246 995h249l272 -995l259 995h217zM912 1790l347 -288l-180 -21l-167 132l-167 -132l-181 21z" />
    <glyph glyph-name="wcircumflex" unicode="&#x175;" horiz-adv-x="1427" 
d="M1406 1010l-296 -1010h-205l-182 708l-181 -708h-211l-311 1010h242l199 -679l174 679h207l177 -679l195 679h192zM740 1476l347 -288l-180 -21l-167 132l-167 -132l-181 21z" />
    <glyph glyph-name="Ycircumflex" unicode="&#x176;" horiz-adv-x="1113" 
d="M699 0h-261v576l-465 789h298l324 -563l310 563h236l-442 -789v-576zM578 1790l347 -288l-180 -21l-167 132l-167 -132l-181 21z" />
    <glyph glyph-name="ycircumflex" unicode="&#x177;" horiz-adv-x="905" 
d="M891 1010l-393 -1150q-36 -106 -98.5 -164.5t-176.5 -58.5q-45 0 -131 7v181l109 -2q72 0 106.5 23.5t54.5 83.5t20 70q0 6 -21 62l-347 948h239l245 -666l211 666h182zM473 1476l347 -288l-180 -21l-167 132l-167 -132l-181 21z" />
    <glyph glyph-name="Ydieresis" unicode="&#x178;" horiz-adv-x="1113" 
d="M699 0h-261v576l-465 789h298l324 -563l310 563h236l-442 -789v-576zM402 1512q-48 0 -79.5 31.5t-31.5 75.5t31 77.5t80 33.5q46 0 80 -29.5t34 -80.5q0 -50 -33.5 -79t-80.5 -29zM737 1512q-49 0 -80.5 32t-31.5 75q0 44 31.5 77.5t80.5 33.5q45 0 79.5 -29.5
t34.5 -80.5q0 -50 -33.5 -79t-80.5 -29z" />
    <glyph glyph-name="Zacute" unicode="&#x179;" horiz-adv-x="1091" 
d="M1050 212v-212h-1009v194l699 976h-650v195h940v-195l-691 -958h711zM825 1800l66 -150l-417 -176l-42 107z" />
    <glyph glyph-name="zacute" unicode="&#x17a;" horiz-adv-x="857" 
d="M810 177v-177h-762v177l487 656h-441v177h716v-161l-499 -672h499zM708 1487l66 -150l-417 -176l-42 107z" />
    <glyph glyph-name="Zdot" unicode="&#x17b;" horiz-adv-x="1091" 
d="M1050 212v-212h-1009v194l699 976h-650v195h940v-195l-691 -958h711zM564 1512q-48 0 -79.5 31.5t-31.5 75.5t31 77.5t80 33.5q46 0 80 -29.5t34 -80.5q0 -50 -33.5 -79t-80.5 -29z" />
    <glyph glyph-name="zdot" unicode="&#x17c;" horiz-adv-x="857" 
d="M810 177v-177h-762v177l487 656h-441v177h716v-161l-499 -672h499zM455 1188q-48 0 -79.5 31.5t-31.5 75.5t31 77.5t80 33.5q46 0 80 -29.5t34 -80.5q0 -50 -33.5 -79t-80.5 -29z" />
    <glyph glyph-name="Zcaron" unicode="&#x17d;" horiz-adv-x="1091" 
d="M1050 212v-212h-1009v194l699 976h-650v195h940v-195l-691 -958h711zM567 1468l-348 288l181 20l167 -131l167 131l180 -20z" />
    <glyph glyph-name="zcaron" unicode="&#x17e;" horiz-adv-x="857" 
d="M810 177v-177h-762v177l487 656h-441v177h716v-161l-499 -672h499zM456 1154l-348 288l181 20l167 -131l167 131l180 -20z" />
    <glyph glyph-name="longs" unicode="&#x17f;" horiz-adv-x="1201" 
d="M669 0h-220v1010q0 139 25 211.5t98.5 119.5t239.5 47q32 0 81 -2v-179q-43 3 -60 3q-83 0 -117 -22.5t-40.5 -53t-6.5 -124.5v-1010z" />
    <glyph glyph-name="florin" unicode="&#x192;" horiz-adv-x="1201" 
d="M967 953h-212l-134 -748q-29 -158 -49.5 -225t-74.5 -131t-121.5 -93t-194.5 -29q-61 0 -98 9l35 183l55 -1q87 0 123 20.5t52.5 57t36.5 145.5l147 812h-147l28 182h152q32 245 142.5 319t262.5 74q41 0 119 -10l-34 -192q-45 3 -56 3q-130 0 -165 -47.5t-47 -146.5h215
z" />
    <glyph glyph-name="Aringacute" unicode="&#x1fa;" horiz-adv-x="1235" 
d="M768 1949l61 -151l-431 -146l-39 108zM464 1365q-36 49 -36 109q0 78 54.5 133t130.5 55q70 0 128.5 -49.5t58.5 -133.5q0 -63 -37 -115l458 -1364h-263l-109 325h-525l-107 -325h-210l453 1365h4zM615 1394q41 0 61 26t20 52q0 86 -78 86q-34 0 -60 -20.5t-26 -61.5
q0 -34 22 -58t61 -24zM783 522l-199 609l-199 -609h398z" />
    <glyph glyph-name="aringacute" unicode="&#x1fb;" horiz-adv-x="1107" 
d="M1001 0h-217q-29 92 -35 204q-91 -225 -342 -225q-151 0 -242.5 88.5t-91.5 222.5q0 348 611 348q24 0 65 -1v76q0 157 -214 157q-208 0 -236 -157l-194 29q16 126 130 207.5t330 81.5q117 0 191 -19.5t125 -66t70.5 -101t19.5 -184.5v-456q0 -99 30 -204zM749 514
q-442 0 -442 -211q0 -63 44.5 -107.5t134.5 -44.5q130 0 196.5 82.5t66.5 187.5v93zM554 1106q-77 0 -131 54t-54 131t54.5 132t130.5 55q69 0 127.5 -49t58.5 -141q0 -72 -53.5 -127t-132.5 -55zM555 1210q42 0 62 25.5t20 52.5q0 38 -21.5 62t-56.5 24q-34 0 -60 -21
t-26 -61q0 -33 21 -57.5t61 -24.5zM739 1808l66 -150l-417 -176l-42 107z" />
    <glyph glyph-name="AEacute" unicode="&#x1fc;" horiz-adv-x="1732" 
d="M1671 212v-212h-869v386h-408l-194 -386h-234l727 1365h961v-198h-606v-376h481v-196h-481v-383h623zM802 576v621l-310 -621h310zM1371 1800l66 -150l-417 -176l-42 107z" />
    <glyph glyph-name="aeacute" unicode="&#x1fd;" horiz-adv-x="1757" 
d="M1685 472h-712q2 -144 63.5 -229t187.5 -85q169 0 231 161l211 -35q-35 -130 -163 -217.5t-295 -87.5q-131 0 -238.5 57t-157.5 153q-137 -210 -373 -210q-177 0 -271.5 88t-94.5 223q0 170 157 255t435 85q37 0 90 -5q-2 105 -12.5 142.5t-58.5 66.5t-142 29
q-183 0 -221 -140l-203 25q72 283 456 283q105 0 171 -23.5t156 -91.5q135 115 316 115q227 0 347.5 -141t120.5 -358v-60zM1449 625q-6 124 -73 184.5t-161 60.5q-204 0 -235 -245h469zM753 503q-244 -7 -337.5 -55.5t-93.5 -149.5q0 -72 48 -111t121 -39q86 0 155 50
t88 117.5t19 187.5zM1149 1487l66 -150l-417 -176l-42 107z" />
    <glyph glyph-name="Oslashacute" unicode="&#x1fe;" horiz-adv-x="1318" 
d="M1094 1175q145 -200 145 -491q0 -316 -160 -510.5t-425 -194.5q-189 0 -315 96l-92 -131h-190l168 242q-146 217 -146 499q0 303 162 502t418 199q175 0 322 -94l87 129h192zM383 409l466 706q-68 73 -184 73q-169 0 -244.5 -135.5t-75.5 -365.5q0 -167 38 -278zM940 961
l-469 -708q76 -76 187 -76q132 0 223.5 110t91.5 399q0 137 -33 275zM842 1800l66 -150l-417 -176l-42 107z" />
    <glyph glyph-name="oslashacute" unicode="&#x1ff;" horiz-adv-x="1083" 
d="M883 883q77 -99 102.5 -181t25.5 -193q0 -241 -135.5 -385.5t-347.5 -144.5q-132 0 -234 65l-80 -110h-142l132 188q-131 163 -131 388q0 223 129.5 372t349.5 149q135 0 244 -69l73 97h142zM341 310l335 489q-47 45 -139 45q-104 0 -163.5 -89.5t-59.5 -239.5
q0 -109 27 -205zM740 694l-324 -486q57 -41 125 -41q229 0 229 350q0 111 -30 177zM714 1487l66 -150l-417 -176l-42 107z" />
    <glyph glyph-name="Scommaaccent" unicode="&#x218;" horiz-adv-x="1170" 
d="M7 329l239 51q43 -203 330 -203q131 0 201.5 52t70.5 129q0 56 -32 103.5t-137 74.5l-261 68q-134 35 -198 79.5t-102.5 125.5t-38.5 173q0 183 136 293.5t348 110.5q176 0 314.5 -77t176.5 -218l-234 -58q-54 155 -252 155q-115 0 -175.5 -48t-60.5 -122
q0 -117 190 -164l232 -58q211 -53 283 -156.5t72 -228.5q0 -201 -151.5 -316.5t-392.5 -115.5q-203 0 -355.5 85t-202.5 265zM691 -109l-176 -370h-91l61 370h206z" />
    <glyph glyph-name="scommaaccent" unicode="&#x219;" horiz-adv-x="930" 
d="M14 232l214 41q49 -123 216 -123q212 0 212 125q0 40 -33 66t-78 35l-184 35q-306 59 -306 299q0 134 97 227.5t289 93.5q320 0 391 -235l-203 -41q-32 114 -182 114q-182 0 -182 -114q0 -79 147 -109l217 -45q253 -52 253 -290q0 -167 -130 -249.5t-309 -82.5
q-155 0 -274 62.5t-155 190.5zM560 -109l-176 -370h-91l61 370h206z" />
    <glyph glyph-name="Tcommaaccent" unicode="&#x21a;" horiz-adv-x="990" 
d="M627 0h-264v1154h-363v211h990v-211h-363v-1154zM609 -109l-176 -370h-91l61 370h206z" />
    <glyph glyph-name="tcommaaccent" unicode="&#x21b;" horiz-adv-x="660" 
d="M605 178v-178q-102 -22 -158 -22q-92 0 -158 36.5t-96.5 100t-30.5 195.5v523h-126v177h139l21 263l187 17v-280h203v-177h-203v-493q0 -95 34.5 -129.5t130.5 -34.5q27 0 57 2zM488 -109l-176 -370h-91l61 370h206z" />
    <glyph glyph-name="circumflex" unicode="&#x2c6;" horiz-adv-x="1024" 
d="M512 1476l347 -288l-180 -21l-167 132l-167 -132l-181 21z" />
    <glyph glyph-name="caron" unicode="&#x2c7;" horiz-adv-x="1024" 
d="M512 1154l-348 288l181 20l167 -131l167 131l180 -20z" />
    <glyph glyph-name="macron" unicode="&#x2c9;" horiz-adv-x="1024" 
d="M813 1352v-130h-602v130h602z" />
    <glyph glyph-name="breve" unicode="&#x2d8;" horiz-adv-x="1024" 
d="M208 1455h131q18 -132 175 -132q152 0 170 132h131q-5 -115 -88 -194.5t-218 -79.5q-129 0 -213 75t-88 199z" />
    <glyph glyph-name="dotaccent" unicode="&#x2d9;" horiz-adv-x="1024" 
d="M510 1188q-48 0 -79.5 31.5t-31.5 75.5t31 77.5t80 33.5q46 0 80 -29.5t34 -80.5q0 -50 -33.5 -79t-80.5 -29z" />
    <glyph glyph-name="ring" unicode="&#x2da;" horiz-adv-x="1024" 
d="M511 1133q-77 0 -131 54t-54 131t54.5 132t130.5 55q69 0 127.5 -49t58.5 -141q0 -72 -53.5 -127t-132.5 -55zM512 1237q42 0 62 25.5t20 52.5q0 38 -21.5 62t-56.5 24q-34 0 -60 -21t-26 -61q0 -33 21 -57.5t61 -24.5z" />
    <glyph glyph-name="ogonek" unicode="&#x2db;" horiz-adv-x="1024" 
d="M893 0q-143 -76 -143 -162q0 -41 29 -66.5t79 -25.5q41 0 89 18l21 -73q-77 -35 -160 -35q-89 0 -144 43t-55 110q0 119 174 191h110z" />
    <glyph glyph-name="tilde" unicode="&#x2dc;" horiz-adv-x="1024" 
d="M768 1421l70 -103q-24 -50 -88 -83.5t-114 -33.5q-61 0 -152 47q-69 36 -102 36q-47 0 -126 -78l-69 103q93 115 201 115q52 0 135 -39q90 -42 134 -42q61 0 111 78z" />
    <glyph glyph-name="hungarumlaut" unicode="&#x2dd;" horiz-adv-x="1024" 
d="M612 1487l93 -116l-328 -210l-71 87zM953 1487l94 -116l-328 -210l-60 87z" />
    <glyph glyph-name="tonos" unicode="&#x384;" horiz-adv-x="1024" 
d="M107 1474l154 -109l-299 -331l-92 67z" />
    <glyph glyph-name="dieresistonos" unicode="&#x385;" horiz-adv-x="1024" 
d="M670 1761l101 -131l-296 -193l-61 91zM343 1188q-48 0 -79.5 31.5t-31.5 75.5t31 77.5t80 33.5q46 0 80 -29.5t34 -80.5q0 -50 -33.5 -79t-80.5 -29zM678 1188q-49 0 -80.5 32t-31.5 75q0 44 31.5 77.5t80.5 33.5q45 0 79.5 -29.5t34.5 -80.5q0 -50 -33.5 -79t-80.5 -29z
" />
    <glyph glyph-name="Alphatonos" unicode="&#x386;" horiz-adv-x="1235" 
d="M1221 0h-263l-109 325h-525l-107 -325h-210l453 1365h303zM783 522l-199 609l-199 -609h398zM209 1474l154 -109l-299 -331l-92 67z" />
    <glyph glyph-name="anoteleia" unicode="&#x387;" horiz-adv-x="247" 
d="M247 651v-262h-247v262h247z" />
    <glyph glyph-name="Epsilontonos" unicode="&#x388;" horiz-adv-x="1099" 
d="M1037 0h-887v1365h878v-203h-632v-370h508v-198h-508v-382h641v-212zM-78 1474l154 -109l-299 -331l-92 67z" />
    <glyph glyph-name="Etatonos" unicode="&#x389;" horiz-adv-x="1314" 
d="M1163 0h-246v593h-521v-593h-246v1365h246v-561h521v561h246v-1365zM-76 1474l154 -109l-299 -331l-92 67z" />
    <glyph glyph-name="Iotatonos" unicode="&#x38a;" horiz-adv-x="546" 
d="M396 0h-246v1365h246v-1365zM-76 1474l154 -109l-299 -331l-92 67z" />
    <glyph glyph-name="Omicrontonos" unicode="&#x38c;" horiz-adv-x="1318" 
d="M653 -21q-272 0 -423.5 204t-151.5 504q0 298 161 498.5t425 200.5q266 0 420.5 -200.5t154.5 -501.5q0 -316 -160.5 -510.5t-425.5 -194.5zM655 177q133 0 225 110t92 399q0 235 -76 368.5t-236 133.5q-316 0 -316 -509q0 -247 80.5 -374.5t230.5 -127.5zM90 1474
l154 -109l-299 -331l-92 67z" />
    <glyph glyph-name="Upsilontonos" unicode="&#x38e;" horiz-adv-x="1113" 
d="M698 0h-261v576l-465 789h298l324 -563l310 563h236l-442 -789v-576zM-204 1474l154 -109l-299 -331l-92 67z" />
    <glyph glyph-name="Omegatonos" unicode="&#x38f;" horiz-adv-x="1358" 
d="M57 0v212h330q-307 150 -307 551q0 292 172 457.5t427 165.5q256 0 427.5 -166t171.5 -454q0 -403 -307 -554h329v-212h-536v212q248 151 248 523q0 214 -89.5 333.5t-243.5 119.5q-149 0 -241 -115t-92 -338q0 -372 248 -523v-212h-537zM83 1474l154 -109l-299 -331
l-92 67z" />
    <glyph glyph-name="iotadieresistonos" unicode="&#x390;" horiz-adv-x="501" 
d="M364 0h-228v1010h228v-1010zM409 1761l101 -131l-296 -193l-61 91zM82 1188q-48 0 -79.5 31.5t-31.5 75.5t31 77.5t80 33.5q46 0 80 -29.5t34 -80.5q0 -50 -33.5 -79t-80.5 -29zM417 1188q-49 0 -80.5 32t-31.5 75q0 44 31.5 77.5t80.5 33.5q45 0 79.5 -29.5t34.5 -80.5
q0 -50 -33.5 -79t-80.5 -29z" />
    <glyph glyph-name="Alpha" unicode="&#x391;" horiz-adv-x="1235" 
d="M1221 0h-263l-109 325h-525l-107 -325h-210l453 1365h303zM783 522l-199 609l-199 -609h398z" />
    <glyph glyph-name="Beta" unicode="&#x392;" horiz-adv-x="1244" 
d="M150 0v1365h532q135 0 224 -28t154 -117t65 -209q0 -113 -66 -196.5t-182 -106.5q144 -25 218 -117t74 -218q0 -158 -103.5 -265.5t-318.5 -107.5h-597zM383 792h300q92 0 145.5 55t53.5 140q0 94 -61 138.5t-143 44.5h-295v-378zM383 205h318q101 0 159.5 53t58.5 143
q0 86 -59.5 141t-157.5 55h-319v-392z" />
    <glyph glyph-name="Gamma" unicode="&#x393;" horiz-adv-x="932" 
d="M150 0v1365h782v-211h-536v-1154h-246z" />
    <glyph glyph-name="Delta" unicode="&#x394;" horiz-adv-x="1185" 
d="M-34 0l455 1365h316l470 -1365h-1241zM250 212h610l-292 948h-29z" />
    <glyph glyph-name="Epsilon" unicode="&#x395;" horiz-adv-x="1099" 
d="M1037 0h-887v1365h878v-203h-632v-370h508v-198h-508v-382h641v-212z" />
    <glyph glyph-name="Zeta" unicode="&#x396;" horiz-adv-x="1091" 
d="M1050 212v-212h-1009v194l699 976h-650v195h940v-195l-691 -958h711z" />
    <glyph glyph-name="Eta" unicode="&#x397;" horiz-adv-x="1313" 
d="M1163 0h-246v593h-521v-593h-246v1365h246v-561h521v561h246v-1365z" />
    <glyph glyph-name="Theta" unicode="&#x398;" horiz-adv-x="1363" 
d="M683 1386q280 0 440.5 -200t160.5 -501q0 -307 -164.5 -506.5t-440.5 -199.5q-267 0 -434 191t-167 519q0 270 157.5 483.5t447.5 213.5zM681 1188q-158 0 -252 -141t-94 -361q0 -256 98.5 -382.5t248.5 -126.5q155 0 250 137.5t95 370.5q0 227 -95 365t-251 138z
M867 793v-191h-370v191h370z" />
    <glyph glyph-name="Iota" unicode="&#x399;" horiz-adv-x="546" 
d="M396 0h-246v1365h246v-1365z" />
    <glyph glyph-name="Kappa" unicode="&#x39a;" horiz-adv-x="1257" 
d="M1223 0h-275l-288 695l-264 -350v-345h-246v1365h246v-717q47 73 68 101l453 616h249l-324 -449z" />
    <glyph glyph-name="Lambda" unicode="&#x39b;" horiz-adv-x="1117" 
d="M183 0h-214l433 1365h312l431 -1365h-264l-345 1136h-14z" />
    <glyph glyph-name="Mu" unicode="&#x39c;" horiz-adv-x="1640" 
d="M1489 0h-251v1195l-378 -1195h-129l-380 1195v-1195h-201v1365h385l286 -879l281 879h387v-1365z" />
    <glyph glyph-name="Nu" unicode="&#x39d;" horiz-adv-x="1331" 
d="M1181 0h-239l-518 872l-39 65q-12 20 -37 63v-1000h-198v1365h272l478 -804q6 -10 87 -147v951h194v-1365z" />
    <glyph glyph-name="Xi" unicode="&#x39e;" horiz-adv-x="1093" 
d="M76 1154v211h940v-211h-940zM227 600v199h638v-199h-638zM76 0v212h940v-212h-940z" />
    <glyph glyph-name="Omicron" unicode="&#x39f;" horiz-adv-x="1318" 
d="M653 -21q-272 0 -423.5 204t-151.5 504q0 298 161 498.5t425 200.5q266 0 420.5 -200.5t154.5 -501.5q0 -316 -160.5 -510.5t-425.5 -194.5zM655 177q133 0 225 110t92 399q0 235 -76 368.5t-236 133.5q-316 0 -316 -509q0 -247 80.5 -374.5t230.5 -127.5z" />
    <glyph glyph-name="Pi" unicode="&#x3a0;" horiz-adv-x="1267" 
d="M150 0v1365h966v-1365h-245v1154h-475v-1154h-246z" />
    <glyph glyph-name="Rho" unicode="&#x3a1;" horiz-adv-x="1227" 
d="M396 0h-246v1365h559q239 0 354.5 -120.5t115.5 -284.5q0 -187 -125 -303t-317 -116h-341v-541zM396 752h291q114 0 174 56t60 149q0 84 -55.5 144t-200.5 60h-269v-409z" />
    <glyph glyph-name="Sigma" unicode="&#x3a3;" horiz-adv-x="1043" 
d="M71 0v194l408 531l-383 442v198h869v-198h-572l359 -401l-423 -554h682v-212h-940z" />
    <glyph glyph-name="Tau" unicode="&#x3a4;" horiz-adv-x="990" 
d="M627 0h-264v1154h-363v211h990v-211h-363v-1154z" />
    <glyph glyph-name="Upsilon" unicode="&#x3a5;" horiz-adv-x="1113" 
d="M699 0h-261v576l-465 789h298l324 -563l310 563h236l-442 -789v-576z" />
    <glyph glyph-name="Phi" unicode="&#x3a6;" horiz-adv-x="1520" 
d="M653 127q-292 27 -428 178t-136 378q0 232 141 381.5t423 174.5v167h214v-167q288 -26 426 -176t138 -380q0 -226 -135 -377t-429 -179v-168h-214v168zM653 1062q-157 -26 -238 -116.5t-81 -273.5q0 -316 319 -368v758zM867 304q157 26 238.5 117t81.5 273
q0 316 -320 368v-758z" />
    <glyph glyph-name="Chi" unicode="&#x3a7;" horiz-adv-x="1160" 
d="M1149 0h-287l-302 538l-320 -538h-229l432 711l-371 654h286l252 -454l267 454h230l-380 -623z" />
    <glyph glyph-name="Psi" unicode="&#x3a8;" horiz-adv-x="1655" 
d="M703 0v252q-175 8 -287.5 53t-174 123.5t-84 192t-22.5 339.5v405h246v-405q0 -215 17 -301t88 -140.5t217 -65.5v912h246v-912q149 10 218 63.5t88 138t19 305.5v405h246v-405q0 -229 -20.5 -337t-87 -192.5t-178.5 -127.5t-285 -51v-252h-246z" />
    <glyph glyph-name="Omega" unicode="&#x3a9;" horiz-adv-x="1358" 
d="M57 0v212h330q-307 150 -307 551q0 292 172 457.5t427 165.5q256 0 427.5 -166t171.5 -454q0 -403 -307 -554h329v-212h-536v212q248 151 248 523q0 214 -89.5 333.5t-243.5 119.5q-149 0 -241 -115t-92 -338q0 -372 248 -523v-212h-537z" />
    <glyph glyph-name="Iotadieresis" unicode="&#x3aa;" horiz-adv-x="546" 
d="M396 0h-246v1365h246v-1365zM118 1512q-48 0 -79.5 31.5t-31.5 75.5t31 77.5t80 33.5q46 0 80 -29.5t34 -80.5q0 -50 -33.5 -79t-80.5 -29zM453 1512q-49 0 -80.5 32t-31.5 75q0 44 31.5 77.5t80.5 33.5q45 0 79.5 -29.5t34.5 -80.5q0 -50 -33.5 -79t-80.5 -29z" />
    <glyph glyph-name="Upsilondieresis" unicode="&#x3ab;" horiz-adv-x="1113" 
d="M699 0h-261v576l-465 789h298l324 -563l310 563h236l-442 -789v-576zM402 1512q-48 0 -79.5 31.5t-31.5 75.5t31 77.5t80 33.5q46 0 80 -29.5t34 -80.5q0 -50 -33.5 -79t-80.5 -29zM737 1512q-49 0 -80.5 32t-31.5 75q0 44 31.5 77.5t80.5 33.5q45 0 79.5 -29.5
t34.5 -80.5q0 -50 -33.5 -79t-80.5 -29z" />
    <glyph glyph-name="alphatonos" unicode="&#x3ac;" horiz-adv-x="1225" 
d="M1198 0h-251l-102 274q-125 -295 -360 -295q-182 0 -297.5 152.5t-115.5 371.5q0 242 123 385t318 143q218 0 332 -246l81 225h237l-183 -479zM784 519q-87 224 -140 274.5t-116 50.5q-87 0 -150.5 -90t-63.5 -254q0 -143 64 -238.5t150 -95.5q95 0 153 104t103 249z
M628 1552l154 -109l-299 -331l-92 67z" />
    <glyph glyph-name="epsilontonos" unicode="&#x3ad;" horiz-adv-x="957" 
d="M598 599v-157q-115 -1 -163 -7.5t-81.5 -41.5t-33.5 -91q0 -74 50.5 -113.5t130.5 -39.5q172 0 221 176l210 -37q-30 -129 -140 -219t-289 -90q-235 0 -330 94.5t-95 221.5q0 185 217 242q-121 51 -154 103.5t-33 115.5q0 120 98.5 197.5t274.5 77.5q366 0 426 -281
l-206 -37q-34 146 -195 146q-156 0 -156 -127q0 -65 51 -99.5t197 -33.5zM592 1552l154 -109l-299 -331l-92 67z" />
    <glyph glyph-name="etatonos" unicode="&#x3ae;" horiz-adv-x="1119" 
d="M990 -341h-228v976q0 209 -162 209q-104 0 -169.5 -73.5t-65.5 -194.5v-576h-228v1010h211v-167q107 188 317 188q116 0 194.5 -52t104.5 -128t26 -240v-952zM650 1552l154 -109l-299 -331l-92 67z" />
    <glyph glyph-name="iotatonos" unicode="&#x3af;" horiz-adv-x="501" 
d="M364 0h-228v1010h228v-1010zM303 1552l154 -109l-299 -331l-92 67z" />
    <glyph glyph-name="upsilondieresistonos" unicode="&#x3b0;" horiz-adv-x="1086" 
d="M355 1010v-587q0 -117 11.5 -161t54.5 -69.5t122 -25.5q74 0 118 23.5t57 66.5t13 166v587h228v-587q0 -174 -41.5 -265.5t-135 -135t-231.5 -43.5q-206 0 -315 86.5t-109 357.5v587h228zM701 1761l101 -131l-296 -193l-61 91zM374 1188q-48 0 -79.5 31.5t-31.5 75.5
t31 77.5t80 33.5q46 0 80 -29.5t34 -80.5q0 -50 -33.5 -79t-80.5 -29zM709 1188q-49 0 -80.5 32t-31.5 75q0 44 31.5 77.5t80.5 33.5q45 0 79.5 -29.5t34.5 -80.5q0 -50 -33.5 -79t-80.5 -29z" />
    <glyph glyph-name="alpha" unicode="&#x3b1;" horiz-adv-x="1225" 
d="M1198 0h-251l-102 274q-125 -295 -360 -295q-182 0 -297.5 152.5t-115.5 371.5q0 242 123 385t318 143q218 0 332 -246l81 225h237l-183 -479zM784 519q-87 224 -140 274.5t-116 50.5q-87 0 -150.5 -90t-63.5 -254q0 -143 64 -238.5t150 -95.5q95 0 153 104t103 249z" />
    <glyph glyph-name="beta" unicode="&#x3b2;" horiz-adv-x="1142" 
d="M143 -341v1244q0 181 37 276.5t128 151t253 55.5q186 0 305.5 -85t119.5 -243q0 -209 -235 -286q316 -76 316 -372q0 -181 -119 -301t-308 -120q-177 0 -269 129v-449h-228zM371 246q75 -79 198 -79q113 0 184.5 72t71.5 196q0 101 -56.5 173t-217.5 72v153
q122 2 163 55.5t41 138.5q0 198 -197 198q-88 0 -137.5 -50t-49.5 -245v-684z" />
    <glyph glyph-name="gamma" unicode="&#x3b3;" horiz-adv-x="895" 
d="M333 -341v359l-345 992h248l234 -699l245 699h197l-351 -992v-359h-228z" />
    <glyph glyph-name="delta" unicode="&#x3b4;" horiz-adv-x="1099" 
d="M901 1365v-177h-415l153 -105q132 -90 210.5 -168t125 -183.5t46.5 -240.5q0 -234 -125.5 -373t-342.5 -139q-219 0 -346.5 134.5t-127.5 365.5q0 210 118 336.5t329 126.5l-334 258v165h709zM554 814q-233 0 -233 -323q0 -324 230 -324q229 0 229 326q0 321 -226 321z
" />
    <glyph glyph-name="epsilon" unicode="&#x3b5;" horiz-adv-x="957" 
d="M598 599v-157q-115 -1 -163 -7.5t-81.5 -41.5t-33.5 -91q0 -74 50.5 -113.5t130.5 -39.5q172 0 221 176l210 -37q-30 -129 -140 -219t-289 -90q-235 0 -330 94.5t-95 221.5q0 185 217 242q-121 51 -154 103.5t-33 115.5q0 120 98.5 197.5t274.5 77.5q366 0 426 -281
l-206 -37q-34 146 -195 146q-156 0 -156 -127q0 -65 51 -99.5t197 -33.5z" />
    <glyph glyph-name="zeta" unicode="&#x3b6;" horiz-adv-x="792" 
d="M128 1188v177h622v-150q-173 -123 -300.5 -333t-127.5 -436q0 -134 50.5 -183t179.5 -57q91 -5 130.5 -27.5t63 -70.5t23.5 -128q0 -128 -84 -321l-199 25q71 141 71 228q0 49 -29.5 68t-108.5 23q-339 14 -339 396q0 420 449 789h-401z" />
    <glyph glyph-name="eta" unicode="&#x3b7;" horiz-adv-x="1119" 
d="M990 -341h-228v976q0 209 -162 209q-104 0 -169.5 -73.5t-65.5 -194.5v-576h-228v1010h211v-167q107 188 317 188q116 0 194.5 -52t104.5 -128t26 -240v-952z" />
    <glyph glyph-name="theta" unicode="&#x3b8;" horiz-adv-x="1111" 
d="M555 1386q223 0 347 -184.5t124 -519.5q0 -336 -124.5 -519.5t-346.5 -183.5q-211 0 -340.5 174t-129.5 529q0 349 127.5 526.5t342.5 177.5zM319 786h472q-8 230 -76 331.5t-160 101.5t-160 -102t-76 -331zM319 631q7 -485 236 -485t236 485h-472z" />
    <glyph glyph-name="iota" unicode="&#x3b9;" horiz-adv-x="501" 
d="M364 0h-228v1010h228v-1010z" />
    <glyph glyph-name="kappa" unicode="&#x3ba;" horiz-adv-x="1041" 
d="M673 674l359 -674h-250l-263 490l-154 -155v-335h-228v1010h228v-271l1 -85q0 -24 -5 -86q36 46 92 106l312 336h226z" />
    <glyph glyph-name="lambda" unicode="&#x3bb;" horiz-adv-x="887" 
d="M-10 0l339 932l-154 433h237l484 -1365h-238l-242 693l-241 -693h-185z" />
    <glyph glyph-name="mu" unicode="&#x3bc;" horiz-adv-x="1128" 
d="M137 -341v1351h228v-540q0 -111 16.5 -167t65.5 -96t114 -40q93 0 148 65t55 238v540h228v-1010h-193v155q-76 -176 -231 -176q-72 0 -129.5 42.5t-73.5 100.5v-463h-228z" />
    <glyph glyph-name="nu" unicode="&#x3bd;" horiz-adv-x="897" 
d="M883 1010l-343 -1010h-189l-351 1010h238l236 -685l230 685h179z" />
    <glyph glyph-name="xi" unicode="&#x3be;" horiz-adv-x="886" 
d="M610 -319q54 139 54 217q0 53 -34.5 72.5t-133.5 27.5q-218 16 -321.5 104t-103.5 264q0 146 76.5 232t232.5 132q-237 67 -237 221q0 162 237 237h-257v177h724v-177h-128q-334 0 -334 -197q0 -83 64 -138t214 -55h85v-180h-85q-132 0 -200.5 -16t-109.5 -68t-41 -132
q0 -71 32 -114t79.5 -58t168.5 -27q109 -10 164 -28t88.5 -66.5t33.5 -142.5q0 -115 -67 -320z" />
    <glyph glyph-name="omicron" unicode="&#x3bf;" horiz-adv-x="1083" 
d="M532 -21q-224 0 -342 161t-118 369q0 224 130.5 373t344.5 149q203 0 333.5 -145t130.5 -377q0 -239 -135.5 -384.5t-343.5 -145.5zM540 167q230 0 230 343q0 155 -55 244.5t-169 89.5q-118 0 -175 -92.5t-57 -245.5q0 -165 60.5 -252t165.5 -87z" />
    <glyph glyph-name="pi" unicode="&#x3c0;" horiz-adv-x="1138" 
d="M167 0v833h-122v177h1048v-177h-123v-833h-228v833h-347v-833h-228z" />
    <glyph glyph-name="rho" unicode="&#x3c1;" horiz-adv-x="1125" 
d="M116 -341v733q0 241 35 360t148 199t276 80q218 0 348 -144.5t130 -393.5q0 -235 -119 -374.5t-302 -139.5q-190 0 -288 160v-480h-228zM577 844q-111 0 -168.5 -75t-57.5 -264q0 -338 232 -338q228 0 228 339q0 338 -234 338z" />
    <glyph glyph-name="sigma1" unicode="&#x3c2;" horiz-adv-x="980" 
d="M661 -313q50 99 50 205q0 63 -27 82.5t-99 27.5q-173 22 -279 75.5t-170 168t-64 274.5q0 222 120 366.5t340 144.5q177 0 281 -99.5t126 -253.5l-212 -38q-23 204 -197 204q-98 0 -157.5 -73.5t-59.5 -224.5q0 -132 41 -202t112 -100t214 -51q137 -21 194 -71t57 -181
q0 -112 -64 -295z" />
    <glyph glyph-name="sigma" unicode="&#x3c3;" horiz-adv-x="1115" 
d="M1088 1010v-177h-234q106 -91 136.5 -169.5t30.5 -184.5q0 -223 -129 -361.5t-339 -138.5q-203 0 -338.5 128.5t-135.5 400.5q0 239 125 381t351 142q77 0 143 -21h390zM550 844q-229 0 -229 -337q0 -340 230 -340q228 0 228 340q0 337 -229 337z" />
    <glyph glyph-name="tau" unicode="&#x3c4;" horiz-adv-x="790" 
d="M282 0v833h-290v177h806v-177h-288v-833h-228z" />
    <glyph glyph-name="upsilon" unicode="&#x3c5;" horiz-adv-x="1086" 
d="M355 1010v-587q0 -117 11.5 -161t54.5 -69.5t122 -25.5q74 0 118 23.5t57 66.5t13 166v587h228v-587q0 -174 -41.5 -265.5t-135 -135t-231.5 -43.5q-206 0 -315 86.5t-109 357.5v587h228z" />
    <glyph glyph-name="phi" unicode="&#x3c6;" horiz-adv-x="1376" 
d="M581 -341v315q-242 19 -371.5 163.5t-129.5 363.5q0 176 84 305t214 173l68 -182q-139 -97 -139 -291q0 -303 274 -357v876q67 6 117 6q314 0 456 -158t142 -375q0 -205 -129.5 -355.5t-376.5 -168.5v-315h-209zM790 148q276 42 276 361q0 314 -276 358v-719z" />
    <glyph glyph-name="chi" unicode="&#x3c7;" horiz-adv-x="968" 
d="M351 391l-324 619h246l241 -464l230 464h207l-339 -654l364 -697h-246l-272 553l-277 -553h-214z" />
    <glyph glyph-name="psi" unicode="&#x3c8;" horiz-adv-x="1472" 
d="M627 -341v316q-183 6 -291.5 57t-156.5 147.5t-48 292.5v538h228v-538q0 -189 52.5 -250t215.5 -64v852h218v-852q159 3 213.5 61.5t54.5 252.5v538h228v-538q0 -184 -44 -283t-154 -153.5t-298 -60.5v-316h-218z" />
    <glyph glyph-name="omega" unicode="&#x3c9;" 
d="M833 785v-337q0 -179 31.5 -230.5t89.5 -51.5q78 0 129.5 70.5t51.5 233.5q0 257 -164 476l163 95q242 -244 242 -562q0 -258 -114.5 -379t-277.5 -121q-80 0 -142 34t-116 143q-83 -177 -258 -177q-165 0 -279 122.5t-114 365.5q0 330 242 574l164 -95
q-164 -220 -164 -477q0 -161 51 -232t130 -71q55 0 87.5 48.5t32.5 233.5v337h215z" />
    <glyph glyph-name="iotadieresis" unicode="&#x3ca;" horiz-adv-x="501" 
d="M364 0h-228v1010h228v-1010zM82 1188q-48 0 -79.5 31.5t-31.5 75.5t31 77.5t80 33.5q46 0 80 -29.5t34 -80.5q0 -50 -33.5 -79t-80.5 -29zM417 1188q-49 0 -80.5 32t-31.5 75q0 44 31.5 77.5t80.5 33.5q45 0 79.5 -29.5t34.5 -80.5q0 -50 -33.5 -79t-80.5 -29z" />
    <glyph glyph-name="upsilondieresis" unicode="&#x3cb;" horiz-adv-x="1086" 
d="M355 1010v-587q0 -117 11.5 -161t54.5 -69.5t122 -25.5q74 0 118 23.5t57 66.5t13 166v587h228v-587q0 -174 -41.5 -265.5t-135 -135t-231.5 -43.5q-206 0 -315 86.5t-109 357.5v587h228zM374 1188q-48 0 -79.5 31.5t-31.5 75.5t31 77.5t80 33.5q46 0 80 -29.5t34 -80.5
q0 -50 -33.5 -79t-80.5 -29zM709 1188q-49 0 -80.5 32t-31.5 75q0 44 31.5 77.5t80.5 33.5q45 0 79.5 -29.5t34.5 -80.5q0 -50 -33.5 -79t-80.5 -29z" />
    <glyph glyph-name="omicrontonos" unicode="&#x3cc;" horiz-adv-x="1083" 
d="M532 -21q-224 0 -342 161t-118 369q0 224 130.5 373t344.5 149q203 0 333.5 -145t130.5 -377q0 -239 -135.5 -384.5t-343.5 -145.5zM540 167q230 0 230 343q0 155 -55 244.5t-169 89.5q-118 0 -175 -92.5t-57 -245.5q0 -165 60.5 -252t165.5 -87zM601 1552l154 -109
l-299 -331l-92 67z" />
    <glyph glyph-name="upsilontonos" unicode="&#x3cd;" horiz-adv-x="1086" 
d="M355 1010v-587q0 -117 11.5 -161t54.5 -69.5t122 -25.5q74 0 118 23.5t57 66.5t13 166v587h228v-587q0 -174 -41.5 -265.5t-135 -135t-231.5 -43.5q-206 0 -315 86.5t-109 357.5v587h228zM603 1572l154 -109l-299 -331l-92 67z" />
    <glyph glyph-name="omegatonos" unicode="&#x3ce;" 
d="M833 785v-337q0 -179 31.5 -230.5t89.5 -51.5q78 0 129.5 70.5t51.5 233.5q0 257 -164 476l163 95q242 -244 242 -562q0 -258 -114.5 -379t-277.5 -121q-80 0 -142 34t-116 143q-83 -177 -258 -177q-165 0 -279 122.5t-114 365.5q0 330 242 574l164 -95
q-164 -220 -164 -477q0 -161 51 -232t130 -71q55 0 87.5 48.5t32.5 233.5v337h215zM819 1552l154 -109l-299 -331l-92 67z" />
    <glyph glyph-name="afii10023" unicode="&#x401;" horiz-adv-x="1099" 
d="M1037 0h-887v1365h878v-203h-632v-370h508v-198h-508v-382h641v-212zM431 1522q-48 0 -79.5 31.5t-31.5 75.5t31 77.5t80 33.5q46 0 80 -29.5t34 -80.5q0 -50 -33.5 -79t-80.5 -29zM766 1522q-49 0 -80.5 32t-31.5 75q0 44 31.5 77.5t80.5 33.5q45 0 79.5 -29.5
t34.5 -80.5q0 -50 -33.5 -79t-80.5 -29z" />
    <glyph glyph-name="afii10051" unicode="&#x402;" horiz-adv-x="1278" 
d="M212 0v1165h-224v200h972v-200h-502v-426q116 176 356 176q126 0 212 -51.5t122 -162t36 -394.5q0 -328 -51 -448t-147.5 -165t-256.5 -51l-13 185q135 0 179 85.5t44 369.5q0 310 -49.5 378t-155.5 68q-276 0 -276 -284v-445h-246z" />
    <glyph glyph-name="afii10052" unicode="&#x403;" horiz-adv-x="891" 
d="M150 0v1365h741v-211h-495v-1154h-246zM750 1819l66 -150l-417 -176l-42 107z" />
    <glyph glyph-name="afii10053" unicode="&#x404;" horiz-adv-x="1260" 
d="M840 799v-187h-500q0 -189 90 -312t251 -123q230 0 312 250l232 -45q-56 -182 -194 -292.5t-353 -110.5q-266 0 -432.5 191t-166.5 521q0 305 153.5 500t436.5 195q391 0 527 -365l-229 -58q-81 225 -297 225q-155 0 -237.5 -111t-92.5 -278h500z" />
    <glyph glyph-name="afii10054" unicode="&#x405;" horiz-adv-x="1170" 
d="M7 329l239 51q43 -203 330 -203q131 0 201.5 52t70.5 129q0 56 -32 103.5t-137 74.5l-261 68q-134 35 -198 79.5t-102.5 125.5t-38.5 173q0 183 136 293.5t348 110.5q176 0 314.5 -77t176.5 -218l-234 -58q-54 155 -252 155q-115 0 -175.5 -48t-60.5 -122
q0 -117 190 -164l232 -58q211 -53 283 -156.5t72 -228.5q0 -201 -151.5 -316.5t-392.5 -115.5q-203 0 -355.5 85t-202.5 265z" />
    <glyph glyph-name="afii10055" unicode="&#x406;" horiz-adv-x="546" 
d="M396 0h-246v1365h246v-1365z" />
    <glyph glyph-name="afii10056" unicode="&#x407;" horiz-adv-x="546" 
d="M396 0h-246v1365h246v-1365zM103 1522q-48 0 -79.5 31.5t-31.5 75.5t31 77.5t80 33.5q46 0 80 -29.5t34 -80.5q0 -50 -33.5 -79t-80.5 -29zM438 1522q-49 0 -80.5 32t-31.5 75q0 44 31.5 77.5t80.5 33.5q45 0 79.5 -29.5t34.5 -80.5q0 -50 -33.5 -79t-80.5 -29z" />
    <glyph glyph-name="afii10057" unicode="&#x408;" horiz-adv-x="761" 
d="M624 1365v-942q0 -235 -101.5 -339.5t-323.5 -104.5q-128 0 -199 21v198q112 -8 158 -8q123 0 168 46t45 187v942h253z" />
    <glyph glyph-name="afii10058" unicode="&#x409;" horiz-adv-x="1715" 
d="M853 843h307q194 0 295 -37.5t163 -141t62 -237.5q0 -185 -114.5 -306t-353.5 -121h-399l-277 1136h-14l-339 -1136h-214l433 1365h312zM1021 212h172q235 0 235 215q0 216 -235 216h-287z" />
    <glyph glyph-name="afii10059" unicode="&#x40a;" horiz-adv-x="1919" 
d="M1124 822h251q195 0 295.5 -41.5t156 -139.5t55.5 -224q0 -186 -116.5 -301.5t-337.5 -115.5h-550v623h-482v-623h-246v1365h246v-543h482v543h246v-543zM1124 212h270q237 0 237 209q0 202 -237 202h-270v-411z" />
    <glyph glyph-name="afii10060" unicode="&#x40b;" horiz-adv-x="1297" 
d="M458 1165v-417q122 168 338 168q165 0 274 -99t109 -344v-473h-245v484q0 141 -55 192t-152 51q-209 0 -269 -173v-554h-246v1165h-224v200h977v-200h-507z" />
    <glyph glyph-name="afii10061" unicode="&#x40c;" horiz-adv-x="1257" 
d="M1223 0h-275l-288 695l-264 -350v-345h-246v1365h246v-717q47 73 68 101l453 616h249l-324 -449zM857 1819l66 -150l-417 -176l-42 107z" />
    <glyph glyph-name="afii10062" unicode="&#x40e;" horiz-adv-x="1051" 
d="M460 398l-485 967h266l336 -691l276 691h231l-426 -1027q-82 -198 -168 -268t-249 -70h-92v212h92q91 0 130 32.5t69 105.5zM253 1767h131q18 -132 175 -132q152 0 170 132h131q-5 -115 -88 -194.5t-218 -79.5q-129 0 -213 75t-88 199z" />
    <glyph glyph-name="afii10145" unicode="&#x40f;" horiz-adv-x="1277" 
d="M396 212h485v1153h246v-1365h-387l-14 -287h-182l-14 287h-380v1365h246v-1153z" />
    <glyph glyph-name="afii10017" unicode="&#x410;" horiz-adv-x="1235" 
d="M1221 0h-263l-109 325h-525l-107 -325h-210l453 1365h303zM783 522l-199 609l-199 -609h398z" />
    <glyph glyph-name="afii10018" unicode="&#x411;" horiz-adv-x="1227" 
d="M150 0v1365h855v-198h-609v-356h236q179 0 283 -31t170.5 -132t66.5 -239q0 -183 -115 -296t-336 -113h-551zM396 212h275q231 0 231 206q0 85 -51 141.5t-205 56.5h-250v-404z" />
    <glyph glyph-name="afii10019" unicode="&#x412;" horiz-adv-x="1244" 
d="M150 0v1365h532q135 0 224 -28t154 -117t65 -209q0 -113 -66 -196.5t-182 -106.5q144 -25 218 -117t74 -218q0 -158 -103.5 -265.5t-318.5 -107.5h-597zM383 792h300q92 0 145.5 55t53.5 140q0 94 -61 138.5t-143 44.5h-295v-378zM383 205h318q101 0 159.5 53t58.5 143
q0 86 -59.5 141t-157.5 55h-319v-392z" />
    <glyph glyph-name="afii10020" unicode="&#x413;" horiz-adv-x="891" 
d="M150 0v1365h741v-211h-495v-1154h-246z" />
    <glyph glyph-name="afii10021" unicode="&#x414;" horiz-adv-x="1234" 
d="M92 212l360 1153h367l324 -1153h100v-499h-171l-30 287h-849l-30 -287h-171v499h100zM302 212h581l-237 924h-74z" />
    <glyph glyph-name="afii10022" unicode="&#x415;" horiz-adv-x="1099" 
d="M1037 0h-887v1365h878v-203h-632v-370h508v-198h-508v-382h641v-212z" />
    <glyph glyph-name="afii10024" unicode="&#x416;" horiz-adv-x="1652" 
d="M1213 779l504 -779h-275l-416 641l-79 -24v-617h-234v617l-80 24l-415 -641h-242l472 711l-436 654h270l380 -572l51 -14v586h234v-586l51 14l380 572h242z" />
    <glyph glyph-name="afii10025" unicode="&#x417;" horiz-adv-x="1161" 
d="M21 398l226 38q50 -259 311 -259q141 0 204.5 64.5t63.5 160.5q0 214 -236 214h-119v180h108q101 0 160.5 53.5t59.5 144.5q0 90 -67 142t-175 52q-244 0 -283 -224l-218 33q70 389 512 389q223 0 353.5 -103.5t130.5 -258.5q0 -224 -247 -299q287 -60 287 -321
q0 -177 -136 -301t-391 -124q-246 0 -385.5 114.5t-158.5 304.5z" />
    <glyph glyph-name="afii10026" unicode="&#x418;" horiz-adv-x="1348" 
d="M396 124v-124h-246v1365h246v-766q0 -93 -7 -206q66 139 161 272l402 562v138h245v-1365h-245v707q0 184 6 250q-72 -144 -162 -271z" />
    <glyph glyph-name="afii10027" unicode="&#x419;" horiz-adv-x="1348" 
d="M396 124v-124h-246v1365h246v-766q0 -93 -7 -206q66 139 161 272l402 562v138h245v-1365h-245v707q0 184 6 250q-72 -144 -162 -271zM380 1767h131q18 -132 175 -132q152 0 170 132h131q-5 -115 -88 -194.5t-218 -79.5q-129 0 -213 75t-88 199z" />
    <glyph glyph-name="afii10028" unicode="&#x41a;" horiz-adv-x="1257" 
d="M1223 0h-275l-288 695l-264 -350v-345h-246v1365h246v-717q47 73 68 101l453 616h249l-324 -449z" />
    <glyph glyph-name="afii10029" unicode="&#x41b;" horiz-adv-x="1117" 
d="M183 0h-214l433 1365h312l431 -1365h-264l-345 1136h-14z" />
    <glyph glyph-name="afii10030" unicode="&#x41c;" horiz-adv-x="1640" 
d="M1489 0h-251v1195l-378 -1195h-129l-380 1195v-1195h-201v1365h385l286 -879l281 879h387v-1365z" />
    <glyph glyph-name="afii10031" unicode="&#x41d;" horiz-adv-x="1313" 
d="M1163 0h-246v593h-521v-593h-246v1365h246v-561h521v561h246v-1365z" />
    <glyph glyph-name="afii10032" unicode="&#x41e;" horiz-adv-x="1318" 
d="M653 -21q-272 0 -423.5 204t-151.5 504q0 298 161 498.5t425 200.5q266 0 420.5 -200.5t154.5 -501.5q0 -316 -160.5 -510.5t-425.5 -194.5zM655 177q133 0 225 110t92 399q0 235 -76 368.5t-236 133.5q-316 0 -316 -509q0 -247 80.5 -374.5t230.5 -127.5z" />
    <glyph glyph-name="afii10033" unicode="&#x41f;" horiz-adv-x="1277" 
d="M150 0v1365h977v-1365h-246v1165h-485v-1165h-246z" />
    <glyph glyph-name="afii10034" unicode="&#x420;" horiz-adv-x="1227" 
d="M396 0h-246v1365h559q239 0 354.5 -120.5t115.5 -284.5q0 -187 -125 -303t-317 -116h-341v-541zM396 752h291q114 0 174 56t60 149q0 84 -55.5 144t-200.5 60h-269v-409z" />
    <glyph glyph-name="afii10035" unicode="&#x421;" horiz-adv-x="1186" 
d="M913 474l228 -25q-22 -205 -158.5 -337.5t-358.5 -132.5q-187 0 -303.5 94t-179.5 255t-63 355q0 312 148 507.5t407 195.5q203 0 338 -125t170 -358l-228 -24q-63 309 -278 309q-138 0 -214.5 -128.5t-76.5 -372.5q0 -248 82 -374.5t217 -126.5q108 0 184 85t86 203z
" />
    <glyph glyph-name="afii10036" unicode="&#x422;" horiz-adv-x="990" 
d="M627 0h-264v1154h-363v211h990v-211h-363v-1154z" />
    <glyph glyph-name="afii10037" unicode="&#x423;" horiz-adv-x="1051" 
d="M460 398l-485 967h266l336 -691l276 691h231l-426 -1027q-82 -198 -168 -268t-249 -70h-92v212h92q91 0 130 32.5t69 105.5z" />
    <glyph glyph-name="afii10038" unicode="&#x424;" horiz-adv-x="1520" 
d="M653 127q-292 27 -428 178t-136 378q0 232 141 381.5t423 174.5v167h214v-167q288 -26 426 -176t138 -380q0 -226 -135 -377t-429 -179v-168h-214v168zM653 1062q-157 -26 -238 -116.5t-81 -273.5q0 -316 319 -368v758zM867 304q157 26 238.5 117t81.5 273
q0 316 -320 368v-758z" />
    <glyph glyph-name="afii10039" unicode="&#x425;" horiz-adv-x="1160" 
d="M1149 0h-287l-302 538l-320 -538h-229l432 711l-371 654h286l252 -454l267 454h230l-380 -623z" />
    <glyph glyph-name="afii10040" unicode="&#x426;" horiz-adv-x="1313" 
d="M164 0v1365h246v-1153h486v1153h245v-1153h172v-499h-170l-30 287h-949z" />
    <glyph glyph-name="afii10041" unicode="&#x427;" horiz-adv-x="1241" 
d="M845 0v588q-140 -150 -349 -150q-121 0 -212 54.5t-132 143.5t-41 250v479h246v-491q0 -125 44.5 -181.5t153.5 -56.5q169 0 290 123v606h246v-1365h-246z" />
    <glyph glyph-name="afii10042" unicode="&#x428;" horiz-adv-x="1911" 
d="M164 0v1365h246v-1153h423v1153h246v-1153h423v1153h246v-1365h-1584z" />
    <glyph glyph-name="afii10043" unicode="&#x429;" horiz-adv-x="1925" 
d="M1748 212h177v-499h-170l-30 287h-1561v1365h246v-1153h423v1153h246v-1153h423v1153h246v-1153z" />
    <glyph glyph-name="afii10044" unicode="&#x42a;" horiz-adv-x="1323" 
d="M293 1154h-340v211h586v-522h229q194 0 295 -37.5t163 -141t62 -237.5q0 -185 -114.5 -306t-353.5 -121h-527v1154zM539 212h262q235 0 235 215q0 216 -235 216h-262v-431z" />
    <glyph glyph-name="afii10045" unicode="&#x42b;" horiz-adv-x="1736" 
d="M1327 0v1365h246v-1365h-246zM164 0v1365h246v-522h229q192 0 293.5 -36.5t164 -140.5t62.5 -239q0 -185 -114.5 -306t-353.5 -121h-527zM410 212h262q235 0 235 215q0 216 -235 216h-262v-431z" />
    <glyph glyph-name="afii10046" unicode="&#x42c;" horiz-adv-x="1181" 
d="M150 0v1365h246v-522h229q192 0 293.5 -36.5t164 -140.5t62.5 -239q0 -185 -114.5 -306t-353.5 -121h-527zM396 212h262q235 0 235 215q0 216 -235 216h-262v-431z" />
    <glyph glyph-name="afii10047" unicode="&#x42d;" horiz-adv-x="1259" 
d="M418 612v187h501q-10 166 -92 277.5t-238 111.5q-216 0 -298 -225l-229 58q137 365 528 365q284 0 437 -196.5t153 -498.5q0 -304 -155.5 -508t-443.5 -204q-216 0 -353.5 110.5t-193.5 292.5l232 45q82 -250 312 -250q162 0 251.5 124t89.5 311h-501z" />
    <glyph glyph-name="afii10048" unicode="&#x42e;" horiz-adv-x="1887" 
d="M636 615h-240v-615h-246v1365h246v-550h240q37 257 192 414t388 157q260 0 426.5 -189t166.5 -506q0 -296 -157.5 -504t-428.5 -208q-272 0 -426 188.5t-161 447.5zM1217 1188q-153 0 -239.5 -140.5t-86.5 -370.5q0 -243 94 -371.5t230 -128.5q151 0 239 144t88 373
q0 245 -92 369.5t-233 124.5z" />
    <glyph glyph-name="afii10049" unicode="&#x42f;" horiz-adv-x="1291" 
d="M894 567h-344l-250 -567h-247l288 612q-250 95 -250 349q0 189 123.5 296.5t328.5 107.5h597v-1365h-246v567zM894 1166h-311q-116 0 -176.5 -52.5t-60.5 -141.5q0 -88 62 -150t194 -62h292v406z" />
    <glyph glyph-name="afii10065" unicode="&#x430;" horiz-adv-x="1107" 
d="M1001 0h-217q-29 92 -35 204q-91 -225 -342 -225q-151 0 -242.5 88.5t-91.5 222.5q0 348 611 348q24 0 65 -1v76q0 157 -214 157q-208 0 -236 -157l-194 29q16 126 130 207.5t330 81.5q117 0 191 -19.5t125 -66t70.5 -101t19.5 -184.5v-456q0 -99 30 -204zM749 514
q-442 0 -442 -211q0 -63 44.5 -107.5t134.5 -44.5q130 0 196.5 82.5t66.5 187.5v93z" />
    <glyph glyph-name="afii10066" unicode="&#x431;" horiz-adv-x="1111" 
d="M687 1456h234q-7 -101 -68.5 -152.5t-214.5 -83.5q-124 -26 -177 -52t-89 -87.5t-51 -160.5q88 75 140.5 93t124.5 18q192 0 318.5 -133t126.5 -384q0 -253 -127.5 -394t-345.5 -141q-217 0 -344.5 136.5t-127.5 438.5q0 181 31.5 333t104 256.5t142.5 144.5t186 66
q80 17 106 36t31 66zM556 855q-239 0 -239 -346q0 -342 239 -342q233 0 233 342q0 346 -233 346z" />
    <glyph glyph-name="afii10067" unicode="&#x432;" horiz-adv-x="1088" 
d="M137 0v1010h525q182 0 250 -77t68 -174q0 -168 -195 -226q232 -57 232 -253q0 -124 -80 -202t-226 -78h-574zM365 595h261q133 0 133 128q0 121 -133 121h-261v-249zM365 177h261q86 0 122 34.5t36 106.5q0 142 -158 142h-261v-283z" />
    <glyph glyph-name="afii10068" unicode="&#x433;" horiz-adv-x="762" 
d="M136 0v1010h626v-177h-398v-833h-228z" />
    <glyph glyph-name="afii10069" unicode="&#x434;" horiz-adv-x="985" 
d="M84 177l237 833h370l210 -833h92v-409h-148l-27 232h-651l-27 -232h-148v409h92zM267 177h406l-151 656h-82z" />
    <glyph glyph-name="afii10070" unicode="&#x435;" horiz-adv-x="1074" 
d="M779 322l206 -28q-40 -137 -156 -226t-291 -89q-210 0 -338 141t-128 382q0 229 129 379t350 150q216 0 334 -148t118 -380l-1 -26h-693q0 -103 19.5 -165t77.5 -108t145 -46q169 0 228 164zM765 624q-1 109 -65.5 178t-159.5 69q-94 0 -157 -64.5t-74 -182.5h456z" />
    <glyph glyph-name="afii10072" unicode="&#x436;" horiz-adv-x="1328" 
d="M1005 604l368 -604h-248l-282 455l-67 -19v-436h-219v436l-68 19l-291 -455h-223l360 535l-324 475h238l272 -396l36 -10v406h219v-406l36 10l272 396h226z" />
    <glyph glyph-name="afii10073" unicode="&#x437;" horiz-adv-x="947" 
d="M355 442v157q164 0 206 40.5t42 94.5q0 57 -40 93t-113 36q-157 0 -187 -150l-208 37q67 281 412 281q186 0 282 -78t96 -197q0 -152 -187 -219q217 -58 217 -243q0 -135 -104.5 -225t-300.5 -90q-360 0 -439 309l210 37q41 -180 209 -180q86 0 134.5 42.5t48.5 114.5
q0 54 -33 89.5t-84.5 43t-160.5 7.5z" />
    <glyph glyph-name="afii10074" unicode="&#x438;" horiz-adv-x="1128" 
d="M365 102v-102h-228v1010h228v-439q0 -99 -5 -211q50 81 144 198l259 322v130h228v-1010h-228v415q0 124 7 218q-48 -78 -132 -184z" />
    <glyph glyph-name="afii10075" unicode="&#x439;" horiz-adv-x="1128" 
d="M365 102v-102h-228v1010h228v-439q0 -99 -5 -211q50 81 144 198l259 322v130h228v-1010h-228v415q0 124 7 218q-48 -78 -132 -184zM261 1455h131q18 -132 175 -132q152 0 170 132h131q-5 -115 -88 -194.5t-218 -79.5q-129 0 -213 75t-88 199z" />
    <glyph glyph-name="afii10076" unicode="&#x43a;" horiz-adv-x="1028" 
d="M703 660l352 -660h-245l-265 488l-180 -190v-298h-228v1010h228v-300q0 -97 -7 -173q50 66 95 113l339 360h224z" />
    <glyph glyph-name="afii10077" unicode="&#x43b;" horiz-adv-x="887" 
d="M-10 0l323 1010h269l314 -1010h-238l-228 833l-255 -833h-185z" />
    <glyph glyph-name="afii10078" unicode="&#x43c;" horiz-adv-x="1471" 
d="M136 0v1010h344l259 -833l273 833h322v-1010h-211v833h-14l-273 -833h-233l-269 833h-14v-833h-184z" />
    <glyph glyph-name="afii10079" unicode="&#x43d;" horiz-adv-x="1124" 
d="M136 0v1010h228v-389h395v389h228v-1010h-228v444h-395v-444h-228z" />
    <glyph glyph-name="afii10080" unicode="&#x43e;" horiz-adv-x="1083" 
d="M532 -21q-224 0 -342 161t-118 369q0 224 130.5 373t344.5 149q203 0 333.5 -145t130.5 -377q0 -239 -135.5 -384.5t-343.5 -145.5zM540 167q230 0 230 343q0 155 -55 244.5t-169 89.5q-118 0 -175 -92.5t-57 -245.5q0 -165 60.5 -252t165.5 -87z" />
    <glyph glyph-name="afii10081" unicode="&#x43f;" horiz-adv-x="1080" 
d="M136 0v1010h807v-1010h-228v845h-351v-845h-228z" />
    <glyph glyph-name="afii10082" unicode="&#x440;" horiz-adv-x="1103" 
d="M369 -341h-232v1351h218v-176q105 197 309 197q168 0 268 -146t100 -373q0 -215 -95.5 -374t-284.5 -159q-195 0 -283 162v-482zM369 414q0 -110 65.5 -182.5t145.5 -72.5q109 0 159.5 95.5t50.5 242.5q0 154 -51 250.5t-152 96.5q-91 0 -154.5 -79t-63.5 -207v-144z" />
    <glyph glyph-name="afii10083" unicode="&#x441;" horiz-adv-x="954" 
d="M720 371l196 -20q-38 -190 -147 -281t-263 -91q-209 0 -321.5 152.5t-112.5 373.5q0 228 123 377t328 149q330 0 393 -348l-196 -27q-26 188 -185 188q-116 0 -168.5 -101.5t-52.5 -245.5q0 -153 54.5 -236t152.5 -83q150 0 199 193z" />
    <glyph glyph-name="afii10084" unicode="&#x442;" horiz-adv-x="763" 
d="M270 0v833h-280v177h784v-177h-276v-833h-228z" />
    <glyph glyph-name="afii10085" unicode="&#x443;" horiz-adv-x="905" 
d="M891 1010l-393 -1150q-36 -106 -98.5 -164.5t-176.5 -58.5q-45 0 -131 7v181l109 -2q72 0 106.5 23.5t54.5 83.5t20 70q0 6 -21 62l-347 948h239l245 -666l211 666h182z" />
    <glyph glyph-name="afii10086" unicode="&#x444;" horiz-adv-x="1353" 
d="M579 -341v341q-247 20 -375.5 157t-128.5 342q0 230 143 359.5t361 151.5v340h195v-340q218 -22 361 -151.5t143 -359.5q0 -205 -129 -342t-375 -157v-341h-195zM579 866q-271 -50 -271 -358t271 -358v716zM772 150q272 50 272 358t-272 358v-716z" />
    <glyph glyph-name="afii10087" unicode="&#x445;" horiz-adv-x="904" 
d="M904 0h-260l-214 368l-234 -368h-196l336 520l-291 490h261l166 -297l189 297h191l-285 -438z" />
    <glyph glyph-name="afii10088" unicode="&#x446;" horiz-adv-x="1108" 
d="M137 0v1010h228v-833h365v833h228v-833h150v-409h-150l-27 232h-794z" />
    <glyph glyph-name="afii10089" unicode="&#x447;" horiz-adv-x="1031" 
d="M666 0v397q-112 -88 -262 -88q-142 0 -222 75t-80 213v413h228v-381q0 -133 151 -133q105 0 185 41v473h228v-1010h-228z" />
    <glyph glyph-name="afii10090" unicode="&#x448;" horiz-adv-x="1627" 
d="M147 0v1010h228v-833h325v833h228v-833h325v833h228v-1010h-1334z" />
    <glyph glyph-name="afii10091" unicode="&#x449;" horiz-adv-x="1648" 
d="M150 0v1010h228v-833h325v833h228v-833h325v833h228v-833h164v-409h-150l-28 232h-1320z" />
    <glyph glyph-name="afii10092" unicode="&#x44a;" horiz-adv-x="1091" 
d="M226 0v833h-271v177h499v-369h266q173 0 254 -93t81 -231q0 -153 -88.5 -235t-246.5 -82h-494zM454 177h221q84 0 120.5 33.5t36.5 108.5q0 156 -157 156h-221v-298z" />
    <glyph glyph-name="afii10093" unicode="&#x44b;" horiz-adv-x="1482" 
d="M147 0v1010h228v-369h266q173 0 254.5 -93t81.5 -231q0 -152 -88.5 -234.5t-247.5 -82.5h-494zM375 177h221q84 0 120.5 33.5t36.5 108.5q0 156 -157 156h-221v-298zM1108 0v1010h228v-1010h-228z" />
    <glyph glyph-name="afii10094" unicode="&#x44c;" horiz-adv-x="1002" 
d="M137 0v1010h228v-369h266q173 0 254.5 -93t81.5 -231q0 -152 -88.5 -234.5t-247.5 -82.5h-494zM365 177h221q84 0 120.5 33.5t36.5 108.5q0 156 -157 156h-221v-298z" />
    <glyph glyph-name="afii10095" unicode="&#x44d;" horiz-adv-x="1019" 
d="M311 434v165h393q-21 245 -236 245q-163 0 -211 -137l-212 42q104 282 426 282q239 0 357.5 -153.5t118.5 -369.5q0 -242 -125 -385.5t-362 -143.5q-328 0 -431 298l209 40q55 -151 225 -151q107 0 174 68.5t67 199.5h-393z" />
    <glyph glyph-name="afii10096" unicode="&#x44e;" horiz-adv-x="1596" 
d="M365 441v-441h-228v1010h228v-391h199q28 183 158.5 297.5t321.5 114.5q217 0 349 -144.5t132 -378.5q0 -237 -136.5 -383t-355.5 -146q-208 0 -331.5 133.5t-137.5 328.5h-199zM1040 857q-249 0 -249 -345t250 -345q242 0 242 341q0 349 -243 349z" />
    <glyph glyph-name="afii10097" unicode="&#x44f;" horiz-adv-x="1069" 
d="M704 0v396h-243l-187 -396h-243l250 445q-187 69 -187 255q0 157 91 233.5t236 76.5h511v-1010h-228zM704 563v281h-236q-146 0 -146 -148q0 -133 136 -133h246z" />
    <glyph glyph-name="afii10071" unicode="&#x451;" horiz-adv-x="1074" 
d="M779 322l206 -28q-40 -137 -156 -226t-291 -89q-210 0 -338 141t-128 382q0 229 129 379t350 150q216 0 334 -148t118 -380l-1 -26h-693q0 -103 19.5 -165t77.5 -108t145 -46q169 0 228 164zM765 624q-1 109 -65.5 178t-159.5 69q-94 0 -157 -64.5t-74 -182.5h456z
M382 1188q-48 0 -79.5 31.5t-31.5 75.5t31 77.5t80 33.5q46 0 80 -29.5t34 -80.5q0 -50 -33.5 -79t-80.5 -29zM717 1188q-49 0 -80.5 32t-31.5 75q0 44 31.5 77.5t80.5 33.5q45 0 79.5 -29.5t34.5 -80.5q0 -50 -33.5 -79t-80.5 -29z" />
    <glyph glyph-name="afii10099" unicode="&#x452;" horiz-adv-x="1080" 
d="M135 0v1122h-180v152h180v112h228v-112h402v-152h-402v-305q24 71 106 126t189 55q126 0 203 -67t99 -191.5t22 -435.5t-33 -425.5t-122.5 -167t-229.5 -52.5l-19 172q105 4 144 85.5t39 365.5q0 211 -11 326t-58 155t-106 40q-86 0 -154.5 -75t-68.5 -209v-519h-228z
" />
    <glyph glyph-name="afii10100" unicode="&#x453;" horiz-adv-x="762" 
d="M136 0v1010h626v-177h-398v-833h-228zM628 1496l66 -150l-417 -176l-42 107z" />
    <glyph glyph-name="afii10101" unicode="&#x454;" horiz-adv-x="1023" 
d="M709 599v-165h-394q0 -132 67.5 -200t172.5 -68q172 0 226 151l209 -40q-102 -298 -430 -298q-229 0 -358.5 139t-129.5 390q0 227 123 375t354 148q321 0 426 -282l-213 -42q-47 137 -209 137q-217 0 -238 -245h394z" />
    <glyph glyph-name="afii10102" unicode="&#x455;" horiz-adv-x="930" 
d="M14 232l214 41q49 -123 216 -123q212 0 212 125q0 40 -33 66t-78 35l-184 35q-306 59 -306 299q0 134 97 227.5t289 93.5q320 0 391 -235l-203 -41q-32 114 -182 114q-182 0 -182 -114q0 -79 147 -109l217 -45q253 -52 253 -290q0 -167 -130 -249.5t-309 -82.5
q-155 0 -274 62.5t-155 190.5z" />
    <glyph glyph-name="afii10103" unicode="&#x456;" horiz-adv-x="501" 
d="M364 1128h-228v237h228v-237zM364 0h-228v1010h228v-1010z" />
    <glyph glyph-name="afii10104" unicode="&#x457;" horiz-adv-x="501" 
d="M364 0h-228v1010h228v-1010zM81 1188q-48 0 -79.5 31.5t-31.5 75.5t31 77.5t80 33.5q46 0 80 -29.5t34 -80.5q0 -50 -33.5 -79t-80.5 -29zM416 1188q-49 0 -80.5 32t-31.5 75q0 44 31.5 77.5t80.5 33.5q45 0 79.5 -29.5t34.5 -80.5q0 -50 -33.5 -79t-80.5 -29z" />
    <glyph glyph-name="afii10105" unicode="&#x458;" horiz-adv-x="501" 
d="M364 1128h-228v237h228v-237zM364 1010v-994q0 -378 -347 -378q-53 0 -117 12v193q43 -5 73 -5q95 0 129 36t34 142v994h228z" />
    <glyph glyph-name="afii10106" unicode="&#x459;" horiz-adv-x="1364" 
d="M677 641h327q180 0 257.5 -96t77.5 -228q0 -153 -88.5 -235t-246.5 -82h-401l-173 833l-255 -833h-185l323 1010h269zM787 177h175q152 0 152 143q0 155 -152 155h-245z" />
    <glyph glyph-name="afii10107" unicode="&#x45a;" horiz-adv-x="1602" 
d="M960 621h271q109 0 172.5 -25t113 -100t49.5 -180q0 -151 -88 -233.5t-247 -82.5h-499v444h-367v-444h-228v1010h228v-389h367v389h228v-389zM960 177h230q151 0 151 141q0 142 -151 142h-230v-283z" />
    <glyph glyph-name="afii10108" unicode="&#x45b;" horiz-adv-x="1089" 
d="M135 1274v112h228v-112h395v-152h-395v-305q104 181 299 181q88 0 156.5 -33.5t106 -88t49.5 -103.5t12 -178v-595h-228v573q0 86 -10.5 127t-52.5 72t-95 31q-93 0 -165 -75.5t-72 -208.5v-519h-228v1122h-180v152h180z" />
    <glyph glyph-name="afii10109" unicode="&#x45c;" horiz-adv-x="1028" 
d="M703 660l352 -660h-245l-265 488l-180 -190v-298h-228v1010h228v-300q0 -97 -7 -173q50 66 95 113l339 360h224zM770 1493l66 -150l-417 -176l-42 107z" />
    <glyph glyph-name="afii10110" unicode="&#x45e;" horiz-adv-x="905" 
d="M891 1010l-393 -1150q-36 -106 -98.5 -164.5t-176.5 -58.5q-45 0 -131 7v181l109 -2q72 0 106.5 23.5t54.5 83.5t20 70q0 6 -21 62l-347 948h239l245 -666l211 666h182zM168 1455h131q18 -132 175 -132q152 0 170 132h131q-5 -115 -88 -194.5t-218 -79.5q-129 0 -213 75
t-88 199z" />
    <glyph glyph-name="afii10193" unicode="&#x45f;" horiz-adv-x="1095" 
d="M136 0v1010h228v-833h366v833h228v-1010h-312l-23 -232h-150l-23 232h-314z" />
    <glyph glyph-name="afii10050" unicode="&#x490;" horiz-adv-x="932" 
d="M932 1616v-462h-536v-1154h-246v1365h581v251h201z" />
    <glyph glyph-name="afii10098" unicode="&#x491;" horiz-adv-x="762" 
d="M586 1010v216h176v-393h-398v-833h-228v1010h450z" />
    <glyph glyph-name="Wgrave" unicode="&#x1e80;" horiz-adv-x="1809" 
d="M1789 1365l-365 -1365h-258l-272 1004l-247 -1004h-253l-373 1365h261l264 -995l246 995h249l272 -995l259 995h217zM747 1800l393 -219l-42 -107l-417 176z" />
    <glyph glyph-name="wgrave" unicode="&#x1e81;" horiz-adv-x="1427" 
d="M1406 1010l-296 -1010h-205l-182 708l-181 -708h-211l-311 1010h242l199 -679l174 679h207l177 -679l195 679h192zM577 1487l393 -219l-42 -107l-417 176z" />
    <glyph glyph-name="Wacute" unicode="&#x1e82;" horiz-adv-x="1809" 
d="M1789 1365l-365 -1365h-258l-272 1004l-247 -1004h-253l-373 1365h261l264 -995l246 995h249l272 -995l259 995h217zM1088 1800l66 -150l-417 -176l-42 107z" />
    <glyph glyph-name="wacute" unicode="&#x1e83;" horiz-adv-x="1427" 
d="M1406 1010l-296 -1010h-205l-182 708l-181 -708h-211l-311 1010h242l199 -679l174 679h207l177 -679l195 679h192zM912 1487l66 -150l-417 -176l-42 107z" />
    <glyph glyph-name="Wdieresis" unicode="&#x1e84;" horiz-adv-x="1809" 
d="M1789 1365l-365 -1365h-258l-272 1004l-247 -1004h-253l-373 1365h261l264 -995l246 995h249l272 -995l259 995h217zM736 1512q-48 0 -79.5 31.5t-31.5 75.5t31 77.5t80 33.5q46 0 80 -29.5t34 -80.5q0 -50 -33.5 -79t-80.5 -29zM1071 1512q-49 0 -80.5 32t-31.5 75
q0 44 31.5 77.5t80.5 33.5q45 0 79.5 -29.5t34.5 -80.5q0 -50 -33.5 -79t-80.5 -29z" />
    <glyph glyph-name="wdieresis" unicode="&#x1e85;" horiz-adv-x="1427" 
d="M1406 1010l-296 -1010h-205l-182 708l-181 -708h-211l-311 1010h242l199 -679l174 679h207l177 -679l195 679h192zM571 1188q-48 0 -79.5 31.5t-31.5 75.5t31 77.5t80 33.5q46 0 80 -29.5t34 -80.5q0 -50 -33.5 -79t-80.5 -29zM906 1188q-49 0 -80.5 32t-31.5 75
q0 44 31.5 77.5t80.5 33.5q45 0 79.5 -29.5t34.5 -80.5q0 -50 -33.5 -79t-80.5 -29z" />
    <glyph glyph-name="Ygrave" unicode="&#x1ef2;" horiz-adv-x="1113" 
d="M699 0h-261v576l-465 789h298l324 -563l310 563h236l-442 -789v-576zM400 1800l393 -219l-42 -107l-417 176z" />
    <glyph glyph-name="ygrave" unicode="&#x1ef3;" horiz-adv-x="905" 
d="M891 1010l-393 -1150q-36 -106 -98.5 -164.5t-176.5 -58.5q-45 0 -131 7v181l109 -2q72 0 106.5 23.5t54.5 83.5t20 70q0 6 -21 62l-347 948h239l245 -666l211 666h182zM317 1487l393 -219l-42 -107l-417 176z" />
    <glyph glyph-name="endash" unicode="&#x2013;" horiz-adv-x="1201" 
d="M1015 612v-189h-829v189h829z" />
    <glyph glyph-name="emdash" unicode="&#x2014;" horiz-adv-x="1365" 
d="M1436 614v-185h-1507v185h1507z" />
    <glyph glyph-name="afii00208" unicode="&#x2015;" horiz-adv-x="1365" 
d="M1436 614v-185h-1507v185h1507z" />
    <glyph glyph-name="underscoredbl" unicode="&#x2017;" horiz-adv-x="1024" 
d="M0 -101h1024v-144h-1024v144zM0 -341h1024v-144h-1024v144z" />
    <glyph glyph-name="quoteleft" unicode="&#x2018;" horiz-adv-x="493" 
d="M133 872v226l152 267h75l-110 -267h110v-226h-227z" />
    <glyph glyph-name="quoteright" unicode="&#x2019;" horiz-adv-x="493" 
d="M360 1365v-225l-153 -268h-74l110 268h-110v225h227z" />
    <glyph glyph-name="quotesinglbase" unicode="&#x201a;" horiz-adv-x="493" 
d="M360 225v-225l-153 -269h-74l110 269h-110v225h227z" />
    <glyph glyph-name="quotereversed" unicode="&#x201b;" horiz-adv-x="493" 
d="M133 1365h227v-225h-110l110 -268h-75l-152 268v225z" />
    <glyph glyph-name="quotedblleft" unicode="&#x201c;" horiz-adv-x="769" 
d="M130 871v225l150 269h86l-115 -269h96v-225h-217zM418 871v225l149 269h72l-105 -269h105v-225h-221z" />
    <glyph glyph-name="quotedblright" unicode="&#x201d;" horiz-adv-x="769" 
d="M639 1365v-226l-149 -268h-85l114 268h-95v226h215zM351 1365v-226l-148 -268h-73l106 268h-106v226h221z" />
    <glyph glyph-name="quotedblbase" unicode="&#x201e;" horiz-adv-x="769" 
d="M639 227v-227l-149 -269h-85l114 269h-95v227h215zM351 227v-227l-148 -269h-73l106 269h-106v227h221z" />
    <glyph glyph-name="dagger" unicode="&#x2020;" horiz-adv-x="1201" 
d="M125 801v188h366v376h218v-376h366v-188h-366v-1142h-218v1142h-366z" />
    <glyph glyph-name="daggerdbl" unicode="&#x2021;" horiz-adv-x="1201" 
d="M125 801v188h366v376h218v-376h366v-188h-366v-558h366v-188h-366v-396h-218v396h-366v188h366v558h-366z" />
    <glyph glyph-name="bullet" unicode="&#x2022;" horiz-adv-x="1365" 
d="M964 696q0 -117 -82.5 -201.5t-198.5 -84.5q-119 0 -200.5 84.5t-81.5 201.5q0 118 82.5 202t199.5 84q116 0 198.5 -84t82.5 -202z" />
    <glyph glyph-name="ellipsis" unicode="&#x2026;" horiz-adv-x="1518" 
d="M377 262v-262h-247v262h247zM882 262v-262h-245v262h245zM1389 262v-262h-247v262h247z" />
    <glyph glyph-name="perthousand" unicode="&#x2030;" horiz-adv-x="2303" 
d="M382 617q-144 0 -230.5 112.5t-86.5 274.5q0 159 87 266.5t233 107.5q163 0 241.5 -113t78.5 -258q0 -180 -94 -285t-229 -105zM383 765q138 0 138 240q0 228 -133 228q-135 0 -135 -227q0 -241 130 -241zM1289 1365l-845 -1365h-151l848 1365h148zM1189 -12
q-135 0 -223.5 104.5t-88.5 263.5q0 183 98.5 288.5t226.5 105.5q121 0 217 -98t96 -296q0 -166 -92.5 -267t-233.5 -101zM1197 133q71 0 103.5 68.5t32.5 157.5q0 129 -31.5 184.5t-96.5 55.5q-142 0 -142 -233t134 -233zM1912 -12q-134 0 -222.5 104.5t-88.5 263.5
q0 183 98 288.5t227 105.5q120 0 216.5 -98t96.5 -296q0 -166 -93 -267t-234 -101zM1920 133q71 0 104 68t33 158q0 141 -34.5 190.5t-94.5 49.5q-143 0 -143 -234q0 -232 135 -232z" />
    <glyph glyph-name="minute" unicode="&#x2032;" horiz-adv-x="438" 
d="M212 817h-157l158 548h224z" />
    <glyph glyph-name="second" unicode="&#x2033;" horiz-adv-x="775" 
d="M199 817h-157l158 548h224zM604 817h-157l158 548h224z" />
    <glyph glyph-name="guilsinglleft" unicode="&#x2039;" horiz-adv-x="418" 
d="M329 818l-94 -293l94 -282h-94l-160 282l160 293h94z" />
    <glyph glyph-name="guilsinglright" unicode="&#x203a;" horiz-adv-x="418" 
d="M89 818h94l160 -293l-160 -282h-94l94 282z" />
    <glyph glyph-name="exclamdbl" unicode="&#x203c;" horiz-adv-x="1024" 
d="M384 1365v-364l-64 -595h-122l-64 592v367h250zM889 1365v-364l-64 -595h-122l-63 592v367h249zM388 277v-277h-258v277h258zM894 277v-277h-258v277h258z" />
    <glyph glyph-name="radicalex" unicode="&#x203e;" horiz-adv-x="1135" 
d="M-42 1869h1219v-74h-1219v74z" />
    <glyph glyph-name="fraction1" unicode="&#x2044;" horiz-adv-x="218" 
d="M-379 0l843 1365h133l-843 -1365h-133z" />
    <glyph glyph-name="foursuperior" unicode="&#x2074;" horiz-adv-x="792" 
d="M631 546h-172v183h-382v115l386 538h168v-515h129v-138h-129v-183zM479 1211l-241 -355h232v186q0 62 9 169z" />
    <glyph glyph-name="nsuperior" unicode="&#x207f;" horiz-adv-x="732" 
d="M637 546h-164v379q0 112 -87 112q-52 0 -89.5 -44.5t-37.5 -133.5v-313h-164v610h151l4 -95q58 81 101.5 94t83.5 13q78 0 140 -52t62 -178v-392z" />
    <glyph glyph-name="franc" unicode="&#x20a3;" horiz-adv-x="1040" 
d="M151 204h-122v191h122v970h863v-211h-611v-373h481v-205h-481v-181h244v-191h-244v-204h-252v204z" />
    <glyph glyph-name="afii08941" unicode="&#x20a4;" horiz-adv-x="1201" 
d="M140 446v151h161l-14 123h-147v150h128q-8 64 -8 101q0 178 114.5 296.5t297.5 118.5q271 0 393 -249l-194 -90q-47 153 -189 153q-85 0 -130 -56t-45 -145q0 -38 13 -129h267v-150h-250q4 -50 4 -123h246v-151h-263q-25 -122 -137 -219h261q203 0 267.5 49.5t73.5 143.5
l216 -108q-41 -112 -106 -182t-144 -100t-218 -30h-762v227q118 2 175 19.5t102.5 75.5t55.5 124h-168z" />
    <glyph glyph-name="peseta" unicode="&#x20a7;" horiz-adv-x="2095" 
d="M396 0h-246v1365h491q130 0 230 -37.5t170 -137.5t70 -230q0 -187 -125.5 -303t-316.5 -116h-273v-541zM396 752h223q114 0 174 56t60 149q0 75 -52 139.5t-204 64.5h-201v-409zM1431 119v-117q-73 -15 -111 -15q-92 0 -140 47.5t-48 155.5v301h-78v119h88l13 154l137 12
v-166h127v-119h-127v-284q0 -40 13 -64.5t80 -24.5q19 0 46 1zM1491 149l153 27q29 -74 128 -74q120 0 120 67q0 42 -59 53l-115 20q-200 37 -200 184q0 82 64 139t187 57q208 0 257 -150l-147 -28q-18 68 -106 68q-102 0 -102 -57q0 -44 81 -60l136 -27q167 -32 167 -177
q0 -102 -84.5 -152.5t-200.5 -50.5q-223 0 -279 161z" />
    <glyph glyph-name="Euro" unicode="&#x20ac;" horiz-adv-x="1201" 
d="M1149 420q-31 -221 -164 -330.5t-334 -109.5q-232 0 -361.5 148.5t-162.5 373.5h-113v123h101q-2 19 -2 57q0 47 2 66h-101v122h111q36 254 192.5 385t329.5 131q203 0 336 -110t166 -313l-229 -25q-48 260 -271 260q-94 0 -174 -80t-102 -248h309v-122h-320l-2 -62
l2 -61h320v-123h-309q26 -170 112.5 -248t184.5 -78q96 0 167.5 76t82.5 192z" />
    <glyph glyph-name="afii61248" unicode="&#x2105;" horiz-adv-x="1876" 
d="M562 953l146 -14q-60 -253 -292 -253q-148 0 -228 102t-80 249q0 153 87 252t233 99q236 0 280 -237l-146 -19q-17 124 -126 124q-80 0 -115.5 -66t-35.5 -158q0 -206 141 -206q104 0 136 127zM427 0l843 1365h133l-842 -1365h-134zM1428 -23q-160 0 -243 108t-83 246
q0 149 92.5 248.5t243.5 99.5q145 0 237.5 -97.5t92.5 -251.5q0 -159 -96.5 -256t-243.5 -97zM1433 109q157 0 157 223q0 216 -153 216q-158 0 -158 -219q0 -220 154 -220z" />
    <glyph glyph-name="afii61289" unicode="&#x2113;" horiz-adv-x="1201" 
d="M622 547q-59 -312 -59 -384q0 -63 33 -63q43 0 89 102q18 40 43 40q33 0 33 -39q0 -73 -68.5 -152.5t-152.5 -79.5q-153 0 -153 244q0 66 8 166q-63 -61 -77 -61t-25.5 14t-11.5 31q0 26 33 59q43 43 96 107q64 358 167 607t253 249q69 0 110 -50.5t41 -133.5
q0 -296 -359 -656zM651 717q101 113 161 241t60 228q0 83 -40 83q-85 0 -181 -552z" />
    <glyph glyph-name="afii61352" unicode="&#x2116;" horiz-adv-x="2048" 
d="M1181 0h-225l-534 872q-10 16 -37 74q-12 25 -37 74v-1020h-198v1365h272l478 -804q6 -10 87 -163v967h194v-1365zM1627 372q-145 0 -228.5 98t-83.5 237q0 142 88.5 236.5t234.5 94.5q142 0 228.5 -94.5t86.5 -236.5q0 -150 -91.5 -242.5t-234.5 -92.5zM1633 512
q132 0 132 196q0 190 -128 190q-134 0 -134 -193t130 -193zM1938 188v-188h-594v188h594z" />
    <glyph glyph-name="trademark" unicode="&#x2122;" horiz-adv-x="1591" 
d="M401 587h-180v646h-218v132h616v-132h-218v-646zM1512 587h-172v611l-207 -611h-95l-209 611v-611h-142v778h250l163 -467l160 467h252v-778z" />
    <glyph glyph-name="Ohm" unicode="&#x2126;" horiz-adv-x="1573" 
d="M481 160q-346 201 -346 651q0 297 177 494.5t481 197.5q298 0 472.5 -200t174.5 -500q0 -416 -344 -643l364 7v-167h-575v179q165 75 256 240.5t91 357.5q0 232 -112 397.5t-329 165.5q-212 0 -328 -158t-116 -397q0 -223 93 -381.5t249 -224.5v-179h-577v167z" />
    <glyph glyph-name="estimated" unicode="&#x212e;" horiz-adv-x="1229" 
d="M321 531v-371q120 -121 298 -121q254 0 395 246l72 -43q-118 -170 -231.5 -223t-235.5 -53q-232 0 -380.5 158.5t-148.5 406.5q0 252 149.5 408.5t379.5 156.5q214 0 366 -142t163 -423h-827zM917 605v297q-124 121 -300 121q-175 0 -296 -122v-296h596z" />
    <glyph glyph-name="oneeighth" unicode="&#x215b;" horiz-adv-x="1802" 
d="M678 546h-617v133h232v487q-122 -99 -235 -141v160q205 66 291 197h114v-703h215v-133zM379 0l843 1365h147l-843 -1365h-147zM1239 405q-141 65 -141 193q0 101 85.5 167t239.5 66q139 0 224 -58.5t85 -156.5q0 -116 -143 -175q176 -73 176 -211q0 -104 -94.5 -173
t-257.5 -69q-164 0 -254.5 61.5t-90.5 161.5q0 133 171 194zM1464 490q114 44 114 121q0 51 -48 78.5t-106 27.5q-62 0 -108.5 -24.5t-46.5 -72.5q0 -52 54 -78t141 -52zM1363 349q-132 -48 -132 -130q0 -45 49.5 -78t139.5 -33q79 0 126 28t47 73q0 38 -39.5 67t-190.5 73z
" />
    <glyph glyph-name="threeeighths" unicode="&#x215c;" horiz-adv-x="1802" 
d="M271 903v128h86q67 0 113 27.5t46 82.5q0 107 -137 107q-125 0 -169 -117l-155 26q24 99 113.5 160t214.5 61q124 0 212 -60.5t88 -161.5q0 -132 -129 -183q156 -55 156 -195q0 -106 -91 -175t-242 -69q-139 0 -230.5 67t-116.5 160l160 36q43 -136 184 -136
q76 0 119.5 34.5t43.5 82.5q0 50 -38 87.5t-116 37.5h-112zM406 0l843 1365h147l-843 -1365h-147zM1240 405q-142 65 -142 193q0 101 85.5 167t239.5 66q139 0 224 -59t85 -156q0 -116 -143 -175q176 -73 176 -211q0 -104 -94.5 -173t-257.5 -69q-164 0 -254 61.5t-90 161.5
q0 133 171 194zM1465 490q113 44 113 121q0 52 -48 79t-106 27q-62 0 -108.5 -24.5t-46.5 -72.5q0 -52 54 -78t142 -52zM1364 349q-133 -47 -133 -130q0 -45 49.5 -78t140.5 -33q78 0 125 28t47 73q0 38 -39.5 67t-189.5 73z" />
    <glyph glyph-name="fiveeighths" unicode="&#x215d;" horiz-adv-x="1802" 
d="M111 1365h548l-15 -139h-407l-21 -206q72 79 193 79q128 0 215 -82t87 -195q0 -118 -92 -203t-251 -85q-285 0 -346 233l162 22q42 -124 178 -124q79 0 123 45.5t44 111.5q0 65 -44 109t-112 44q-108 0 -163 -94l-150 27zM407 0l843 1365h147l-843 -1365h-147zM1233 405
q-141 65 -141 193q0 101 85.5 167t239.5 66q140 0 224.5 -59t84.5 -156q0 -117 -143 -175q176 -73 176 -211q0 -104 -94.5 -173t-257.5 -69q-164 0 -254.5 61.5t-90.5 161.5q0 133 171 194zM1458 490q114 44 114 121q0 51 -48 78.5t-107 27.5q-61 0 -107.5 -24.5
t-46.5 -72.5q0 -52 54 -78t141 -52zM1357 349q-132 -48 -132 -130q0 -45 49.5 -78t139.5 -33q79 0 126 28t47 73q0 38 -40 67t-190 73z" />
    <glyph glyph-name="seveneighths" unicode="&#x215e;" horiz-adv-x="1802" 
d="M67 1365h623v-113q-159 -191 -211 -333.5t-63 -372.5h-190q20 393 309 680h-483zM311 0l842 1365h147l-842 -1365h-147zM1212 405q-141 65 -141 193q0 101 85 167t239 66q141 0 225.5 -59t84.5 -156q0 -116 -143 -175q176 -73 176 -211q0 -105 -95 -173.5t-257 -68.5
q-164 0 -254.5 61.5t-90.5 161.5q0 133 171 194zM1437 490q113 44 113 121q0 51 -47 78.5t-107 27.5q-61 0 -108 -24.5t-47 -72.5q0 -52 54.5 -78t141.5 -52zM1336 349q-133 -48 -133 -130q0 -45 49.5 -78t140.5 -33q79 0 126 28t47 72q0 39 -39.5 68t-190.5 73z" />
    <glyph glyph-name="arrowleft" unicode="&#x2190;" horiz-adv-x="2048" 
d="M492 876h76q-81 -170 -195 -309h1595v-101h-1595q102 -102 198 -309h-78q-223 253 -414 341v45q177 71 413 333z" />
    <glyph glyph-name="arrowup" unicode="&#x2191;" horiz-adv-x="1024" 
d="M153 926q262 237 333 413h46q87 -191 340 -414v-77q-207 95 -309 197v-1474h-101v1474q-139 -114 -309 -195v76z" />
    <glyph glyph-name="arrowright" unicode="&#x2192;" horiz-adv-x="2048" 
d="M1555 876q237 -262 413 -333v-45q-191 -88 -414 -341h-77q95 207 197 309h-1595v101h1595q-114 139 -195 309h76z" />
    <glyph glyph-name="arrowdown" unicode="&#x2193;" horiz-adv-x="1024" 
d="M153 -16v76q170 -81 309 -195v1474h101v-1474q102 102 309 197v-77q-253 -223 -340 -414h-46q-71 176 -333 413z" />
    <glyph glyph-name="arrowboth" unicode="&#x2194;" horiz-adv-x="2048" 
d="M1968 540v-45q-181 -79 -406 -337h-80q69 172 194 311h-1305q125 -139 194 -311h-80q-224 258 -406 337v45q182 79 406 338h80q-69 -172 -194 -311h1305q-125 139 -194 311h80q225 -259 406 -338z" />
    <glyph glyph-name="arrowupdn" unicode="&#x2195;" horiz-adv-x="1024" 
d="M489 1463h45q79 -182 337 -407v-80q-171 69 -311 195v-1306q140 126 311 194v-79q-258 -225 -337 -407h-45q-79 182 -337 407v79q171 -68 311 -194v1306q-140 -126 -311 -195v80q258 225 337 407z" />
    <glyph glyph-name="arrowupdnbse" unicode="&#x21a8;" horiz-adv-x="1024" 
d="M489 1463h45q79 -182 337 -407v-80q-171 69 -311 195v-1306q140 126 311 194v-79q-258 -225 -337 -407h-45q-79 182 -337 407v79q171 -68 311 -194v1306q-140 -126 -311 -195v80q258 225 337 407zM154 -522h717v-98h-717v98z" />
    <glyph glyph-name="partialdiff" unicode="&#x2202;" horiz-adv-x="1012" 
d="M426 1138l-135 60q64 150 163.5 221.5t196.5 71.5q148 0 235 -139.5t87 -425.5q0 -437 -181.5 -695.5t-429.5 -258.5q-135 0 -220.5 92t-85.5 256q0 258 197 428t605 176q-2 250 -57 344.5t-148 94.5q-143 0 -227 -225zM854 796q-246 -12 -362 -70t-186 -180.5
t-70 -242.5q0 -88 53.5 -139.5t116.5 -51.5q144 0 279 169.5t169 514.5z" />
    <glyph glyph-name="uni2206" unicode="&#x2206;" horiz-adv-x="1253" 
d="M1226 0h-1200l628 1387zM990 82l-399 967l-440 -967h839z" />
    <glyph glyph-name="product" unicode="&#x220f;" horiz-adv-x="1685" 
d="M162 1536h1362v-1962h-191v1788h-978v-1788h-193v1962z" />
    <glyph glyph-name="summation" unicode="&#x2211;" horiz-adv-x="1460" 
d="M139 1536h1237v-164h-988l607 -796l-646 -841h1037v-161h-1264v187l620 808l-603 791v176z" />
    <glyph glyph-name="minus" unicode="&#x2212;" horiz-adv-x="1201" 
d="M1107 785v-191h-1012v191h1012z" />
    <glyph glyph-name="fraction" unicode="&#x2215;" horiz-adv-x="218" 
d="M-379 0l843 1365h133l-843 -1365h-133z" />
    <glyph glyph-name="periodcentered" unicode="&#x2219;" horiz-adv-x="247" 
d="M247 651v-262h-247v262h247z" />
    <glyph glyph-name="radical" unicode="&#x221a;" horiz-adv-x="1124" 
d="M1047 1869h74l-312 -1947l-496 1021l-198 -91l-34 64l301 151l405 -823z" />
    <glyph glyph-name="infinity" unicode="&#x221e;" horiz-adv-x="1460" 
d="M687 831q117 150 187 191.5t146 41.5q110 0 199 -78.5t89 -242.5q0 -187 -93 -261.5t-195 -74.5q-78 0 -148 43t-185 190q-136 -172 -288 -172q-112 0 -179.5 83t-67.5 184q0 102 67.5 184.5t179.5 82.5q152 0 288 -171zM756 737q47 -76 114 -147t147 -71
q69 0 124.5 50.5t55.5 163.5q0 104 -52 161t-131 57q-56 0 -108 -40t-150 -174zM618 735q-122 158 -220 158q-61 0 -98 -43.5t-37 -110.5q0 -71 39.5 -114t97.5 -43q100 0 218 153z" />
    <glyph glyph-name="orthogonal" unicode="&#x221f;" horiz-adv-x="2005" 
d="M362 1279h100v-1179h1181v-100h-1281v1279z" />
    <glyph glyph-name="intersection" unicode="&#x2229;" horiz-adv-x="1472" 
d="M302 0h-110v473q0 265 13 373t76 210t188 171.5t267 69.5q144 0 268.5 -70t186 -167.5t76 -206.5t14.5 -380v-473h-109v480q0 232 -12 333t-60 182.5t-149.5 138.5t-214.5 57q-114 0 -215.5 -58t-148 -137t-58.5 -181.5t-12 -334.5v-480z" />
    <glyph glyph-name="integral" unicode="&#x222b;" horiz-adv-x="561" 
d="M435 1863q54 0 89.5 -34.5t35.5 -72.5q0 -44 -25.5 -74t-66.5 -30q-35 0 -76 36q-23 20 -40 20q-40 0 -40 -64q0 -42 9 -145q37 -410 37 -665q0 -67 -12 -470t-77 -493.5t-151 -90.5q-49 0 -83.5 32.5t-34.5 88.5q0 43 24.5 71t65.5 28q40 0 70 -33q28 -31 48 -31
q39 0 39 61q0 42 -9 120q-37 316 -37 831q0 589 56 752t178 163z" />
    <glyph glyph-name="approxequal" unicode="&#x2248;" horiz-adv-x="1201" 
d="M233 699l-129 84q66 158 136 214.5t166 56.5q70 0 217 -58q134 -53 182 -53q97 0 159 114l133 -77q-113 -261 -319 -261q-57 0 -246 72q-101 38 -143 38q-94 0 -156 -130zM233 304l-129 84q67 161 137 216t165 55q70 0 217 -58q134 -53 183 -53q96 0 158 115l133 -78
q-114 -260 -320 -260q-56 0 -245 71q-101 39 -143 39q-94 0 -156 -131z" />
    <glyph glyph-name="notequal" unicode="&#x2260;" horiz-adv-x="1201" 
d="M631 946l112 224l149 -74l-75 -150h227v-208h-322l-75 -152h398v-209h-493l-103 -206l-149 73l66 133h-209v209h304l76 152h-380v208h474z" />
    <glyph glyph-name="equivalence" unicode="&#x2261;" horiz-adv-x="1201" 
d="M187 1112h887v-208h-887v208zM187 793h887v-209h-887v209zM187 474h887v-209h-887v209z" />
    <glyph glyph-name="lessequal" unicode="&#x2264;" horiz-adv-x="1201" 
d="M1024 1333v-217l-641 -300l641 -299v-217l-887 419v195zM1024 241v-209h-887v209h887z" />
    <glyph glyph-name="greaterequal" unicode="&#x2265;" horiz-adv-x="1201" 
d="M177 300v217l642 300l-641 299l-1 217l887 -419v-196zM177 32v209h887v-209h-887z" />
    <glyph glyph-name="house" unicode="&#x2302;" horiz-adv-x="1229" 
d="M153 0v634l461 519l462 -519v-634h-923zM234 81h761v519l-381 427l-380 -427v-519z" />
    <glyph glyph-name="revlogicalnot" unicode="&#x2310;" horiz-adv-x="1201" 
d="M389 0v338h655v208h-887v-546h232z" />
    <glyph glyph-name="integraltp" unicode="&#x2320;" horiz-adv-x="1237" 
d="M691 -515h-145v1811q0 219 89.5 330t202.5 111q67 0 102.5 -32.5t35.5 -76.5q0 -40 -25.5 -66t-62.5 -26q-30 0 -57 15q-18 10 -41.5 46.5t-46.5 36.5q-17 0 -31 -12q-10 -8 -14 -27q-7 -33 -7 -139v-1971z" />
    <glyph glyph-name="integralbt" unicode="&#x2321;" horiz-adv-x="1237" 
d="M546 1737h145v-1811q0 -219 -89.5 -330t-202.5 -111q-67 0 -102.5 32.5t-35.5 76.5q0 40 25.5 66t61.5 26q31 0 59 -16q18 -10 41 -46t46 -36q17 0 31 11q10 8 14 29q7 32 7 138v1971z" />
    <glyph glyph-name="SF100000" unicode="&#x2500;" 
d="M1473 534h-1496v175h1496v-175z" />
    <glyph glyph-name="SF110000" unicode="&#x2502;" 
d="M638 -621v2485h175v-2485h-175z" />
    <glyph glyph-name="SF010000" unicode="&#x250c;" 
d="M1474 709v-175h-661v-1155h-175v1330h836z" />
    <glyph glyph-name="SF030000" unicode="&#x2510;" 
d="M637 534h-660v175h835v-1330h-175v1155z" />
    <glyph glyph-name="SF020000" unicode="&#x2514;" 
d="M638 534v1330h175v-1155h661v-175h-836z" />
    <glyph glyph-name="SF040000" unicode="&#x2518;" 
d="M812 534h-835v175h660v1155h175v-1330z" />
    <glyph glyph-name="SF080000" unicode="&#x251c;" 
d="M638 -621v2485h175v-1155h661v-175h-661v-1155h-175z" />
    <glyph glyph-name="SF090000" unicode="&#x2524;" 
d="M637 -621v1155h-660v175h660v1155h175v-2485h-175z" />
    <glyph glyph-name="SF060000" unicode="&#x252c;" 
d="M637 534h-660v175h1496v-175h-661v-1155h-175v1155z" />
    <glyph glyph-name="SF070000" unicode="&#x2534;" 
d="M1473 534h-1496v175h660v1155h175v-1155h661v-175z" />
    <glyph glyph-name="SF050000" unicode="&#x253c;" 
d="M637 534h-660v175h660v1155h175v-1155h661v-175h-661v-1155h-175v1155z" />
    <glyph glyph-name="SF430000" unicode="&#x2550;" 
d="M1473 724h-1496v175h1496v-175zM1473 344h-1496v175h1496v-175z" />
    <glyph glyph-name="SF240000" unicode="&#x2551;" 
d="M829 -621v2485h175v-2485h-175zM448 -621v2485h175v-2485h-175z" />
    <glyph glyph-name="SF510000" unicode="&#x2552;" 
d="M638 -621v1520h836v-175h-661v-205h661v-175h-661v-965h-175z" />
    <glyph glyph-name="SF520000" unicode="&#x2553;" 
d="M448 -621v1330h1027v-175h-471v-1155h-175v1155h-206v-1155h-175z" />
    <glyph glyph-name="SF390000" unicode="&#x2554;" 
d="M623 -621h-175v1520h1026v-175h-851v-1345zM1004 344v-965h-175v1140h645v-175h-470z" />
    <glyph glyph-name="SF220000" unicode="&#x2555;" 
d="M637 344h-660v175h660v205h-660v175h835v-1520h-175v965z" />
    <glyph glyph-name="SF210000" unicode="&#x2556;" 
d="M448 -621v1155h-471v175h1026v-1330h-175v1155h-206v-1155h-174z" />
    <glyph glyph-name="SF250000" unicode="&#x2557;" 
d="M828 -621v1345h-851v175h1026v-1520h-175zM447 344h-470v175h645v-1140h-175v965z" />
    <glyph glyph-name="SF500000" unicode="&#x2558;" 
d="M638 344v1520h175v-965h661v-175h-661v-205h661v-175h-836z" />
    <glyph glyph-name="SF490000" unicode="&#x2559;" 
d="M1475 534h-1027v1330h175v-1155h206v1155h175v-1155h471v-175z" />
    <glyph glyph-name="SF380000" unicode="&#x255a;" 
d="M623 1864v-1345h850v-175h-1025v1520h175zM1004 899h470v-175h-645v1140h175v-965z" />
    <glyph glyph-name="SF280000" unicode="&#x255b;" 
d="M812 344h-835v175h660v205h-660v175h660v965h175v-1520z" />
    <glyph glyph-name="SF270000" unicode="&#x255c;" 
d="M1003 534h-1026v175h470v1155h175v-1155h206v1155h175v-1330z" />
    <glyph glyph-name="SF260000" unicode="&#x255d;" 
d="M828 1864h175v-1520h-1026v175h851v1345zM447 899v965h175v-1140h-645v175h470z" />
    <glyph glyph-name="SF360000" unicode="&#x255e;" 
d="M638 -621v2485h175v-965h661v-175h-661v-205h661v-175h-661v-965h-175z" />
    <glyph glyph-name="SF370000" unicode="&#x255f;" 
d="M829 -621v2485h175v-1155h470v-175h-470v-1155h-175zM448 -621v2485h175v-2485h-175z" />
    <glyph glyph-name="SF420000" unicode="&#x2560;" 
d="M448 -621v2485h175v-2485h-175zM829 724v1140h175v-965h470v-175h-645zM829 -621v1140h645v-175h-470v-965h-175z" />
    <glyph glyph-name="SF190000" unicode="&#x2561;" 
d="M637 344h-660v175h660v205h-660v175h660v965h175v-2485h-175v965z" />
    <glyph glyph-name="SF200000" unicode="&#x2562;" 
d="M447 -621l1 1155h-471v175h470v1155h175v-2485h-175zM828 -621v2485h175v-2485h-175z" />
    <glyph glyph-name="SF230000" unicode="&#x2563;" 
d="M828 -621v2485h175v-2485h-175zM622 1864v-1140h-645v175h470v965h175zM447 344h-470v175h645v-1140h-175v965z" />
    <glyph glyph-name="SF470000" unicode="&#x2564;" 
d="M1473 724h-1496v175h1496v-175zM637 344h-660v175h1496v-175h-661v-965h-175v965z" />
    <glyph glyph-name="SF480000" unicode="&#x2565;" 
d="M447 -621v1155h-470v175h1496v-175h-470v-1155h-175v1155h-206v-1155h-175z" />
    <glyph glyph-name="SF410000" unicode="&#x2566;" 
d="M1473 724h-1496v175h1496v-175zM447 344h-470v175h645v-1140h-175v965zM828 -621v1140h645v-175h-470v-965h-175z" />
    <glyph glyph-name="SF450000" unicode="&#x2567;" 
d="M1473 724h-1496v175h660v965h175v-965h661v-175zM1473 344h-1496v175h1496v-175z" />
    <glyph glyph-name="SF460000" unicode="&#x2568;" 
d="M1473 534h-1496v175h470v1155h175v-1155h206v1155h175v-1155h470v-175z" />
    <glyph glyph-name="SF400000" unicode="&#x2569;" 
d="M622 724h-645v175h470v965h175v-1140zM1473 724h-645v1140h175v-965h470v-175zM1473 344h-1496v175h1496v-175z" />
    <glyph glyph-name="SF540000" unicode="&#x256a;" 
d="M637 344h-660v175h660v205h-660v175h660v965h175v-965h661v-175h-661v-205h661v-175h-661v-965h-175v965z" />
    <glyph glyph-name="SF530000" unicode="&#x256b;" 
d="M447 -621v1155h-470v175h470v1155h175v-1155h206v1155h175v-1155h470v-175h-470v-1155h-175v1155h-206v-1155h-175z" />
    <glyph glyph-name="SF440000" unicode="&#x256c;" 
d="M1003 899h470v-175h-645v1140h175v-965zM447 899v965h175v-1140h-645v175h470zM447 344h-470v175h645v-1140h-175v965zM1003 344v-965h-175v1140h645v-175h-470z" />
    <glyph glyph-name="upblock" unicode="&#x2580;" 
d="M1473 621h-1496v1243h1496v-1243z" />
    <glyph glyph-name="dnblock" unicode="&#x2584;" 
d="M1473 -621h-1496v1242h1496v-1242z" />
    <glyph glyph-name="block" unicode="&#x2588;" 
d="M-23 -621v2485h1496v-2485h-1496z" />
    <glyph glyph-name="lfblock" unicode="&#x258c;" 
d="M-23 -621v2485h748v-2485h-748z" />
    <glyph glyph-name="rtblock" unicode="&#x2590;" 
d="M726 -621v2485h748v-2485h-748z" />
    <glyph glyph-name="ltshade" unicode="&#x2591;" 
d="M0 1864h121v-125h-121v125zM482 1864h121v-125h-121v125zM965 1864h121v-125h-121v125zM241 1615h121v-125h-121v125zM723 1615h121v-125h-121v125zM1206 1615h121v-125h-121v125zM965 1366h121v-125h-121v125zM482 1366h121v-125h-121v125zM0 1366h121v-125h-121v125z
M1206 1117h121v-125h-121v125zM723 1117h121v-125h-121v125zM241 1117h121v-125h-121v125zM0 867h121v-125h-121v125zM482 867h121v-125h-121v125zM965 867h121v-125h-121v125zM1206 618h121v-125h-121v125zM723 618h121v-125h-121v125zM241 618h121v-125h-121v125zM0 369
h121v-125h-121v125zM482 369h121v-125h-121v125zM965 369h121v-125h-121v125zM241 120h121v-125h-121v125zM723 120h121v-125h-121v125zM1206 120h121v-125h-121v125zM965 -130h121v-125h-121v125zM482 -130h121v-125h-121v125zM0 -130h121v-125h-121v125zM241 -379h121
v-125h-121v125zM723 -379h121v-125h-121v125zM1206 -379h121v-125h-121v125z" />
    <glyph glyph-name="shade" unicode="&#x2592;" 
d="M121 1864h120v-125h-120v125zM362 1864h120v-125h-120v125zM603 1864h121v-125h-121v125zM844 1864h121v-125h-121v125zM1086 1864h120v-125h-120v125zM1327 1864h120v-125h-120v125zM0 1615h121v-125h-121v125zM241 1615h121v-125h-121v125zM482 1615h121v-125h-121v125
zM724 1615h120v-125h-120v125zM965 1615h121v-125h-121v125zM1206 1615h121v-125h-121v125zM121 1366h120v-125h-120v125zM362 1366h120v-125h-120v125zM603 1366h121v-125h-121v125zM844 1366h121v-125h-121v125zM1086 1366h120v-125h-120v125zM1327 1366h120v-125h-120
v125zM241 1116h121v-124h-121v124zM482 1116h121v-124h-121v124zM724 1116h120v-124h-120v124zM965 1116h121v-124h-121v124zM1206 1116h121v-124h-121v124zM0 1116h121v-124h-121v124zM121 867h120v-125h-120v125zM362 867h120v-125h-120v125zM603 867h121v-125h-121v125z
M844 867h121v-125h-121v125zM1086 867h120v-125h-120v125zM1327 867h120v-125h-120v125zM0 618h121v-125h-121v125zM482 618h121v-125h-121v125zM724 618h120v-125h-120v125zM965 618h121v-125h-121v125zM1206 618h121v-125h-121v125zM241 618h121v-125h-121v125zM1327 369
h120v-125h-120v125zM1086 369h120v-125h-120v125zM844 369h121v-125h-121v125zM603 369h121v-125h-121v125zM362 369h120v-125h-120v125zM121 369h120v-125h-120v125zM0 119h121v-124h-121v124zM241 119h121v-124h-121v124zM482 119h121v-124h-121v124zM724 119h120v-124
h-120v124zM965 119h121v-124h-121v124zM1206 119h121v-124h-121v124zM1327 -130h120v-125h-120v125zM1086 -130h120v-125h-120v125zM844 -130h121v-125h-121v125zM603 -130h121v-125h-121v125zM362 -130h120v-125h-120v125zM121 -130h120v-125h-120v125zM0 -379h121v-125
h-121v125zM241 -379h121v-125h-121v125zM482 -379h121v-125h-121v125zM724 -379h120v-125h-120v125zM965 -380l121 1v-125h-121v124zM1206 -379h121v-125h-121v125z" />
    <glyph glyph-name="dkshade" unicode="&#x2593;" 
d="M1447 1490v-374h-120v-124h120v-374h-120v-125h120v-374h-120v-124h120v-374h-120v-125h120v-124h-1447v373h121v125h-121v374h121v125h-121v373h121v125h-121v374h121v125h-121v373h121v125h120v-125h121v125h120v-125h121v125h121v-125h120v125h121v-125h121v125h120
v-125h121v125h120v-249h-120v-125h120zM121 1615v-125h120v125h-120zM362 1615v-125h120v125h-120zM603 1615v-125h121v125h-121zM844 1615v-125h121v125h-121zM1086 1615v-125h120v125h-120zM1327 1366h-121v-125h121v125zM1086 1366h-121v-125h121v125zM844 1366h-120
v-125h120v125zM603 1366h-121v-125h121v125zM362 1366h-121v-125h121v125zM121 1116v-124h120v124h-120zM362 1116v-124h120v124h-120zM603 1116v-124h121v124h-121zM844 1116v-124h121v124h-121zM1086 1116v-124h120v124h-120zM362 867h-121v-125h121v125zM482 867v-125
h121v125h-121zM724 867v-125h120v125h-120zM965 867v-125h121v125h-121zM1206 867v-125h121v125h-121zM121 618v-125h120v125h-120zM603 618v-125h121v125h-121zM482 493v125h-120v-125h120zM844 618v-125h121v125h-121zM1086 618v-125h120v125h-120zM1327 244v125h-121
v-125h121zM1086 244v125h-121v-125h121zM844 244v125h-120v-125h120zM603 244v125h-121v-125h121zM362 244v125h-121v-125h121zM121 119v-124h120v124h-120zM362 119v-124h120v124h-120zM603 119v-124h121v124h-121zM844 119v-124h121v124h-121zM1086 119v-124h120v124h-120
zM1327 -255v125h-121v-125h121zM1086 -255v125h-121v-125h121zM844 -255v125h-120v-125h120zM603 -255v125h-121v-125h121zM362 -255v125h-121v-125h121zM121 -379v-125h120v125h-120zM362 -379v-125h120v125h-120zM603 -379v-125h121v125h-121zM844 -379v-125h121v125h-121
zM1086 -379v-125h120v125h-120z" />
    <glyph glyph-name="filledbox" unicode="&#x25a0;" horiz-adv-x="1237" 
d="M146 944h944v-944h-944v944z" />
    <glyph glyph-name="H22073" unicode="&#x25a1;" horiz-adv-x="1237" 
d="M146 944h944v-944h-944v944zM222 868v-792h792v792h-792z" />
    <glyph glyph-name="H18543" unicode="&#x25aa;" horiz-adv-x="727" 
d="M635 948v-543h-543v543h543z" />
    <glyph glyph-name="H18551" unicode="&#x25ab;" horiz-adv-x="727" 
d="M635 948v-543h-543v543h543zM559 872h-391v-391h391v391z" />
    <glyph glyph-name="filledrect" unicode="&#x25ac;" horiz-adv-x="2048" 
d="M0 703h2047v-386h-2047v386z" />
    <glyph glyph-name="triagup" unicode="&#x25b2;" horiz-adv-x="2027" 
d="M304 0l710 1419l710 -1419h-1420z" />
    <glyph glyph-name="triagrt" unicode="&#x25ba;" horiz-adv-x="2027" 
d="M288 1417l1451 -724l-1451 -724v1448z" />
    <glyph glyph-name="triagdn" unicode="&#x25bc;" horiz-adv-x="2027" 
d="M1724 1388l-710 -1419l-710 1419h1420z" />
    <glyph glyph-name="triaglf" unicode="&#x25c4;" horiz-adv-x="2027" 
d="M1739 1417v-1448l-1451 724z" />
    <glyph glyph-name="lozenge" unicode="&#x25ca;" horiz-adv-x="1012" 
d="M549 1422l418 -713l-418 -709h-111l-391 709l391 713h111zM495 1325l-340 -616l340 -615l359 615z" />
    <glyph glyph-name="circle" unicode="&#x25cb;" horiz-adv-x="1237" 
d="M619 1018q110 0 216 -57t165 -163t59 -220q0 -183 -129 -312t-311 -129q-183 0 -312 129t-129 312q0 115 59 220.5t165 162.5t217 57zM619 942q-93 0 -180 -47t-136 -135t-49 -182q0 -151 107 -258t258 -107t257.5 107t106.5 258q0 94 -49 182t-136 135t-179 47z" />
    <glyph glyph-name="H18533" unicode="&#x25cf;" horiz-adv-x="1237" 
d="M1059 578q0 -182 -129.5 -311.5t-310.5 -129.5q-183 0 -312 129t-129 312q0 182 129.5 311t311.5 129q181 0 310.5 -129.5t129.5 -310.5z" />
    <glyph glyph-name="invbullet" unicode="&#x25d8;" horiz-adv-x="1237" 
d="M128 0v980h980v-980h-980zM618 692q-84 0 -143 -59t-59 -143q0 -83 59.5 -142.5t142.5 -59.5q84 0 143 59.5t59 142.5q0 84 -59 143t-143 59z" />
    <glyph glyph-name="invcircle" unicode="&#x25d9;" horiz-adv-x="1237" 
d="M42 0v1155h1155v-1155h-1155zM619 1018q-111 0 -216.5 -57t-164.5 -163t-59 -221q0 -182 129 -311t311 -129q183 0 312 129t129 311q0 115 -59 221t-164.5 163t-217.5 57zM620 942q91 0 178.5 -47t136.5 -134.5t49 -183.5q0 -151 -106.5 -257.5t-257.5 -106.5
q-152 0 -258.5 106.5t-106.5 257.5q0 96 49 183.5t136.5 134.5t179.5 47z" />
    <glyph glyph-name="openbullet" unicode="&#x25e6;" horiz-adv-x="727" 
d="M649 676q0 -118 -83.5 -202t-201.5 -84t-202 84t-84 202t84 202t202 84t201.5 -84t83.5 -202zM574 676q0 87 -62 148.5t-148 61.5t-148 -61.5t-62 -148.5q0 -86 61.5 -148t148.5 -62t148.5 62t61.5 148z" />
    <glyph glyph-name="smileface" unicode="&#x263a;" horiz-adv-x="2048" 
d="M1024 1156q160 0 313 -82.5t239 -236t86 -319.5q0 -165 -84.5 -316.5t-236.5 -236t-317 -84.5q-166 0 -317.5 84.5t-236 236t-84.5 316.5q0 166 85.5 319.5t238.5 236t314 82.5zM1024 1063q-137 0 -267.5 -70.5t-204 -201.5t-73.5 -273q0 -141 72 -270.5t202 -201.5
t271 -72t271 72t202 201.5t72 270.5q0 142 -73.5 273t-204 201.5t-267.5 70.5zM779 731q34 0 57.5 -23.5t23.5 -57.5q0 -33 -23.5 -57t-57.5 -24q-33 0 -57 24t-24 57q0 34 24 57.5t57 23.5zM1268 731q34 0 57.5 -23.5t23.5 -57.5q0 -33 -23.5 -57t-57.5 -24q-33 0 -57 24
t-24 57q0 34 23.5 57.5t57.5 23.5zM730 313l62 36q79 -144 232 -144t231 144l63 -36q-50 -95 -123.5 -145t-170.5 -50q-98 0 -171 50t-123 145z" />
    <glyph glyph-name="invsmileface" unicode="&#x263b;" horiz-adv-x="2048" 
d="M1024 1156q160 0 313 -82.5t239 -236t86 -319.5q0 -165 -84.5 -316.5t-236.5 -236t-317 -84.5q-166 0 -317.5 84.5t-236 236t-84.5 316.5q0 166 85.5 319.5t238.5 236t314 82.5zM779 731q-33 0 -57 -23.5t-24 -57.5q0 -33 24 -57t57 -24q34 0 57.5 24t23.5 57
q0 34 -23.5 57.5t-57.5 23.5zM1268 731q-34 0 -57.5 -23.5t-23.5 -57.5q0 -33 24 -57t57 -24q34 0 57.5 24t23.5 57q0 34 -23.5 57.5t-57.5 23.5zM730 313q50 -95 123 -145t171 -50q97 0 170.5 50t123.5 145l-63 36q-78 -144 -231 -144t-232 144z" />
    <glyph glyph-name="sun" unicode="&#x263c;" horiz-adv-x="1877" 
d="M902 1621h76v-337q102 -7 181.5 -38.5t167.5 -102.5l290 284l52 -53l-286 -286q73 -95 103 -169q38 -96 41 -185h335v-69h-335q-19 -193 -143 -351l285 -291l-57 -50l-283 282q-98 -72 -171 -100.5t-180 -40.5v-337h-76v337q-112 15 -188.5 46t-156.5 92l-294 -278
l-51 51l285 286q-66 84 -100 166t-45 188h-336v69h336q9 106 42 185.5t102 163.5l-284 287l48 57l292 -282q101 70 179.5 100.5t170.5 38.5v337zM937 1211q-129 0 -252 -66t-191.5 -189.5t-68.5 -256.5t67.5 -255t189.5 -190t255 -68t255 68t190 190t68 255t-69 256.5
t-192 189.5t-252 66z" />
    <glyph glyph-name="female" unicode="&#x2640;" horiz-adv-x="1536" 
d="M796 461v-402h459v-59h-459v-439h-59v439h-460v59h460v402q-103 0 -225.5 65.5t-195 191t-72.5 265.5q0 136 69.5 261t193.5 194t261 69q136 0 260.5 -69.5t193.5 -194t69 -260.5q0 -209 -143.5 -360.5t-351.5 -161.5zM767 1451q-118 0 -230.5 -60.5t-175.5 -173.5
t-63 -235q0 -195 137.5 -332.5t331.5 -137.5q195 0 332.5 137.5t137.5 332.5q0 122 -63 235t-175.5 173.5t-231.5 60.5z" />
    <glyph glyph-name="male" unicode="&#x2642;" horiz-adv-x="1536" 
d="M1216 1620l36 -16l163 -666l-57 -15l-142 581l-358 -768q148 -75 224 -202t76 -272q0 -136 -69 -260.5t-193.5 -194t-261.5 -69.5q-136 0 -260.5 69.5t-193.5 194t-69 260.5q0 217 153.5 370t372.5 153q78 0 166 -27l360 771l-537 -265l-24 53zM634 731
q-118 0 -230.5 -60.5t-175.5 -173.5t-63 -235q0 -195 137.5 -332.5t331.5 -137.5q195 0 332.5 137.5t137.5 332.5q0 122 -63 235t-175.5 173.5t-231.5 60.5z" />
    <glyph glyph-name="spade" unicode="&#x2660;" horiz-adv-x="1344" 
d="M673 1231q26 -108 80 -193t192.5 -210.5t175.5 -193t37 -136.5q0 -95 -64 -159t-154 -64q-82 0 -154 57q-54 42 -101 133q1 -147 38.5 -233.5t119.5 -136t219 -58.5l7 -37h-792l7 37q184 0 285.5 107.5t97.5 320.5q-45 -95 -111.5 -142.5t-149.5 -47.5q-90 0 -155 65
t-65 154q0 74 32 133q45 83 146.5 166t149.5 137q74 83 107.5 148t51.5 153z" />
    <glyph glyph-name="club" unicode="&#x2663;" horiz-adv-x="1344" 
d="M1098 0h-848l8 34q165 35 219 69q81 51 132.5 151t51.5 210q0 16 -1 47q-61 -124 -148.5 -181t-178.5 -57q-116 0 -197 81t-81 199q0 116 74 195.5t165 81.5q63 -2 166 -53q-42 69 -54.5 105t-12.5 77q0 115 79 193.5t198 78.5q117 0 197.5 -78.5t80.5 -189.5
q0 -88 -69 -186q84 40 101 45q27 8 61 8q100 0 173.5 -78.5t73.5 -194.5q0 -120 -80.5 -201.5t-196.5 -82.5q-77 4 -134.5 33t-107.5 80q-35 37 -87 125q4 -159 48.5 -251.5t136.5 -153.5q62 -41 223 -72z" />
    <glyph glyph-name="heart" unicode="&#x2665;" horiz-adv-x="1344" 
d="M674 -24q-31 118 -88.5 221.5t-222.5 321.5q-121 160 -149 203q-46 70 -66.5 128.5t-20.5 118.5q0 111 74 186t180 76q113 -1 194 -79q61 -58 99 -173q32 112 92 171q83 81 191 81q109 0 184.5 -74t75.5 -176q0 -91 -43.5 -188t-170.5 -257q-164 -207 -239 -340
q-59 -105 -90 -220z" />
    <glyph glyph-name="diamond" unicode="&#x2666;" horiz-adv-x="1344" 
d="M671 1234q88 -154 218 -327q150 -200 242 -303q-74 -78 -242 -302q-136 -182 -218 -326q-27 52 -74 121q-81 120 -201 279q-26 35 -183 228q101 115 260 328q118 158 198 302z" />
    <glyph glyph-name="musicalnote" unicode="&#x266a;" horiz-adv-x="1024" 
d="M486 1363h38q172 0 227 -14q79 -20 139 -77q45 -42 71 -118.5t26 -178.5v-103h-99v43q0 68 -28.5 115.5t-84.5 72.5q-73 32 -162 32h-28v-835q0 -121 -32 -188.5t-110 -108t-170 -40.5q-109 0 -172.5 61.5t-63.5 161.5q0 105 76 176.5t199 71.5q78 0 174 -46v975z" />
    <glyph glyph-name="musicalnotedbl" unicode="&#x266b;" horiz-adv-x="1536" 
d="M534 1271l796 248v-1108q0 -124 -31.5 -187t-107 -104t-170.5 -41q-109 0 -174 62.5t-65 161.5q0 100 77 172.5t199 72.5q40 0 70.5 -7t99.5 -36v724l-595 -185v-836q0 -121 -32 -188.5t-110 -107.5t-170 -40q-109 0 -172.5 61.5t-63.5 160.5q0 105 76 176.5t199 71.5
q78 0 174 -46v975z" />
    <glyph glyph-name="fi" unicode="&#xfb01;" horiz-adv-x="1105" 
d="M407 0h-236v833h-150v177h150q1 152 40 225t112 112t167 39q51 0 139 -10v-181q-21 1 -31 1q-102 0 -136.5 -18.5t-44.5 -50.5t-10 -117h222v-177h-222v-833zM969 1365v-240h-235v240h235zM969 1010v-1010h-235v1010h235z" />
    <glyph glyph-name="fl" unicode="&#xfb02;" horiz-adv-x="1106" 
d="M409 0h-236v833h-152v177h152q2 131 29 205.5t102.5 122.5t191.5 48q55 0 134 -10v-182q-54 2 -59 2q-76 0 -119.5 -28t-43.5 -115l1 -43h221v-177h-221v-833zM970 1365v-1365h-235v1365h235z" />
    <glyph glyph-name="null" horiz-adv-x="0" 
 />
    <glyph glyph-name="pi1" horiz-adv-x="1138" 
d="M167 0v833h-122v177h1048v-177h-123v-833h-228v833h-347v-833h-228z" />
    <glyph glyph-name="fi1" horiz-adv-x="1105" 
d="M407 0h-236v833h-150v177h150q1 152 40 225t112 112t167 39q51 0 139 -10v-181q-21 1 -31 1q-102 0 -136.5 -18.5t-44.5 -50.5t-10 -117h222v-177h-222v-833zM969 1365v-240h-235v240h235zM969 1010v-1010h-235v1010h235z" />
    <glyph glyph-name="fl1" horiz-adv-x="1106" 
d="M409 0h-236v833h-152v177h152q2 131 29 205.5t102.5 122.5t191.5 48q55 0 134 -10v-182q-54 2 -59 2q-76 0 -119.5 -28t-43.5 -115l1 -43h221v-177h-221v-833zM970 1365v-1365h-235v1365h235z" />
    <glyph glyph-name="commaaccent" horiz-adv-x="1024" 
d="M723 1365l-176 -397h-91l62 397h205z" />
    <glyph glyph-name="undercommaaccent" horiz-adv-x="1024" 
d="M632 -109l-176 -370h-91l61 370h206z" />
    <glyph glyph-name="dottediacute" horiz-adv-x="501" 
d="M364 1128h-228v237h228v-237zM364 0h-228v1010h228v-1010zM518 1894l66 -150l-417 -176l-42 107z" />
    </font>
</defs>
</svg>
